<svg id="Слой_1" data-name="Слой 1" xmlns="http://www.w3.org/2000/svg" viewBox="0 0 550 550"><defs><style>.cls-1{fill:#0a1123;}</style></defs><title>символы</title><path class="cls-1" d="M30.47,278c9.75-8.73,24.66-22.1,39.05-34.94l1.54-1.54c17.46-15.94,39.55-36,57.53-53.42l3.09,3.09c5.13,5.66,10.79,11.3,15.93,17,20,20.55,48.8,50.85,72.44,74.48a9.06,9.06,0,0,0,6.68,3.09,8.25,8.25,0,0,0,6.68-3.09c11.3-11.29,26.21-25.68,39.55-39.05l9.75-9.75C293.51,223,312,204,324.83,191.18l93,89.9c1.54,1,3.09,2,5.14,2s3.59-1,5.13-2c2.57-3.09,5.66-6.16,8.23-8.73,5.14-5.14,10.27-10.8,15.41-16.43C473.3,232.8,498,206.09,521.6,178.86v-1.54h-1.54c-34.94,30.82-68.33,62.16-97.08,88.87l-19-20c-18.5-19.52-33.91-35.43-48.28-49.82L347,187.61c-5.13-5.13-10.27-10.79-15.93-15.93a9.06,9.06,0,0,0-6.68-3.09,8.25,8.25,0,0,0-6.68,3.09c-30.83,30.3-63.19,62.66-91.44,91.44-22.6-22.09-48.8-47.78-67.81-65.76C153.3,192.23,147.64,187.09,142,182c-3.09-2.56-6.16-5.65-8.73-8.22a6.56,6.56,0,0,0-5.13-2c-2,0-3.6,1-5.14,2C115.29,182,94.22,204,87,212.25l-4.61,4.62c-18,20-37,40.07-54.46,60.09v1.55h1.54Z"/><path class="cls-1" d="M520.51,274.39c-34.93,30.83-68.32,62.17-97.08,88.88l-19-20c-18.5-19.52-33.91-35.43-48.28-49.82l-8.72-8.73c-5.14-5.14-10.28-10.8-15.94-15.93a9,9,0,0,0-6.68-3.09,8.26,8.26,0,0,0-6.68,3.09c-30.82,30.3-63.19,62.66-91.44,91.44-22.59-22.09-48.8-47.78-67.8-65.76-5.14-5.14-10.8-10.27-16.43-15.41-3.1-2.57-6.16-5.66-8.73-8.23a6.61,6.61,0,0,0-5.14-2c-2,0-3.59,1-5.14,2-7.7,8.23-28.77,30.3-35.95,38.53L82.88,314C64.9,334,45.9,354,28.42,374v1.55c0,.52,1,0,1.54,0,9.76-8.73,25.17-22.1,39.05-34.94l1.55-1.54c17.45-15.94,39.55-36,57.52-53.42l3.1,3.09c5.13,5.66,10.79,11.3,15.93,16.44,20,20.54,48.8,50.84,72.44,74.48a9,9,0,0,0,6.68,3.09,8.25,8.25,0,0,0,6.68-3.09c11.3-11.3,26.21-25.68,39.55-39.05l9.75-9.75c10.8-10.79,29.8-29.8,42.12-42.64l93,89.9c1.54,1,3.09,2,5.13,2s3.59-1,5.14-2c2.57-3.09,5.66-6.16,8.23-8.73,5.13-5.14,10.27-10.8,15.41-16.44,21.57-23.11,46.23-49.82,69.87-77.05V274.4h-.59Z"/></svg>