<svg id="Слой_1" data-name="Слой 1" xmlns="http://www.w3.org/2000/svg" viewBox="0 0 550 550"><defs><style>.cls-1{fill:#f3c74a;}</style></defs><title>символы</title><path class="cls-1" d="M522.7,396.16C503.56,377,458.55,335.62,457,337.68c-2.06,2.06,24.85,36.75,43,55.89H481.31c-49.16,0-70.38-20.7-70.88-63.12V281.29c0-39.84,0-74.5-4.15-119.54-4.65-56.92-40.36-70.38-58.47-69.86-31.58,2.59-55.37,31.05-69.33,84.35-6.21-33.11-16.05-56.39-28.46-70.38q-14.73-15.52-34.16-15.52c-35.7,0-59,30-70.38,92.11a167.49,167.49,0,0,0-8.8-22.26c-11.9-24.84-30-40.36-50.18-42.42-19.67-2.07-39.34,8.28-54.86,29.49v1h1c21.73-16,34.66-24.84,59.5-15s42.43,56.92,45,120.57C139.77,317,140.8,373.4,145,373.4s6.73-54.33,13.46-108.66c6.73-53.81,12.56-160.93,58-153.18,7.42,1.27,12,2.58,17.88,6.75,20,14.26,24,95.71,30.25,141.23,6.73,45.54,6.2,83.82,11.37,83.82s5.71-20.17,12.94-82.79c6.73-62.62,25.35-144.89,61.06-147.48,7.77,0,32.61,4.65,36.23,50.19,3.61,44,3.61,78.15,3.61,117.46v49.68c1,54.33,32.08,79.17,92.11,79.17h18.64c-5.7,6.21-43.46,54.34-41.92,55.89S511.3,418.39,523.21,407a7.76,7.76,0,0,0,2.06-5.7,10.93,10.93,0,0,0-2.06-5.7Z"/></svg>