<svg id="Слой_1" data-name="Слой 1" xmlns="http://www.w3.org/2000/svg" viewBox="0 0 880 880"><defs><style>.cls-1{fill:#0a1123;}.cls-2{fill:none;stroke:#0a1123;stroke-miterlimit:10;stroke-width:6.63px;}</style></defs><title>символы</title><path class="cls-1" d="M596.07,628.7c-1.58-1.05-3.16,0-4.21,1-12.07,18.9-33.05,42-53.5,45.14-8.92,1-17.32-1.58-24.66-7.87-22.56-24.15-19.94-60.88-17.83-93.92v-3.67c6.83-74.5,38.31-144.3,67.67-204.11,33.06-64.55,11.54-126.47-25.18-152.17-34.11-24.15-81.32-27.82-120.67-10-42.5,19.41-72.91,79.24-49.84,144.83,8.4,23.62,19.94,46.7,30.95,68.75,4.71,9.45,9.44,19.42,13.64,28.87a74,74,0,0,0-36.72-10,74.51,74.51,0,1,0,74.49,74.51,101.79,101.79,0,0,0-3.67-33.06c-6.82-26.24-17.83-50.9-28.85-75-8.92-19.95-17.83-40.94-24.65-61.93-9.45-30.95-5.78-64.55,10-87.11,13.11-18.37,32.52-28.86,57.17-30.44,33.57-2.09,60.33,9.45,75.54,32,17.31,25.71,17.31,63.51.53,98.66-30.95,67.17-60.33,139.59-63,215.14V571c-.53,37.78-1,80.8,29.39,108.11,8.4,6.83,17.83,10.49,27.28,10.49,3.15,0,6.82,0,10-1,24.65-5.78,47.21-32.53,57.17-55.1a3.51,3.51,0,0,0-1.58-4.2ZM424.52,509.59a48.8,48.8,0,1,1-48.8-48.81A49,49,0,0,1,424.52,509.59Z"/><path class="cls-2" d="M824.85,475.65C806.71,669,644,820.29,445.93,820.29S85.17,669,67,475.65"/><path class="cls-2" d="M67,403.57C85.17,210.25,247.9,58.93,445.93,58.93S806.71,210.25,824.85,403.57"/><path class="cls-2" d="M46.13,475.81c18.3,204.78,190.31,365.3,399.8,365.3s381.61-160.6,399.84-365.46"/><path class="cls-2" d="M46.12,403.57C64.34,198.73,236.39,38.11,445.93,38.11S827.54,198.73,845.77,403.57"/><path class="cls-2" d="M824.85,474.73C806.7,668.07,644,819.37,445.93,819.37S85.16,668.07,67,474.73"/><path class="cls-2" d="M67,402.65C85.16,209.32,247.89,58,445.93,58S806.7,209.32,824.85,402.65"/><path class="cls-2" d="M46.12,474.88c18.3,204.79,190.31,365.31,399.81,365.31s381.6-160.61,399.83-365.46"/><path class="cls-2" d="M46.11,402.65C64.33,197.81,236.38,37.19,445.93,37.19s381.6,160.62,399.83,365.46"/></svg>