<svg id="Слой_1" data-name="Слой 1" xmlns="http://www.w3.org/2000/svg" viewBox="0 0 880 880"><defs><style>.cls-1{fill:#f3c74a;}.cls-2{fill:none;stroke:#f3c74a;stroke-miterlimit:10;stroke-width:6.63px;}</style></defs><title>символы</title><path class="cls-1" d="M206.74,445.61c9.4-8.42,23.78-21.31,37.65-33.69l1.49-1.49c16.83-15.37,38.13-34.68,55.47-51.52l3,3c4.95,5.45,10.41,10.89,15.36,16.35,19.31,19.81,47.05,49,69.85,71.83a8.75,8.75,0,0,0,6.44,3,8,8,0,0,0,6.44-3c10.89-10.89,25.27-24.77,38.14-37.66L450,403c10.41-10.41,28.23-28.74,40.61-41.12l89.66,86.69c1.49,1,3,2,4.95,2s3.47-1,5-2c2.47-3,5.45-5.94,7.93-8.42,4.95-4.95,9.9-10.41,14.86-15.85C633.73,402,657.5,376.27,680.3,350v-1.49h-1.49c-33.69,29.73-65.88,60-93.6,85.71l-18.33-19.31c-17.83-18.83-32.69-34.17-46.55-48.05l-8.41-8.42c-5-4.95-9.91-10.41-15.36-15.36a8.75,8.75,0,0,0-6.45-3,8,8,0,0,0-6.44,3c-29.72,29.22-60.93,60.43-88.17,88.18-21.78-21.3-47.05-46.07-65.37-63.41-5-5-10.41-9.91-15.85-14.87-3-2.47-5.94-5.45-8.42-7.93a6.35,6.35,0,0,0-4.95-2c-2,0-3.46,1-5,2-7.43,7.93-27.75,29.22-34.67,37.16l-4.45,4.45c-17.34,19.31-35.66,38.64-52.51,57.95v1.49h1.48Z"/><path class="cls-1" d="M679.25,442.14c-33.69,29.73-65.88,60-93.61,85.71l-18.32-19.31c-17.84-18.83-32.7-34.17-46.55-48.05l-8.41-8.42c-5-4.95-9.91-10.41-15.37-15.36a8.71,8.71,0,0,0-6.44-3,8,8,0,0,0-6.44,3c-29.72,29.22-60.93,60.43-88.17,88.18-21.79-21.3-47.05-46.07-65.38-63.41-4.95-5-10.41-9.91-15.84-14.86-3-2.48-5.94-5.46-8.42-7.94a6.35,6.35,0,0,0-4.95-2c-2,0-3.46,1-5,2-7.43,7.94-27.75,29.22-34.68,37.16l-4.45,4.45c-17.33,19.31-35.65,38.64-52.51,57.95v1.49c0,.51,1,0,1.49,0,9.41-8.41,24.26-21.3,37.65-33.69l1.49-1.49c16.84-15.36,38.14-34.67,55.47-51.51l3,3c5,5.46,10.41,10.9,15.36,15.85,19.31,19.82,47.06,49,69.85,71.83a8.73,8.73,0,0,0,6.44,3,8,8,0,0,0,6.45-3c10.89-10.89,25.27-24.77,38.13-37.65l9.4-9.41c10.41-10.41,28.74-28.74,40.62-41.12,29.71,28.74,59.94,58,89.65,86.69,1.49,1,3,2,5,2s3.46-1,4.95-2c2.48-3,5.46-5.94,7.93-8.41,5-5,9.91-10.42,14.86-15.85,20.8-22.3,44.58-48.05,67.37-74.31v-1.49h-.56Z"/><path class="cls-2" d="M822.43,473.07C804.29,666.42,641.56,817.72,443.51,817.72S82.75,666.42,64.61,473.07"/><path class="cls-2" d="M64.61,401C82.75,207.67,245.48,56.36,443.51,56.36S804.29,207.67,822.43,401"/><path class="cls-2" d="M43.71,473.23C62,678,234,838.53,443.51,838.53s381.61-160.6,399.83-365.46"/><path class="cls-2" d="M43.69,401C61.92,196.16,234,35.54,443.51,35.54S825.12,196.16,843.34,401"/><path class="cls-2" d="M822.42,472.15C804.28,665.5,641.55,816.79,443.5,816.79S82.74,665.5,64.6,472.15"/><path class="cls-2" d="M64.6,400.08C82.74,206.75,245.47,55.44,443.5,55.44S804.28,206.75,822.42,400.08"/><path class="cls-2" d="M43.7,472.31C62,677.09,234,837.61,443.5,837.61S825.11,677,843.34,472.15"/><path class="cls-2" d="M43.68,400.08C61.91,195.24,234,34.62,443.5,34.62S825.11,195.24,843.34,400.08"/></svg>