<svg id="Слой_1" data-name="Слой 1" xmlns="http://www.w3.org/2000/svg" viewBox="0 0 550 550"><defs><style>.cls-1,.cls-2{fill:none;stroke-miterlimit:10;}.cls-1,.cls-2,.cls-4{stroke:#363e6c;}.cls-1{stroke-width:2.95px;}.cls-2{stroke-width:3.11px;}.cls-3,.cls-4{fill:#363e6c;}.cls-4{stroke-linecap:round;stroke-linejoin:round;stroke-width:4.38px;}</style></defs><title>символы</title><path class="cls-1" d="M512.13,297.82C500.79,418.69,399,513.27,275.2,513.27S49.63,418.69,38.29,297.82"/><path class="cls-1" d="M38.29,252.76C49.63,131.9,151.38,37.31,275.2,37.31S500.79,131.9,512.13,252.76"/><path class="cls-2" d="M25.22,297.91c11.44,128,119,228.37,250,228.37s238.61-100.4,250-228.46"/><path class="cls-2" d="M25.21,252.76c11.4-128.06,119-228.46,250-228.46s238.61,100.4,250,228.46"/><path class="cls-1" d="M512.13,297.24C500.78,418.11,399,512.69,275.2,512.69S49.63,418.11,38.28,297.24"/><path class="cls-1" d="M38.28,252.18C49.63,131.33,151.37,36.73,275.2,36.73s225.58,94.6,236.93,215.45"/><path class="cls-2" d="M25.22,297.34c11.44,128,119,228.36,250,228.36s238.61-100.39,250-228.46"/><path class="cls-2" d="M25.21,252.18c11.39-128,119-228.46,250-228.46s238.61,100.41,250,228.46"/><polygon class="cls-3" points="366.8 197.77 354 174.39 329.87 162.62 353.73 151.42 366.03 126.43 378.04 151.42 402.21 162.6 378.04 173.59 366.8 197.77"/><path class="cls-4" d="M241.65,169c-3.05,4.37-21.41,29.16-28.53,38.78-1.46,2-3,3.86-4.64,5.72-4.75,5.46-16.42,22.48-5.93,48.49,12.92,32,79.13,185.35,79.13,185.35L331.85,295l22.93-60.23-50.24,132s-47.53-115.65-62-158.23,33.35-41.37,33.35-41.37L138.7,170.43"/></svg>