<svg id="Слой_1" data-name="Слой 1" xmlns="http://www.w3.org/2000/svg" viewBox="0 0 550 550"><defs><style>.cls-1{fill:#f3c74a;}</style></defs><title>символы</title><path class="cls-1" d="M490.31,125.36C467.82,97.61,427.63,84.7,387.94,92.82c-32.53,6.69-56,29.19-69.85,46.4-17.7,23-30.14,55-38.76,97.58-8.13-45-24.87-95.67-69.36-126.77C169.3,79.91,106.16,85.16,72.19,121c-13.4,15.3-21.53,36.36-22.48,57.89-1.91,28.22,11,56,33.48,72.25,1.44.95,2.88.48,4.3-.49a3.6,3.6,0,0,0,0-4.3c-9.57-8.61-17.23-19.13-21.53-30.14-10-26.31-4.29-58.36,14.36-81.32,19.62-21.53,55-30.61,86.1-23,61.71,16.26,80.38,87.06,84.67,108.59,15.31,73.66,14.84,150.69,14.35,224.84v6.69a13.82,13.82,0,0,0,4.3,10.05,14.25,14.25,0,0,0,9.57,3.83h1.44a13.37,13.37,0,0,0,13.4-13.4v-22c0-75.59,0-154,19.13-227.72,12.92-46.88,43.06-80.37,79.89-90.4,31.09-8.13,66.48,1.44,86.11,23,13.86,16.26,21,38.76,19.13,61.24-1.9,20.58-11,38.27-25.82,50.72-1.44,1-1.44,2.88,0,4.3,1,1.44,2.87,1.44,4.3.48,17.22-12,28.7-31.09,32.53-53.57,3.83-25.36-2.88-52.62-17.7-72.25Z"/></svg>