<svg id="Слой_1" data-name="Слой 1" xmlns="http://www.w3.org/2000/svg" viewBox="0 0 880 880"><defs><style>.cls-1{fill:#f3c74a;}.cls-2{fill:none;stroke:#f3c74a;stroke-miterlimit:10;stroke-width:6.63px;}</style></defs><title>символы</title><path class="cls-1" d="M300.27,490.27a83,83,0,0,0,83.12-83.14c0-46-28.18-73.28-66.23-81.26,67.62-40.41,165.3-47.91,247.48-18.79,39.45,14.57,70.93,36.64,92.06,63.89a4.37,4.37,0,0,0,7-5.18c-20.65-30.53-52.59-55.43-93.44-72.8-82.66-33.82-184.57-31.95-259.71,4.22l-2.34.93c-14.09,7.05-38.05,18.32-61.53,42.76-26.77,27.7-29.59,55.43-29.59,66.23a83,83,0,0,0,83.11,83.14Zm0-137.63a55.43,55.43,0,1,1-55.42,55.43A55.53,55.53,0,0,1,300.27,352.64Z"/><path class="cls-1" d="M581.08,389.28A83,83,0,0,0,498,472.41c0,46,28.18,73.29,66.23,81.27-67.62,40.4-165.3,47.9-247.49,18.79-39.44-14.57-70.92-36.65-92-63.89a4.37,4.37,0,1,0-7.05,5.17c20.66,30.53,52.6,55.43,93.45,72.81,82.66,34.29,184.57,32.4,259.7-4.22l2.35-.94c14.09-7,38-18.31,61.53-42.75,26.77-27.71,29.59-55.43,29.59-66.24a83,83,0,0,0-83.12-83.14Zm0,137.63a55.43,55.43,0,1,1,55.42-55.43A55.53,55.53,0,0,1,581.08,526.91Z"/><path class="cls-2" d="M818.09,475.65C800,669,637.22,820.29,439.17,820.29S78.41,669,60.27,475.65"/><path class="cls-2" d="M60.27,403.57C78.41,210.25,241.14,58.93,439.17,58.93S800,210.25,818.09,403.57"/><path class="cls-2" d="M39.37,475.81c18.3,204.78,190.31,365.3,399.8,365.3S820.78,680.51,839,475.65"/><path class="cls-2" d="M39.35,403.57C57.58,198.73,229.63,38.11,439.17,38.11S820.78,198.73,839,403.57"/><path class="cls-2" d="M818.08,474.73C799.94,668.07,637.21,819.37,439.16,819.37S78.4,668.07,60.26,474.73"/><path class="cls-2" d="M60.26,402.65C78.4,209.32,241.13,58,439.16,58S799.94,209.32,818.08,402.65"/><path class="cls-2" d="M39.36,474.88c18.3,204.79,190.31,365.31,399.8,365.31S820.77,679.58,839,474.73"/><path class="cls-2" d="M39.35,402.65C57.57,197.81,229.62,37.19,439.16,37.19S820.77,197.81,839,402.65"/></svg>