<svg id="Слой_1" data-name="Слой 1" xmlns="http://www.w3.org/2000/svg" viewBox="0 0 550 550"><defs><style>.cls-1{fill:#f3c74a;stroke:#f3c74a;stroke-linecap:round;stroke-linejoin:round;stroke-width:7.75px;}</style></defs><title>символы</title><path class="cls-1" d="M506.38,408.57c-71-6.76-143.51-8.21-230.48-8.7-73.93,0-152.7,1.45-230.48,8.7-.49,0-1,.49-1,1.45s.49,1.46,1,1.46c77.81,6.75,156.55,8.21,230.48,8.7,75.39,0,155.11-1.93,230.48-8.7.49,0,1-.49,1-1.46S506.85,408.57,506.38,408.57Z"/><path class="cls-1" d="M506.38,332.71c-44.45-2.41-90.85-3.87-135.79-5.32-6.28,0-13,0-19.33-.49,23.67-20.78,37.2-52.19,37.2-85a108.75,108.75,0,0,0-43-87c-23.67-19.32-56.06-27.53-87.94-22.23-32.37,5.32-60.4,23.67-76.82,49.77-30,44.94-20.78,108.72,19.82,144.47-56.06,1.45-113,3.38-155.11,5.79a1.93,1.93,0,1,0,0,3.85c44.94,2.42,95.68,3.87,136.25,5.33h16c9.67,0,19.33.49,29.49.49a8,8,0,0,0,7.24-4.35,10.51,10.51,0,0,0,1-6.75,8.19,8.19,0,0,0-4.35-5.33,100.66,100.66,0,0,1-23.66-19.32c-16.92-18.37-25.13-44.45-22.71-70.56s15.46-49.77,35.28-64.27A91.71,91.71,0,0,1,367.27,236c2.42,26.09-5.79,52.19-22.7,70.56a117.48,117.48,0,0,1-24.16,19.82,8.48,8.48,0,0,0-3.87,9.66,8.13,8.13,0,0,0,7.74,6.28h0c10.15,0,19.82,0,29.48-.49h15.95C415.12,340.41,463,339,506,336.54a1.93,1.93,0,1,0,0-3.85Z"/></svg>