<svg id="Слой_1" data-name="Слой 1" xmlns="http://www.w3.org/2000/svg" viewBox="0 0 880 880"><defs><style>.cls-1{fill:#0a1123;}.cls-2{fill:none;stroke:#0a1123;stroke-miterlimit:10;stroke-width:6.63px;}</style></defs><title>символы</title><path class="cls-1" d="M675.73,552.27c-18.46-18.46-61.86-58.39-63.36-56.4-2,2,24,35.44,41.41,53.9h-18c-47.4,0-67.86-20-68.35-60.88v-47.4c0-38.42,0-71.85-4-115.29-4.48-54.89-38.92-67.88-56.39-67.37-30.44,2.5-53.38,29.94-66.84,81.35-6-31.93-15.48-54.38-27.44-67.88q-14.22-15-32.94-15c-34.42,0-56.87,28.95-67.87,88.83a160.57,160.57,0,0,0-8.47-21.46c-11.48-24-28.94-38.93-48.4-40.92-19-2-37.92,8-52.89,28.44v1h1c20.95-15.48,33.43-24,57.38-14.47S301.51,353.65,304,415c2.5,60.88,3.49,115.29,7.49,115.29s6.49-52.4,13-104.8c6.49-51.89,12.11-155.19,55.87-147.72,7.16,1.22,11.6,2.48,17.25,6.51,19.29,13.75,23.17,92.3,29.16,136.2,6.49,43.92,6,80.84,11,80.84s5.49-19.46,12.47-79.85c6.49-60.39,24.44-139.73,58.88-142.22,7.48,0,31.44,4.48,34.93,48.4,3.48,42.42,3.48,75.36,3.48,113.28v47.91c1,52.4,30.93,76.36,88.82,76.36h18c-5.5,6-41.9,52.39-40.42,53.9s50.88-45.42,62.36-56.4a7.5,7.5,0,0,0,2-5.5,10.47,10.47,0,0,0-2-5.49Z"/><path class="cls-2" d="M819.75,473.64C801.6,667,638.88,818.28,440.83,818.28S80.07,667,61.92,473.64"/><path class="cls-2" d="M61.92,401.57C80.07,208.24,242.79,56.93,440.83,56.93S801.6,208.24,819.75,401.57"/><path class="cls-2" d="M41,473.8c18.3,204.78,190.31,365.3,399.8,365.3s381.6-160.6,399.83-365.46"/><path class="cls-2" d="M41,401.57C59.24,196.73,231.28,36.11,440.83,36.11s381.6,160.62,399.83,365.46"/><path class="cls-2" d="M819.74,472.72C801.6,666.07,638.87,817.36,440.82,817.36S80.06,666.07,61.91,472.72"/><path class="cls-2" d="M61.91,400.65C80.06,207.32,242.78,56,440.82,56S801.6,207.32,819.74,400.65"/><path class="cls-2" d="M41,472.88c18.3,204.78,190.31,365.3,399.8,365.3s381.61-160.6,399.83-365.46"/><path class="cls-2" d="M41,400.65C59.23,195.81,231.28,35.19,440.82,35.19S822.43,195.81,840.65,400.65"/></svg>