<svg id="Слой_1" data-name="Слой 1" xmlns="http://www.w3.org/2000/svg" viewBox="0 0 1021 920"><defs><style>.cls-1{fill:none;stroke:#0a1123;stroke-linecap:round;stroke-linejoin:round;stroke-width:8px;}</style></defs><title>символы</title><polyline class="cls-1" points="776 496.93 999.35 883.86 28.66 883.86 252.86 496.93"/><polyline class="cls-1" points="292.14 427.42 514 43.06 735.87 427.42"/><polyline class="cls-1" points="751.11 496.93 963.08 864.12 61.89 864.12 274.7 496.93"/><polyline class="cls-1" points="313.98 427.42 512.48 83.52 710.99 427.42"/><polyline class="cls-1" points="664.79 864.12 664.79 843.71 606.62 765.43 546.33 799.28"/><path class="cls-1" d="M259.69,864.12s10.58-69.07,22.21-75.42l42.31-14.81,55.53,74.05"/><polyline class="cls-1" points="279.98 864.12 289.31 823.08 281.9 788.7"/><polyline class="cls-1" points="335.32 788.7 329.5 814.35 289.31 823.08"/><line class="cls-1" x1="354.53" y1="864.12" x2="329.5" y2="814.35"/><polyline class="cls-1" points="398.25 652.23 378.42 652.23 367.68 673.71 361.23 686.61 362.95 724.3 406.18 833"/><polyline class="cls-1" points="497.97 835.25 453.78 781.43 401.82 768.34 392.73 799.18"/><polyline class="cls-1" points="546.33 805.89 492.25 751.67 457.35 756.43 453.78 781.43"/><polyline class="cls-1" points="457.35 756.43 387.14 704.07 362.95 724.3"/><polyline class="cls-1" points="492.25 752.2 440.56 676.83 387.14 704.6 370.96 667.15"/><path class="cls-1" d="M319.72,775.46l-38.34-56.05s-20.63-36.5,4-67.18l29.19-7.52,30.31-7.82,28.34,25.81"/><polyline class="cls-1" points="386.7 784.01 305.17 706.18 314.53 644.71"/><polyline class="cls-1" points="281.38 719.41 281.38 719.41 305.17 706.18"/><line class="cls-1" x1="310.62" y1="670.35" x2="361.23" y2="686.61"/><polygon class="cls-1" points="605.56 842.32 605.56 809.39 575.94 807.41 569.6 830.62 584.47 846.29 605.56 842.32"/><line class="cls-1" x1="641.2" y1="864.12" x2="605.56" y2="842.32"/><line class="cls-1" x1="627.74" y1="793.85" x2="605.56" y2="809.39"/><line class="cls-1" x1="575.94" y1="807.41" x2="560.81" y2="791.15"/><polyline class="cls-1" points="569.6 830.62 546.33 835.25 398.25 835.25 379.74 847.94 359.62 864.12"/><polyline class="cls-1" points="539.98 654.35 472.29 477.68 389.79 378.23 343.67 380.76 336.9 526.34 398.25 652.23 441.62 672.33 499.79 712.53 546.33 799.28 546.33 835.25 569.6 860.64 584.47 846.29"/><polyline class="cls-1" points="389.79 378.23 379.74 424.25 339.57 468.89"/><polyline class="cls-1" points="336.9 519.46 389.79 538.51 442.67 620.49 442.67 673.06"/><polyline class="cls-1" points="499.79 712.53 485.51 588.76 465.41 576.59 442.67 620.49"/><polyline class="cls-1" points="465.41 576.59 448.49 516.29 396.66 466.57 379.74 424.25"/><line class="cls-1" x1="389.79" y1="538.51" x2="395.84" y2="464.52"/><line class="cls-1" x1="472.29" y1="477.68" x2="448.49" y2="516.29"/><path class="cls-1" d="M560.81,788.7,528.88,682.91s18.51-56.6,25.91-61.36a12,12,0,0,1,13.59,0l56.22,51.51,25.06,150.29"/><polyline class="cls-1" points="606.62 765.43 589.27 674.98 548.78 630.72"/><path class="cls-1" d="M624.6,673.06c-2.15.86-36.05,1.13-36.05,1.13"/><polyline class="cls-1" points="515.84 591.33 528.88 469.21 568.38 399.92 609.26 449.64 621.95 530.57 605.56 655.62"/><polygon class="cls-1" points="548.78 567.2 573.96 563.63 592.6 524.36 592.6 464.52 580.7 444.22 562.46 444.22 548.78 489.05 548.78 567.2"/><line class="cls-1" x1="590.77" y1="642.07" x2="573.96" y2="563.63"/><line class="cls-1" x1="522.94" y1="609.88" x2="548.78" y2="567.2"/><line class="cls-1" x1="621.85" y1="531.39" x2="592.6" y2="524.36"/><line class="cls-1" x1="609.26" y1="449.64" x2="592.6" y2="464.52"/><line class="cls-1" x1="552.53" y1="427.72" x2="562.46" y2="444.22"/><line class="cls-1" x1="528.88" y1="469.21" x2="548.78" y2="489.05"/><line class="cls-1" x1="580.7" y1="444.22" x2="592.6" y2="429.38"/><path class="cls-1" d="M636.19,742.61s16.7-23.47,37.32-48.86,14.28-107.7,14.28-107.7H649.66l-37.81,21.58"/><path class="cls-1" d="M649.66,823.35s149.19-89.82,157.92-113.68,7.14-96.16,0-106.82l-81.71,27.87-47.93,55.89"/><path class="cls-1" d="M778.45,864.12l20-51.09s-.59-41.19-54.23-50.28"/><path class="cls-1" d="M716.89,864.12c.8-1.85.25-14.06.25-14.06l29.36-9.52,16.26-21.43L740,801.62,703.26,813l-8.33,20,22.21,17.06"/><line class="cls-1" x1="744.22" y1="762.75" x2="739.95" y2="801.62"/><line class="cls-1" x1="762.76" y1="819.11" x2="798.45" y2="813.03"/><line class="cls-1" x1="758.39" y1="864.12" x2="746.5" y2="840.54"/><line class="cls-1" x1="703.26" y1="813.03" x2="691.81" y2="797.18"/><path class="cls-1" d="M670.53,810.54l-3-71.56,90.82-48.8,2-45.47s-93,86.74-92.81,94.27"/><line class="cls-1" x1="807.58" y1="709.67" x2="758.39" y2="690.18"/><path class="cls-1" d="M807.58,602.85c1.58-.4-47.2,41.86-47.2,41.86"/><line class="cls-1" x1="746.98" y1="657.31" x2="726.84" y2="630.39"/><line class="cls-1" x1="636.19" y1="742.61" x2="667.57" y2="738.98"/><polyline class="cls-1" points="649.66 586.05 649.66 610.97 601.86 652.23"/><polyline class="cls-1" points="630.7 709.67 664.79 615.73 649.66 610.97"/><line class="cls-1" x1="687.79" y1="586.05" x2="664.79" y2="615.73"/><line class="cls-1" x1="664.79" y1="843.71" x2="694.93" y2="833"/></svg>