<svg id="Слой_1" data-name="Слой 1" xmlns="http://www.w3.org/2000/svg" viewBox="0 0 550 550"><defs><style>.cls-1{fill:#f3c74a;}</style></defs><title>символы</title><path class="cls-1" d="M436.13,276.27a868.18,868.18,0,0,0-88.61-8.94c1.62-66.25,15.84-148.77,73.16-184.13.81-.41.81-1.22.81-2s-1.22-1.22-2-.81c-57.32,19.52-93.9,87.39-97.55,186.16-14.64-.41-29.68-.81-45.94-.81s-30.89,0-45.51.81c-.42-39.83-6.91-76-17.07-104.45-8.12-22.37-32.92-75.62-81.28-81.72-.81,0-1.62.41-1.62,1.22s0,1.62.81,2c35,14.23,56.91,48.36,67.48,109.33a582.8,582.8,0,0,1,5.69,74.78c-32.93,1.62-61.78,4.48-88.61,8.94-.81,0-1.23.81-1.23,1.62s.42,1.62,1.23,1.62c26.83,4.06,55.68,6.91,88.61,8.94C202.85,355.08,188.62,437.6,131.31,473c-.81.42-.81,1.23-.81,2,0,.41.81.81,1.62.81h.41c57.32-19.52,93.9-87.39,97.55-186.16,14.64.41,29.67.81,45.93.81s30.9,0,45.52-.81c.41,39.42,6.9,76,17.07,104.45,8.13,22.36,32.93,75.61,81.29,81.71.81,0,1.62-.42,1.62-1.23s0-1.62-.81-2c-35-14.22-56.91-48.36-67.48-109.33a576.54,576.54,0,0,1-5.69-74.77c32.93-1.62,61.78-4.48,88.61-8.94.81,0,1.23-.81,1.23-1.62s-.42-1.62-1.23-1.62Z"/></svg>