<svg id="Слой_1" data-name="Слой 1" xmlns="http://www.w3.org/2000/svg" viewBox="0 0 880 880"><defs><style>.cls-1{fill:#0a1123;}.cls-2{fill:none;stroke:#0a1123;stroke-miterlimit:10;stroke-width:6.63px;}</style></defs><title>символы</title><path class="cls-1" d="M643,298.35c-21.68-26.76-60.44-39.21-98.7-31.37-31.37,6.45-54,28.15-67.36,44.74-17.06,22.15-29.06,53.06-37.37,94.11-7.83-43.36-24-92.27-66.88-122.26-39.21-29-100.09-24-132.85,10.62C226.91,309,219.08,329.26,218.16,350c-1.84,27.21,10.61,54,32.29,69.67,1.38.92,2.77.47,4.14-.47a3.45,3.45,0,0,0,0-4.14c-9.23-8.31-16.61-18.45-20.76-29.07-9.69-25.37-4.14-56.28,13.84-78.43,18.92-20.76,53.05-29.52,83-22.15,59.49,15.68,77.5,84,81.64,104.72,14.75,71,14.3,145.33,13.84,216.84v6.45a13.33,13.33,0,0,0,4.14,9.7,13.71,13.71,0,0,0,9.22,3.69h1.39a12.89,12.89,0,0,0,12.92-12.92V592.68c0-72.9,0-148.55,18.45-219.61,12.45-45.22,41.52-77.51,77-87.19,30-7.84,64.1,1.39,83,22.15,13.36,15.68,20.28,37.38,18.45,59.06C649,386.93,640.19,404,625.91,416c-1.39.92-1.39,2.78,0,4.15.91,1.38,2.77,1.38,4.14.46,16.61-11.53,27.68-30,31.37-51.66,3.69-24.46-2.78-50.75-17.06-69.68Z"/><path class="cls-2" d="M821.9,469.52C803.75,662.87,641,814.16,443,814.16S82.22,662.87,64.07,469.52"/><path class="cls-2" d="M64.07,397.45C82.22,204.12,244.94,52.81,443,52.81S803.75,204.12,821.9,397.45"/><path class="cls-2" d="M43.18,469.68C61.48,674.46,233.49,835,443,835s381.6-160.6,399.83-365.46"/><path class="cls-2" d="M43.16,397.45C61.39,192.61,233.43,32,443,32s381.6,160.62,399.83,365.46"/><path class="cls-2" d="M821.89,468.6C803.75,662,641,813.24,443,813.24S82.21,662,64.06,468.6"/><path class="cls-2" d="M64.06,396.53C82.21,203.2,244.93,51.88,443,51.88S803.75,203.2,821.89,396.53"/><path class="cls-2" d="M43.17,468.76c18.3,204.78,190.31,365.3,399.8,365.3S824.58,673.46,842.8,468.6"/><path class="cls-2" d="M43.15,396.53C61.38,191.68,233.42,31.07,443,31.07S824.58,191.68,842.8,396.53"/></svg>