<svg id="Слой_1" data-name="Слой 1" xmlns="http://www.w3.org/2000/svg" viewBox="0 0 1000 870"><defs><style>.cls-1{fill:#363e6c;stroke:#363e6c;stroke-linecap:round;stroke-linejoin:round;stroke-width:2.19px;}.cls-2{fill:#0a1123;}.cls-3{fill:none;stroke:#0a1123;stroke-miterlimit:10;stroke-width:2px;}</style></defs><title>символы</title><rect class="cls-1" x="-6.82" y="-9.79" width="1015.66" height="888.51"/><path class="cls-2" d="M102.13,600.73h80.5v2.81q-9.15.86-13.18,2.8a14.3,14.3,0,0,0-6.09,5.67,15.85,15.85,0,0,0-2.32,8.36,23.11,23.11,0,0,0,.61,5.61q.6,2.44,3.66,10.61l36.1,98.18,35-86.11q7.32-18.17,7.32-26.46a25.27,25.27,0,0,0-1.46-8.66,15.09,15.09,0,0,0-3.91-6.22,14.47,14.47,0,0,0-5.36-2.93,27.63,27.63,0,0,0-7.56-.85v-2.81h54.27v2.81a29.75,29.75,0,0,0-11.65,3.29,32.74,32.74,0,0,0-9.45,8.17,63.09,63.09,0,0,0-6.4,10.67q-3.36,6.78-9.21,20.92L193,767.21h-5.12L139.33,642.56q-9.51-24.51-15.25-31.1a21.27,21.27,0,0,0-9-6,39,39,0,0,0-13-1.89Z"/><path class="cls-2" d="M374.74,600.73v2.81a39.21,39.21,0,0,0-11.28,2,20.5,20.5,0,0,0-7.75,5.12q-4.75,4.88-5.85,13.54a133.31,133.31,0,0,0-.73,14.88v89.89a102.22,102.22,0,0,0,1,16,25.87,25.87,0,0,0,3.17,9.39,19.68,19.68,0,0,0,8.18,7.26q5,2.38,13.29,2.87v2.8H296.8v-2.8a38.86,38.86,0,0,0,11.41-2,20.72,20.72,0,0,0,7.62-5.07,19.76,19.76,0,0,0,5.25-9.88q1.34-6,1.34-18.53V639c0-8.38-4-25.82-6.59-28.42a19.38,19.38,0,0,0-7.68-5.12,40.07,40.07,0,0,0-11.35-2v-2.81Z"/><path class="cls-2" d="M443.87,685.74v43.18q0,12.44,1.4,18.47a20.49,20.49,0,0,0,12.81,15,38.84,38.84,0,0,0,11.4,2v2.8H391.55v-2.8a38.78,38.78,0,0,0,11.4-2,20.75,20.75,0,0,0,7.63-5.07,19.75,19.75,0,0,0,5.24-9.88q1.33-6,1.34-18.53V639q0-12.57-1.34-18.54a19.79,19.79,0,0,0-5.24-9.88,19.41,19.41,0,0,0-7.69-5.12,40.06,40.06,0,0,0-11.34-2v-2.81h58.79q14.75,0,19.39.12,18.9.85,29.64,5.13a40.35,40.35,0,0,1,18.72,14.57,38.83,38.83,0,0,1,6.64,22.5q0,19-14.39,30.49a41.35,41.35,0,0,1-9.69,5.61,86.7,86.7,0,0,1-14.21,4.15q7.32,3,10.85,6.34a28.56,28.56,0,0,1,5.12,6.41q2.32,3.84,7,13.6,10.85,22.32,16.4,32.62t9.33,14.94a19.45,19.45,0,0,0,5.92,5.25,22.59,22.59,0,0,0,7.86,1.95v2.8H508.39q-3-6.71-3.9-8.53L496,739.28a311.2,311.2,0,0,0-15.49-30.85q-7.8-13.3-14.27-18.18a21.27,21.27,0,0,0-7.07-3.47,35.58,35.58,0,0,0-9.27-1Zm-1.39-2.68h4.64q15.12,0,21.65-1.71A28.63,28.63,0,0,0,481,674.28q12.8-12.19,12.8-30.25a44.57,44.57,0,0,0-3.72-18.11,37.44,37.44,0,0,0-10.3-14,30,30,0,0,0-12.2-5.79q-7.08-1.65-20.13-1.65h-5Z"/><path class="cls-2" d="M693.35,600.73l1.46,53.06L692,654q-8.41-27.07-21.58-40.31a43.3,43.3,0,0,0-31.84-13.23q-14.51,0-24.94,5.91t-19.45,19.21q-18.3,27.2-18.3,62.2a110.71,110.71,0,0,0,4.39,31.53,83.12,83.12,0,0,0,12.81,26.16q16.35,22,39.88,22a39.82,39.82,0,0,0,17.44-3.91A35.33,35.33,0,0,0,671,730.26q0-12.07-6.53-17.44T643,707.45v-2.81h77.82v2.81q-10.74,1-15.06,3a12.71,12.71,0,0,0-6.41,6.89Q697,722.7,697,738.67q0,4.4.49,13.66l.25,2.81a22.51,22.51,0,0,0-6.83-1.71q-2.68,0-6.83,2.81a81.75,81.75,0,0,1-24.64,11.22,110.16,110.16,0,0,1-29.64,3.9q-21.46,0-38.72-7.32a69.08,69.08,0,0,1-28-21,74,74,0,0,1-12.38-24.39,101.83,101.83,0,0,1-4.33-30,104.88,104.88,0,0,1,7.8-40.62,81.41,81.41,0,0,1,22-31,84.08,84.08,0,0,1,26.71-15.24,94.75,94.75,0,0,1,31.95-5.37,84.66,84.66,0,0,1,18.12,1.83,93.85,93.85,0,0,1,17.74,6l7.2,3.29a13,13,0,0,0,4.87,1.1q4.89,0,7.44-7.93Z"/><path class="cls-2" d="M722.84,685.07a83.7,83.7,0,0,1,8.78-38,89.13,89.13,0,0,1,25.62-30.57,98.8,98.8,0,0,1,27.07-14.83,86.39,86.39,0,0,1,29.27-5.19,84.72,84.72,0,0,1,36.35,8.24A93.13,93.13,0,0,1,880.66,628q21.47,24.4,21.47,55.53a83,83,0,0,1-5.61,30.15,85.8,85.8,0,0,1-16.34,26.49A92.1,92.1,0,0,1,849,763.18a90.63,90.63,0,0,1-74.7.25A88.54,88.54,0,0,1,743.82,741a81.43,81.43,0,0,1-15.55-25.81A84.94,84.94,0,0,1,722.84,685.07Zm29.52,1.83q0,35.4,19.27,59.69,8.65,10.86,18.35,15.8a48.59,48.59,0,0,0,22.38,4.94q12.81,0,22.51-4.88t18.47-15.86q19.27-24.42,19.27-60.18a127.37,127.37,0,0,0-5.3-37.16q-5.31-17.52-14.94-29.72-7.82-10-17.38-14.59t-22.63-4.57q-12.93,0-22.38,4.51t-17.5,14.65q-9.63,12.08-14.88,29.66A131.48,131.48,0,0,0,752.36,686.9Z"/><polygon class="cls-2" points="569.28 245.9 560.79 230.4 544.79 222.6 560.61 215.18 568.77 198.62 576.73 215.18 592.75 222.59 576.73 229.87 569.28 245.9"/><path class="cls-2" d="M487.7,226.8c-2,2.9-14.19,19.34-18.91,25.71-1,1.31-2,2.56-3.08,3.79-3.15,3.62-10.88,14.9-3.93,32.14,8.56,21.21,52.45,122.86,52.45,122.86l33.25-100.94,15.2-39.92-33.3,87.48S497.88,281.26,488.32,253s22.1-27.42,22.1-27.42l-91,2.16"/><path class="cls-3" d="M671.09,320.24v22.53a161.07,161.07,0,0,1-322.14,0V320.24"/><path class="cls-3" d="M349,284.41V261.75a161.07,161.07,0,0,1,322.14,0v22.66"/><path class="cls-3" d="M357.69,284.41V261.75a152.33,152.33,0,0,1,304.65,0v22.66"/><path class="cls-3" d="M662.34,320.24v22.53a152.33,152.33,0,1,1-304.65,0V320.24"/></svg>