<svg id="Слой_1" data-name="Слой 1" xmlns="http://www.w3.org/2000/svg" viewBox="0 0 550 550"><defs><style>.cls-1{fill:#0a1123;}</style></defs><title>символы</title><path class="cls-1" d="M476.4,89.05c-20.7-13.8-49.14-10.34-65.11,7.76-15.09,14.23-29.75,29.32-44,44.41C350.07,159.33,332,178.31,313,194.67c-24.57-7.32-52.17-7.32-75.45,0-19.4-16.38-37.08-35.35-54.75-53.45-14.23-14.65-28.46-30.18-43.55-44-15.93-18.12-44.82-21.57-65.51-8.2a2.79,2.79,0,0,0-.86,3.87,3.45,3.45,0,0,0,3.87,1.72c19.84-6.9,39.66-1.3,50,14.23,5.17,6.47,10.78,13.37,15.95,20.26,7.76,9.48,15.53,19.4,23.28,29.32l7.32,9.06c11.22,13.8,23.28,28,36.21,41-46.57,24.15-76.31,73.3-76.31,125.89C133.2,412.82,197,476.2,275,476.2s141.84-63.82,141.84-141.84S387.13,232.6,340.57,208.47c11.64-10.78,21.55-23.27,31.47-35.35,3.88-4.75,8.19-9.92,12.08-14.65,7.76-9.06,15.09-18.54,22.42-28,5.6-6.91,11.21-14.24,17.24-21.56,9.92-15.09,29.74-20.7,49.58-13.79a3.19,3.19,0,0,0,3.88-1.72c.85-1.3,0-3-.86-3.88ZM275.06,449.91c-63.81,0-116-52.18-116-116s30.18-91.4,75-108.23c.86,0,14.65-7.32,41-7.32s41,6.9,42.67,7.76A115.74,115.74,0,0,1,391,333.94c0,47.86-52.18,116-116,116Z"/></svg>