<svg id="Слой_1" data-name="Слой 1" xmlns="http://www.w3.org/2000/svg" viewBox="0 0 1021 920"><defs><style>.cls-1{fill:none;stroke:#0a1123;stroke-linecap:round;stroke-linejoin:round;stroke-width:8px;}</style></defs><title>символы</title><polyline class="cls-1" points="777.25 495.93 1000.59 882.86 29.9 882.86 254.1 495.93"/><polyline class="cls-1" points="293.38 426.42 515.25 42.06 737.11 426.42"/><polyline class="cls-1" points="752.35 495.93 964.32 863.12 63.14 863.12 275.94 495.93"/><polyline class="cls-1" points="315.22 426.42 513.72 82.52 712.24 426.42"/><path class="cls-1" d="M326.57,863.12S215.17,736.24,346,624a2.88,2.88,0,0,1,4.74,2.44c-1.66,18.32-3.38,66,23.75,66.36h1A25.86,25.86,0,0,0,400.94,662c-5.93-30.18-12.08-110.32,56.91-209.15a3.34,3.34,0,0,1,6,2.78c-6,22.58-12.71,58.25,3.31,61,1.23.21,2.46.35,3.67.62,4.09.92,15.21,1.36,19.24-19.55a143.09,143.09,0,0,1,19.48-49.79c9.87-15.48,20.7-36.81,23.94-59.52,6.38-44.64,5.53-71.43,5.1-73.56s55,78.38,56.68,133.37c0,0,6.24,13-13,64.06-12.05,31.88-10.14,57.79-7,72.74,2.3,11,6.92,19.44,17.39,23.57,8.65,3.4,24-.56,28.38-17.14,8.7-32.57,2.62-33.82,4.89-72.37,1.93-32.77-.59,10.65,13.47,37.88a98.65,98.65,0,0,0,9.46,15.34c6.31,8.39,26.47,39.41,4.84,100.31a87.64,87.64,0,0,0-4.69,38.82c.74,6.71,2.48,12.29,12,16.72,14.37,6.68,27.17,2.13,31.44-14.52,3.87-15,3-29.56,2.6-38.86a1.8,1.8,0,0,1,3.32-1c14.9,23.42,65.62,116.35-14.36,189.46"/><path class="cls-1" d="M361.15,820.52a23.37,23.37,0,0,0,16.39,4.58c7-.84,13.76-6.8,13.65-20.66-.21-26.55-32.22-10.88-48.12-56.57a1.62,1.62,0,0,0-3.11.21C337.1,762.38,332.81,800,361.15,820.52Z"/><path class="cls-1" d="M419.13,747.17a2.2,2.2,0,0,0-4.15,1.1c1.08,25.16,13.1,91.74,110,93.12C624.71,842.8,629.89,739.48,628.85,705c-.11-3.77-5-5.5-7.23-2.45-18.07,24.82-31,23.69-32.29-6.21-1.22-29.24-5.94-44.88-15.28-55.51-8.18-9.32-15.23-17.27-23.67-27.29-10.93-13-20.18-42.56-25.08-111.11a2.5,2.5,0,0,0-4.52-1.3C494,538.2,472.82,571.69,482.66,619c5.51,26.47,8,35.47,35.22,60.48,22.56,20.72,21,38.09,13.41,43.21-8.44,5.69-15.49,4.62-30.44-9.13-18.42-16.94-32.23-48-39.58-69.56a228.44,228.44,0,0,1-7.69-31.53,2.3,2.3,0,0,0-4.48-.2c-4.46,15.25-12.71,43.86-14.19,66.38-1.65,25.37,2.22,38.11,29.33,70.16,24.94,29.48-4.69,41-19.47,29.22C429.33,765.81,424,756.7,419.13,747.17Z"/><line class="cls-1" x1="303.54" y1="202.3" x2="725.43" y2="202.3"/><line class="cls-1" x1="303.64" y1="219.6" x2="725.53" y2="219.6"/></svg>