<svg id="Слой_1" data-name="Слой 1" xmlns="http://www.w3.org/2000/svg" viewBox="0 0 550 550"><defs><style>.cls-1{fill:#f3c74a;}</style></defs><title>символы</title><path class="cls-1" d="M477,72.13A13.81,13.81,0,0,0,467,68.19c-64.8,0-148.86,2.19-224.61,12.69a1.32,1.32,0,1,0,0,2.64c51.67,7,112.52,10.94,190.45,12.26L262,266.53C226.57,232,196.82,208.3,166.59,189h-1.74a1.3,1.3,0,0,0,0,1.75c19.26,30.2,43.34,60,77.49,95.45C170.55,358.92,136.82,395.25,68.53,478a1.91,1.91,0,0,0,0,2.19l.87.44h.87c83.19-68.73,119.09-102,191.77-173.81,35.47,34.58,65.23,58.23,95.45,77.49h1.75a1.31,1.31,0,0,0,0-1.74c-19.26-30.21-43.34-60-77.49-95.45L453.39,115.91c.87,46.42,2.63,88.89,6.12,129.61.44,4.82.87,10.07,1.32,15.77,1.31,15.32,2.63,32,4.82,45.52a1.4,1.4,0,0,0,1.32,1.32,1.16,1.16,0,0,0,1.31-1.32c5.25-35.9,7.89-78.36,10.08-115.57C480.1,158,481,122.06,481,82.23a14,14,0,0,0-3.93-10.08Z"/></svg>