<svg id="Слой_1" data-name="Слой 1" xmlns="http://www.w3.org/2000/svg" viewBox="0 0 550 550"><defs><style>.cls-1{fill:#f3c74a;}</style></defs><title>символы</title><path class="cls-1" d="M441.07,410.41c41.91-24.31,46-79.14,46-97.25,0-29.48-2.59-77.06-24.31-92.58-8.79-6.2-18.63-8.79-28.45-7.23-7.75,1-15,5.17-21.21,10.87v-.52c0-27.93-.53-59.49-18.63-85.88-14.49-21.21-47.08-27.92-69.3-14-18.11,12.41-30.51,33.62-38.8,65.69-2.58-10.87-6.2-20.69-9.82-31-11.37-26.89-33.09-44-56.89-44h-1c-23.81,0-44,17.08-54.32,45-5.69,14.49-8.78,30-11.37,47.58-4.14-28.44-12.93-50.69-26.89-65.68-15-16-31.56-19.14-39.83-19.66-12.93-.53-27.92,1.55-47.58,20.69-3.62,3.11-13.46,16.55-11.9,18.63s14-9.82,17.58-12.93c15.51-12.93,31-17.58,45-14,20.17,5.18,36.74,28.45,45.53,63.1,6.2,24.84,8.28,50.17,10.34,79.65,1,10.35,2.59,105.51,9.32,105.51s9.81-97.75,10.34-108.1c2.06-36.73,9.82-102.42,34.65-129.31,10.87-10.87,30-10.87,41.91,0,20.69,20.17,23.8,36.73,32.06,80.7,4.15,21.72,5.18,49.67,6.21,78.12,1.55,38.79,2.58,53.28,6.72,53.28s5.18-13.46,6.73-51.72c1-27.42,2.59-57.43,6.73-81.21,9.82-51.72,31.56-86.37,53.79-86.37,39.31,0,39.31,61,39.31,105.51v25.86c-.52,44.49-3.61,88.46,24.84,135-25.34,20.17-74.48,25.34-75,29s40.85,5.17,83.28-16c25.87,26.39,94.14,21.72,94.14,18.11s-54.84-2.06-78.12-26.39Zm-9.84-14C415.72,370.06,410,353,411.57,308s10.87-73.45,27.93-73.45,26.39,24.31,26.39,73-16.55,77.58-35.18,89Z"/></svg>