<svg id="Слой_1" data-name="Слой 1" xmlns="http://www.w3.org/2000/svg" viewBox="0 0 880 880"><defs><style>.cls-1{fill:#f3c74a;}.cls-2{fill:none;stroke:#f3c74a;stroke-miterlimit:10;stroke-width:6.63px;}</style></defs><title>символы</title><path class="cls-1" d="M638.79,445.7c-19-21.86-51.3-30.4-78.85-20.43-12.82,4.26-24.69,12.82-35.62,24.23a127.11,127.11,0,0,0-1-12.82c0-7.61-.48-14.73-.94-22.32-.95-30.88-1.9-62.7-9.5-93.12-8.55-35.14-24.23-58.43-45.6-68.88a68.75,68.75,0,0,0-32.77-6.64c-38.94,1.43-60.31,38.48-69.35,60.81-11.39,26.61-17.57,54.14-21.37,75.06a6,6,0,0,1-.48,2.85c-4.27-38.94-15.68-70.77-33.25-95.49-12.82-16.62-27.55-26.12-43.23-27.07-18.51-.95-38,8.55-57,28l1.43,1.89c24.69-21.86,47.49-29,66.49-20.43,20.43,9,33.25,33.25,39.89,52.26,8.55,22.8,13.3,50.36,13.76,76,0,25.65,0,52.25-.94,77.9,0,19-.95,38.48-.95,57.49,0,4.75,3.32,8.07,8.07,8.55a7.89,7.89,0,0,0,6.18-2.38,7.46,7.46,0,0,0,2.86-5.69c3.32-60.81,8.07-124.94,24.69-185.75,10.45-35.14,28.5-81.7,65.55-81.7,7.6,0,14.73,1.43,20.42,4.75,37.05,19.95,40.37,86,42.27,125.88v2.38a90.26,90.26,0,0,0,.48,11.39c.48,21.38.94,38.95,4.26,60.81-8.55,19.49-16.62,40.38-20.88,54.63l-1,3.8c-2.38,7.61-4.75,15.68-8.07,22.81-14.73,38-40.85,59.86-80.26,66.5a248.49,248.49,0,0,1-37.51,3.81v2.37H369.5c9,0,17.57,0,25.64-1.43,27.55-2.85,48.92-12.82,65.55-29.93,14.24-14.73,25.64-35.14,35.13-64.13,4.75-12.35,9-22.8,13.77-32.3,3.8,14.25,8.55,26.61,15.19,38,11.39,21.86,31.82,34.68,56.05,34.2,28,0,54.62-17.11,67.44-42.75,12.82-27.08,9-60.81-10-82.19ZM578.48,549.26c-14.25-.48-27.55-9.5-34.68-23.75-2.86-5.7-5.69-11.88-8.07-18.06-4.27-10.93-7.12-22.8-9-37.05q17.09-22.11,38.47-29.93c21.38-7.13,45.6,0,59.37,16.62,13.77,16.15,16.14,40.86,6.18,60.81-9.5,19-31.82,32.31-52.73,30.88Z"/><path class="cls-2" d="M820.92,482.45C802.77,675.8,640.05,827.1,442,827.1S81.23,675.8,63.09,482.45"/><path class="cls-2" d="M63.09,410.38C81.23,217.05,244,65.74,442,65.74S802.77,217.05,820.92,410.38"/><path class="cls-2" d="M42.19,482.61C60.49,687.39,232.51,847.91,442,847.91s381.6-160.6,399.83-365.46"/><path class="cls-2" d="M42.18,410.38C60.4,205.54,232.45,44.92,442,44.92S823.6,205.54,841.83,410.38"/><path class="cls-2" d="M820.91,481.53C802.77,674.88,640,826.18,442,826.18S81.23,674.88,63.08,481.53"/><path class="cls-2" d="M63.08,409.46C81.23,216.13,244,64.82,442,64.82S802.77,216.13,820.91,409.46"/><path class="cls-2" d="M42.19,481.69C60.49,686.47,232.5,847,442,847S823.6,686.39,841.82,481.53"/><path class="cls-2" d="M42.17,409.46C60.4,204.62,232.44,44,442,44S823.6,204.62,841.82,409.46"/></svg>