<svg id="Слой_1" data-name="Слой 1" xmlns="http://www.w3.org/2000/svg" viewBox="0 0 793 1016"><defs><style>.cls-1{fill:#fff;}</style></defs><title>символы</title><path class="cls-1" d="M118.78,457.81a12.78,12.78,0,0,0,2.84,5.84,11,11,0,0,0,12.28,3.41,3.66,3.66,0,1,0-2.4-6.91,3.91,3.91,0,0,1-4.33-1.27,5.3,5.3,0,0,1-1.21-2.44,3.45,3.45,0,0,1,.2-2.15,4.33,4.33,0,0,1,3.09-2,10.86,10.86,0,0,0,3.75-.34l17.89-.27a3.66,3.66,0,0,0-.08-7.31l-17.3.26a3.46,3.46,0,0,0-1.66,0,21.64,21.64,0,0,0-2.5.2,4.27,4.27,0,0,1-2.15-1.38A5.4,5.4,0,0,1,126,441a3.38,3.38,0,0,1,.21-2.15c.53-1.09,1.92-2,4.47-2.27a10.1,10.1,0,0,0,4-.13l16.28-.23a3.66,3.66,0,0,0-.08-7.31l-16.24.24a3.37,3.37,0,0,0-.84,0l-1.61,0-1,0a5.89,5.89,0,0,1-2.38-1.66,4.13,4.13,0,0,1-1-1.75,1,1,0,0,1,0-.71c.48-.8,2.1-1.41,5.48-1.46l18.68-.28a3.43,3.43,0,0,0,1.21-.21,13.06,13.06,0,0,0,6.24-4.34,8.73,8.73,0,0,0,1.66-6.75,12.66,12.66,0,0,0-3.16-6.25c-2.77-3.15-7.42-6.13-13.71-8.23a3.66,3.66,0,1,0-2.3,7c5,1.66,8.55,3.86,10.51,6.11a5.5,5.5,0,0,1,1.42,2.56,1.67,1.67,0,0,1-.3,1.27,5.46,5.46,0,0,1-2.33,1.6l-18,.27c-6.38.09-10,2.2-11.7,5a8.08,8.08,0,0,0-.88,6,11.32,11.32,0,0,0,2.16,4.42,10.2,10.2,0,0,0-3.23,3.83,10.61,10.61,0,0,0-.8,6.71,12.68,12.68,0,0,0,2.84,5.84v0a10.08,10.08,0,0,0-2.07,2.85A10.61,10.61,0,0,0,118.78,457.81Z"/><path class="cls-1" d="M186.28,278.67c-2-2.8-3.4-6.92-3.59-12.8a3.86,3.86,0,0,0-.51-1.78l-.09-.14a3.85,3.85,0,0,0-1.2-1.21l-.15-.09a3.86,3.86,0,0,0-3.81,0l-.15.09a3.88,3.88,0,0,0-1.21,1.21l-.08.14a3.84,3.84,0,0,0-.49,1.5l-.64,5.83a18.89,18.89,0,0,1-3,7.26,12.31,12.31,0,0,1-8.41,5.26,3.85,3.85,0,1,0,1,7.64h0a20.07,20.07,0,0,0,8.52-3.3L170.1,310l-10.28,6.55a3.85,3.85,0,1,0,4.14,6.5l5-3.22-2,17.93a3.86,3.86,0,1,0,7.68.81l2.65-24.08L187.65,308a3.85,3.85,0,0,0-4.14-6.5l-5,3.22,2.26-20.56a20,20,0,0,0,13,7.45,3.85,3.85,0,1,0,1-7.64A12.31,12.31,0,0,1,186.28,278.67Z"/><path class="cls-1" d="M150.26,535.71l5.4,8.9a15.79,15.79,0,0,0-3.66,4.18,14.14,14.14,0,0,0,18.16,20.12c.41-.2.81-.42,1.21-.65l5.73,8.21a3.3,3.3,0,1,0,5.41-3.78l-7.7-11a4.12,4.12,0,0,0-.33-.4,3.31,3.31,0,0,0-4.67-.09,9.34,9.34,0,0,1-2.49,1.77,7.11,7.11,0,0,1-2.6.7,7.5,7.5,0,0,1-8.13-6.86,7.69,7.69,0,0,1,1.07-4.6,9.86,9.86,0,0,1,3.89-3.58,1.82,1.82,0,0,0,.31-.16,3.31,3.31,0,0,0,1.12-4.53l-7-11.6a3.3,3.3,0,1,0-5.64,3.41Z"/><path class="cls-1" d="M247.81,656.19a11.1,11.1,0,0,0,3,2.86,17.37,17.37,0,0,0,7.62,2.46,8.87,8.87,0,0,0,.76,1.34,10.78,10.78,0,0,0,3,2.85,17.42,17.42,0,0,0,7.55,2.46,7.67,7.67,0,0,0,4.66,4.75c2.56,1,6.09.9,10.71-.75a3.87,3.87,0,0,0-2.6-7.29c-2.76,1-4.46,1.19-5.36.84-.07,0-.13-.12-.18-.28a3.78,3.78,0,0,1-.11-.81,3.09,3.09,0,0,0,0-.43,8.55,8.55,0,0,1,.23-1.6c1-4.29,4.29-9.68,8.34-13.18a3.86,3.86,0,1,0-5-5.84,35.93,35.93,0,0,0-10.7,16.8,8.82,8.82,0,0,1-3.34-1.18,2.77,2.77,0,0,1-.83-.73,1.14,1.14,0,0,1-.1-.19,4.39,4.39,0,0,0,0-.89s0-.08,0-.11l0,0a6.42,6.42,0,0,1,.73-1.48l9.62-14.9a3.86,3.86,0,1,0-6.5-4.18l-9.62,14.9a15.36,15.36,0,0,0-1.15,2.12,8.82,8.82,0,0,1-3.57-1.21,2.77,2.77,0,0,1-.83-.73.9.9,0,0,1-.17-.47,3.88,3.88,0,0,1,.82-2.19l9.61-14.9a3.86,3.86,0,0,0-6.5-4.18L248.32,645a11.18,11.18,0,0,0-2,7A8.66,8.66,0,0,0,247.81,656.19Z"/><path class="cls-1" d="M188.65,569.06a3.29,3.29,0,1,0,5.5-3.63l-26.71-40.59a3.3,3.3,0,0,0-5.51,3.64Z"/><path class="cls-1" d="M657.27,399.82a3.86,3.86,0,0,0-1.78,5.16,16.83,16.83,0,0,1,2,6.83,7,7,0,0,1-1.07,4.13,6.88,6.88,0,0,1-2.8,2.42,8.86,8.86,0,0,1-3.16.88c-.25-.26-.49-.52-.74-.77a19.1,19.1,0,1,0-1.19,28.1,9.19,9.19,0,0,1,2.92.85,6.65,6.65,0,0,1,3.87,6.55,16.91,16.91,0,0,1-1.95,6.83,3.85,3.85,0,1,0,6.92,3.39,24.25,24.25,0,0,0,2.74-10,14.21,14.21,0,0,0-8.19-13.65c-.42-.21-.84-.39-1.27-.56v0a18.92,18.92,0,0,0,1.74-8,19.12,19.12,0,0,0-.86-5.69,17.35,17.35,0,0,0,2.56-1,14.75,14.75,0,0,0,5.89-5.11,14.59,14.59,0,0,0,2.3-8.54,24.37,24.37,0,0,0-2.74-10A3.85,3.85,0,0,0,657.27,399.82ZM644.2,440a11.35,11.35,0,1,1,3.33-8A11.29,11.29,0,0,1,644.2,440Z"/><path class="cls-1" d="M527.93,621c4.1-.34,7.78.25,10.29,2.21a8.77,8.77,0,0,1,2.53,3.2,5.94,5.94,0,0,1,.25,5,5.42,5.42,0,0,1-1.08,1.61,5.54,5.54,0,0,1-1.54,1.11,4.7,4.7,0,0,1-3.92.07,4.75,4.75,0,0,1-1.4-1,4,4,0,0,1-.85-1.26l0-.08a.65.65,0,0,1,0-.48.76.76,0,0,1,.44-.37l.1,0a1.39,1.39,0,0,1,.54-.07,1.57,1.57,0,0,1,.59.13,3.88,3.88,0,0,0,4.2-.65,4,4,0,0,0-1.14-6.67h0a9.81,9.81,0,0,0-3.24-.73,9.56,9.56,0,0,0-3.33.44c-.26.08-.5.17-.72.25a11.43,11.43,0,0,0-4.87,4.11,1,1,0,0,0,0,1.09c1,1.29,1.9,2.55,2.93,3.81,2.41,2.79,4.94,5.49,7.46,8.19a4.16,4.16,0,0,0,4,1.27,12.73,12.73,0,0,0,2.62-.92,13.31,13.31,0,0,0,6.49-6.73A13.62,13.62,0,0,0,547.9,623a16.61,16.61,0,0,0-4.8-6.05c-4.24-3.3-9.84-4.36-15.83-3.87a44.88,44.88,0,0,0-9.68,2,1.39,1.39,0,0,0-.77,2l.72,1.25c.59,1,1.19,2,1.81,2.91a2.08,2.08,0,0,0,2.29.88A34.39,34.39,0,0,1,527.93,621Z"/><path class="cls-1" d="M596.06,227.08A290.88,290.88,0,0,0,108.78,505.16a4,4,0,0,0,.06,1.64,3.85,3.85,0,0,0,.78,1.58h0A290.57,290.57,0,0,0,184.84,638.3c31,31,57.91,51.25,100.36,65.76a3.43,3.43,0,0,0,4.34-2.07c.2-.58.38-1.21.56-1.92a2.78,2.78,0,0,0-1.8-3.34c-40.52-13.77-65.76-32.61-95.67-61.89l44.11-42.51a221.17,221.17,0,0,0,92.61,53l-8.8,29.4c-.55,1.55-.59,2.13-2,7.77-.48,2,5.46,1.57,7.23,1.55,1.05,0,1.25-2.07,2-5,1.74-6.54,1.62-6.38,1.77-6.91L337,647.3c.06-.18.06-.18.11-.36l0-.13a7.39,7.39,0,0,0-5.16-9.1A213.64,213.64,0,0,1,183.93,489.46a3.84,3.84,0,0,0-.1-1.26,4.07,4.07,0,0,0-.59-1.32A213.52,213.52,0,1,1,545.6,578a17.8,17.8,0,0,0-3.42,4.34,9.82,9.82,0,0,0-1.15,3.83,13,13,0,0,0,.28,3.91,10.31,10.31,0,0,0,1.58,3.2l42.71,44.19h0a247.93,247.93,0,0,1-27.33,23,1.82,1.82,0,0,0-.83,1.1c-.44,1.13,1,2.48,1.81,3.36a4.26,4.26,0,0,0,5.63.49,290.76,290.76,0,0,0,31.19-438.26ZM107.63,432.69a283.29,283.29,0,0,1,9-71.15l58.18,16.75a223.18,223.18,0,0,0,.07,108l-59,14.65h0A283.39,283.39,0,0,1,107.63,432.69ZM177,494a221.32,221.32,0,0,0,54.14,92.78l-44.06,42.46a282.45,282.45,0,0,1-69.11-120.58Zm-.09-123.34L118.73,353.9A282.49,282.49,0,0,1,189.6,233.56l42,43.55A221.37,221.37,0,0,0,176.88,370.64Zm60.34-99.09-42-43.54A282.6,282.6,0,0,1,317,159.51l14.63,58.91A220.85,220.85,0,0,0,237.22,271.55Zm152.45-60.83a221.73,221.73,0,0,0-50.37,5.76l-14.63-58.94a284.95,284.95,0,0,1,139.43,2l-16.91,58.73A221.77,221.77,0,0,0,389.67,210.72ZM546.24,275.6a221.18,221.18,0,0,0-91.42-55.11l16.9-58.77A282.67,282.67,0,0,1,590.94,233.2h0L546.6,276Zm5.84,6.06,44.37-42.76a282.41,282.41,0,0,1,67.37,121l-60.21,14.95A221,221,0,0,0,552.08,281.66Zm39.18,350.22-41.87-43.43h0a3.53,3.53,0,0,1,.94-2.89c24-25,41.14-55.37,51.4-89.44l59.89,17.23h0A282.62,282.62,0,0,1,591.26,631.88Zm12.62-143.41a223.13,223.13,0,0,0,1.64-105.89l60.24-15a285,285,0,0,1-2,138.09Z"/><path class="cls-1" d="M550.66,645.17a4.08,4.08,0,0,0-5.37.12,20.19,20.19,0,0,1-2.16,1.68,1.88,1.88,0,0,0-.36,2.76,8.72,8.72,0,0,0,.79.82,18.35,18.35,0,0,0,2.77,2,2.46,2.46,0,0,0,2.79-.18q.84-.64,1.59-1.32A4,4,0,0,0,550.66,645.17Z"/><path class="cls-1" d="M427.05,191.85c-4.91-.3-6.25-3-7.43-5.36-1.7-3.41-3.23-6.49-8.39-7a3.66,3.66,0,0,0-.81,0c-5.25.52-6.8,3.61-8.5,7.05-1.17,2.34-2.49,5-7.24,5.34-4.74-.36-6.06-3-7.23-5.34-1.7-3.41-3.22-6.49-8.38-7a3.74,3.74,0,0,0-.82,0c-5.24.52-6.79,3.61-8.5,7.05-1.18,2.38-2.52,5.06-7.43,5.36a3.57,3.57,0,1,0,.42,7.12h0c9.05-.54,11.37-5.18,13.42-9.29.71-1.44,1.36-2.74,2.46-3.07,1.09.33,1.74,1.64,2.45,3.07,2,4.11,4.37,8.75,13.42,9.29a4.13,4.13,0,0,0,.5,0c9-.57,11.29-5.19,13.34-9.29.71-1.44,1.37-2.74,2.46-3.07,1.09.33,1.74,1.64,2.46,3.07,2,4.11,4.36,8.75,13.41,9.29a3.57,3.57,0,1,0,.42-7.12Z"/><path class="cls-1" d="M427.64,170.68c-4.91-.3-6.25-3-7.43-5.36-1.7-3.41-3.23-6.48-8.39-7a5.48,5.48,0,0,0-.81,0c-5.25.52-6.8,3.62-8.5,7-1.17,2.34-2.49,5-7.24,5.34-4.74-.35-6.06-3-7.23-5.34-1.7-3.41-3.22-6.48-8.38-7a5.59,5.59,0,0,0-.82,0c-5.24.52-6.79,3.62-8.5,7-1.18,2.38-2.52,5.07-7.43,5.36a3.57,3.57,0,1,0,.42,7.13h0c9.05-.54,11.37-5.18,13.42-9.29.71-1.44,1.36-2.74,2.46-3.07,1.09.33,1.74,1.64,2.45,3.07,2.05,4.11,4.37,8.75,13.42,9.29h.5c9-.58,11.29-5.2,13.34-9.3.71-1.44,1.37-2.74,2.46-3.07,1.09.33,1.74,1.64,2.46,3.07,2,4.11,4.36,8.75,13.41,9.3a3.57,3.57,0,1,0,.42-7.13Z"/><path class="cls-1" d="M290.86,198a9.28,9.28,0,0,0-8.22-2.55,11.14,11.14,0,0,0-8.32,4.49,15.37,15.37,0,0,0-1.3,2c-.39-.94-.78-1.85-1.17-2.68-2.36-5-5.19-7.48-8-8.17a7.25,7.25,0,0,0-5.7,1,11.16,11.16,0,0,0-3.62,3.91,17.6,17.6,0,0,0-1.46,3.31,3.61,3.61,0,0,0-3.45-1.47,11.86,11.86,0,0,0-2.8.79,10.3,10.3,0,0,0-5.36,5.31,12.43,12.43,0,0,0-.05,10A3.58,3.58,0,1,0,248,211v0a5.7,5.7,0,0,1-.37-1.3,5.3,5.3,0,0,1,.34-2.9,3.62,3.62,0,0,1,.69-1l9.08,15.55a3.58,3.58,0,0,0,6.19-3.61l-4.22-7.22a14.6,14.6,0,0,1,1-11,4,4,0,0,1,1.23-1.45.68.68,0,0,1,.25-.09c.82.2,1.9,1.47,3.22,4.27.54,1.13,1,2.27,1.49,3.44a51.27,51.27,0,0,0,3.61,7.61c.09,1.52.26,3.13.45,4.81.66,6,1.44,13.15-2.26,15.47a3.57,3.57,0,0,0,3.81,6c6.91-4.36,6.54-12.83,5.76-20.41a16.11,16.11,0,0,0,8.16-.92,4.17,4.17,0,0,0,.68-.31c5.27-3.13,7.41-7,7.67-10.68a11.14,11.14,0,0,0-1-5.35A12.59,12.59,0,0,0,290.86,198Zm-3.24,8.88c-.1,1.47-1.18,3.16-3.86,4.83a5.81,5.81,0,0,1-6.11-1.27,3.14,3.14,0,0,1,.08-.46,14.78,14.78,0,0,1,2.25-5.68,4.42,4.42,0,0,1,3.46-1.75,3.19,3.19,0,0,0,.95-.18c.31-.1,1,.28,1.66.92a5.18,5.18,0,0,1,1.22,1.66A3.85,3.85,0,0,1,287.62,206.83Z"/><path class="cls-1" d="M631.45,552.6a26.92,26.92,0,0,0-3.42.8,30.41,30.41,0,0,0-9.15,4.56l-18.8-11.23a31,31,0,0,0,.1-7.85,38.74,38.74,0,0,0-.8-4.61,3.86,3.86,0,0,0-7.52,1.76h0a29.27,29.27,0,0,1,.64,3.67c.72,6.5-1.12,11.52-4.09,15.13a20.68,20.68,0,0,1-11.06,6.83h0a15.27,15.27,0,0,1-2.09.38,3.86,3.86,0,1,0,.82,7.68,25.55,25.55,0,0,0,3.05-.52,28.56,28.56,0,0,0,8.94-3.86l19.79,11.82a28,28,0,0,0,.34,7,31.65,31.65,0,0,0,.88,3.75,3.87,3.87,0,1,0,7.41-2.21,24.68,24.68,0,0,1-.67-2.84,18.19,18.19,0,0,1,3.14-14.15,21.77,21.77,0,0,1,11.3-7.84,22.62,22.62,0,0,1,2.5-.59,3.86,3.86,0,1,0-1.29-7.62Zm-18.73,11.51a25.57,25.57,0,0,0-3,5.2L594.15,560l.21-.25a26.26,26.26,0,0,0,3.44-5.38h0l15.35,9.18Z"/><path class="cls-1" d="M545.79,203.09a34.26,34.26,0,0,0-11.46,1.16,24.76,24.76,0,0,0-12.76,8.33l-4.3-2a24.94,24.94,0,0,0,.47-6.75A32.08,32.08,0,0,0,515,193a3.76,3.76,0,0,0-4.87-1.89,3.58,3.58,0,0,0-1.94,4.75,24.87,24.87,0,0,1,2.21,8.48,19.44,19.44,0,0,1-.07,3.16l-9.7-4.39a3.74,3.74,0,0,0-4.92,1.76,3.57,3.57,0,0,0,1.81,4.79h0l10.45,4.73c-.07.11-.13.21-.21.32a18.55,18.55,0,0,1-8.41,6.7,26.55,26.55,0,0,1-8.59,1.93,3.61,3.61,0,1,0,.43,7.2,33.67,33.67,0,0,0,11.09-2.5,25.81,25.81,0,0,0,11.69-9.41c.26-.38.51-.78.74-1.19l3.32,1.51a26.06,26.06,0,0,0-1.64,7.79,31.53,31.53,0,0,0,1.37,11,3.73,3.73,0,0,0,4.59,2.44,3.6,3.6,0,0,0,2.51-4.47,24.39,24.39,0,0,1-1.09-8.55,19.2,19.2,0,0,1,1-5.13l6.52,2.95a3.74,3.74,0,0,0,4.91-1.76,3.56,3.56,0,0,0-1.81-4.79l-5.8-2.63a17.78,17.78,0,0,1,7.88-4.57,26.87,26.87,0,0,1,9-.88,3.61,3.61,0,1,0,.4-7.2Z"/><path class="cls-1" d="M621.89,308.32c3.34,1.19,5.11,3.56,5.46,5.88a5.26,5.26,0,0,1-.26,2.61,3.62,3.62,0,0,1-1.36,1.69c-1.75,1.16-4.88,1.14-9.46-1.19a3.87,3.87,0,1,0-3.51,6.89c7.47,3.81,13.35,3.31,17.23.74a11.33,11.33,0,0,0,4.26-5.31,12.76,12.76,0,0,0,.71-6.57c-.73-4.92-4.22-9.87-10.72-12.1a4.77,4.77,0,0,0-.7-.2,27.89,27.89,0,0,0-6.82-.47,28.51,28.51,0,0,0,3.62-7.09,3.05,3.05,0,0,0,.17-.66c1.34-6.76-1.2-12.26-5.1-15.36a12.71,12.71,0,0,0-6.07-2.67,11.25,11.25,0,0,0-6.71,1c-4.16,2.07-7.54,6.91-8,15.27a3.86,3.86,0,0,0,7.71.43c.27-5.14,1.82-7.86,3.7-8.8a3.7,3.7,0,0,1,2.16-.31,5.15,5.15,0,0,1,2.37,1.09c1.83,1.46,3,4.18,2.37,7.68-3.27,9.09-12.7,14.17-21.18,18.75-1.36.74-2.7,1.46-4.18,2.29a4.26,4.26,0,1,0,3.35,7.82h0c.94-.56,2.49-1.52,4.07-2.49C603.23,312.23,612.35,306.61,621.89,308.32Z"/><path class="cls-1" d="M269.61,328l-.67-4.89a.43.43,0,0,0-.69-.27c-2.29,1.94-10.34,9.65-6.22,19.33a.42.42,0,0,0,.78,0,59.16,59.16,0,0,1,4.87-9.44C270.28,329,269.61,328,269.61,328Z"/><path class="cls-1" d="M363,383.83s7.49,34.17,30.3,39.61"/><path class="cls-1" d="M329.22,279.1c-4.51.15-8.81.15-13.07.24s-8.44.24-12.54.68a65.59,65.59,0,0,0-12,2.25,47.8,47.8,0,0,0-5.79,2.17,53.13,53.13,0,0,0-5.7,3.14,19.74,19.74,0,0,1,4-5.56,26.82,26.82,0,0,1,5.64-4.09A35.55,35.55,0,0,1,303,274.05a48,48,0,0,1,13.55.6A40.35,40.35,0,0,1,329.22,279.1Z"/><path class="cls-1" d="M404.57,368.91c2,.84,4.12,2.84,6.15,5.15a31.14,31.14,0,0,0,17.14,10.14c17.29,3.52,40.23,3.71,46.52,3.6a.28.28,0,0,1,.09.54c-23.76,8.66-40.91,7.86-43.94,7.64a.27.27,0,0,0-.26.4c8.52,16.87,35.06,3.13,36,2.63l.06,0c42-12.05,52.14,24,53.63,30.65a.27.27,0,0,1-.46.24c-10-10.83-35.08-7.9-35.08-7.9l-21.58,2.94a.27.27,0,0,0-.09.51,109.82,109.82,0,0,0,19.89,7.27c9.42,2.36,25.13,1.9,30,1.69a.27.27,0,0,1,.12.52c-24.36,10.35-54.83-4.26-55.34-4.5h0l-15-8.62a.28.28,0,0,0-.4.32c1.51,4.56,13.39,13.28,29.22,21.07,16.59,8.17,41.36.77,47-2a46.74,46.74,0,0,0,8.68-5.74c.15-.13.48.18.53.37a37.49,37.49,0,0,1,2,16.85c-1,11.24-22.49,19.41-31.68,25-8.18,5-17,16.46-18.8,18.93a.27.27,0,0,1-.48-.09,70.8,70.8,0,0,0-19-31.69c-4.51-4.42-11.69-7-18-11.16-30-20.07-29.44-55.51-30-59.38l-4.19-15.4Z"/><path class="cls-1" d="M455.34,469.43c-.82-.83-2.07.17-3,2-2.17,4.34-7.17,12.3-9.34,13.83s-3.13,2.3-3.26-.32,2.43-7,1.92-9.12-2.88-7.79-3.45-7.87c-.39-.06-1.72.27-.38,3.78,1.22,3.19-4.84,6.7-6,7.31a1.69,1.69,0,0,1-.37.15c-1.18.3-7.41,1.74-8-1.84s1.65-7.27,2-7.79c0-.05.06-.09.09-.15.48-1,4.65-9.73-4.45-11.66-9.64-2-27.39-4.88-29.47-19-.21-1.45-.41-4.81-2.38-5.84s-17.71-7.61-22.3-17.14-8.21-29.45-20.36-29.79S318.76,365,316.83,362.07c-1.71-2.62-5.68-5.76-13.6-8.66s-25.58-10.52-29.1-16.53a1.7,1.7,0,0,1-.18-.44c-.16-.63-.76-2.23-2.25.21a93.27,93.27,0,0,0-12.76,41.23c-1.66,22.85-4.35,14.94,0,44.43,0,0,1.91,5.22-6.9,22.58s-8.3,22.61-12.38,31.93c-3.47,7.92-8.61,18.05.44,24.83a17.85,17.85,0,0,0,9.78,3.41c2.47.14,5.38.38,5.74.74.63.63,2,5.23,1.27,8.42s-2.17,6.21,0,8.51c1.42,1.53,5.69,3.84,8.65,5,1.7.68,8.43,2.18,8.43,2.18a13.2,13.2,0,0,0,2.81.09c1-.39,1.2-.44,1.08-1.18-.07-.52-2.42-3.05-3.57-4.29a.17.17,0,0,1,.21-.27,67.3,67.3,0,0,1,6.71,4.55c3.53,2.47,12.58,4.95,12.89,5,1.05.21-.29.66-.29.66l-1.6.23c-4,.32-15.83-3.74-19.34-3.33a6.92,6.92,0,0,0-3.32,1.34A14.3,14.3,0,0,0,267,535a1.54,1.54,0,0,1-.65.64,1.79,1.79,0,0,1-.32.13,5.54,5.54,0,0,0-2.59,8.09,8.41,8.41,0,0,0,8.81,4.24,29.21,29.21,0,0,0,9.57-3.42.28.28,0,0,1,.37.41c-3.44,5.3-6.83,5.35-8.41,5.31l.51.59c.34.37,0,1.22-.07,1.72-.24,2.17-1.23,9.63-2.18,14.54-1.11,5.7-5.62,19.4,17.62,23,17.07,2.62,53.48-10.46,71.59-17.59a78.57,78.57,0,0,0,30.92-21.9c9.32-10.87,19.76-27.49,26.39-51.73a1.63,1.63,0,0,1,.49-.8,12.25,12.25,0,0,1,16.07-.75,1.68,1.68,0,0,0,1.79.07c2.87-1.68,11.37-7.69,18.82-23.5C456.68,471.88,456.92,471,455.34,469.43ZM257.61,515c-.31-.19,1.72-2.24,3.65-1.88s4.16,1.56,6.3,4.82C267.24,518.3,260.86,512.81,257.61,515Zm17.15-16c-3.51,3.91-15.25,3.77-17.65,3.7a60.81,60.81,0,0,1-6.35-.61c-3.17-.43-4.36-1.95-4.62-3.18s.25-3.55,5.08-4.3c6-.92,10.49,2.16,12.37,3.23.42.24,2.33.63,5.52.14,2.07-.31,4.83-2.39,5.37-4.33,0,0,0,0,0,0,.68-1.83.46-4-1.45-6.47a2.48,2.48,0,0,0-.7-.63,10,10,0,0,0-4.34-1.26c-.92-.14-1-.31-.63-.26l2.62.28c.2,0,.41.05.61.09l1,.2C279.32,487.67,277.3,496.16,274.76,499Zm18.32-49.53,17-6.48C304,451.57,293.08,449.47,293.08,449.47Zm45.06-18c-12.52,3.95-24.77,2.1-25.89,2.12h-.14l-9-1.31c-.44,0-.37.22-.36.46.18,1.39.62,2.92.06,4.35-.63,1.63-2.36,2.82-5.58,1.38-4.27-1.92-2.17,2.55-1.59,3.95s-2.36,4.48-4.27,2.5a21.4,21.4,0,0,1-3.64-7.54c-.62-2.29.22-7.27.22-7.27s.1-.32-1.33-.24c-1.16.06-6,.87-7.41.71a4.2,4.2,0,0,1-2.75-1.27,3.57,3.57,0,0,1-1-2.38,13.76,13.76,0,0,0,1.67.1,14.07,14.07,0,0,0,4.07-.6c3.78-1.14,7.2-6.83,8.67-8.65a2.16,2.16,0,0,1,1.06-.69c6.1-1.74,13.48-.38,16.56.75,3.75,1.37,13.34,6.38,16.92,7.72,3,1.14,9.55,4.16,15.26,4,1.31,0,3.54-.19,2.92.12A24.74,24.74,0,0,1,338.14,431.5ZM349,416.68c-2.86-1.63-5.9-3.21-9.07-4.67l-.28-.15a37.14,37.14,0,0,0-4.43-1.94l-1.25-.46a81.18,81.18,0,0,0-28.63-6,44.35,44.35,0,0,0-23.57,6l-3.64,2.22a2.55,2.55,0,0,1-.43.23l-2.18,1c-3.27,1.47-4.35-.29-4.66-2.19a7.88,7.88,0,0,1,1.49-5.83c2.2-3,7.29-7.69,18.14-8.57,17.24-1.41,21.23.26,37.06,6.38C345.52,409.64,361.34,423.74,349,416.68Z"/><path class="cls-1" d="M314.1,424.21c-2.65-1.08-3.17-1.91-10.11-3.82a36,36,0,0,0-6.44-1.18c-.72-.06-2.85,0-3.35,0a3.51,3.51,0,0,0-2.23,1.11c-1.29,1.26-3.4,3.47-2.77,3.79.89.44,1.08,0,7.85,1.46a85.86,85.86,0,0,0,12.36,1.68c2.86.19,5.7.26,8.46.24,1.22,0,1.55-.25,1.26-.63A31.69,31.69,0,0,0,314.1,424.21Z"/><path class="cls-1" d="M302.73,437.4a9.08,9.08,0,0,0,.37-3.79,1.05,1.05,0,0,1,1.19-1.13l8,1.18"/><ellipse class="cls-1" cx="425.95" cy="505.39" rx="6.06" ry="5.39"/><path class="cls-1" d="M423.59,560.31h0a6.19,6.19,0,0,1-6.19-6.19l1.94-30.4c0-.41.07-.83.13-1.23.68-4.22,1.22-6.6,4.89-6.6h0c3.2,0,3.72,2.32,4.53,5.37a21.9,21.9,0,0,1,.69,4.25l1.73,27.08A7.71,7.71,0,0,1,423.59,560.31Z"/><path class="cls-1" d="M341.56,601.76c-4.47,1.15-1.87,5.22-1.63,6.46,2.12,11,10,51.48,14.19,65.89,4.77,16.34,8.17,32.34,3.41,45.95s-2.22-24-2.22-24,.85-8.17-2.89-.34-16.65,37.36-10.82,47.62c8.06,14.17,35.87,11.35,58.81-2.73,29.41-18,47.83-29.27,61.27-42.55s19.85-17.7,28.53-25.19,22.72-20.72,23.4-23.27-4.76-6.75-9.86-9.47c-4.39-2.34-12.95-20.78-16.74-27.32-.64-1.1-1.23-2.22-1.77-3.38-5-10.77-32.06-69.34-33.76-79.35-1.3-7.67-1.94-13.06-2.21-15.62a2.08,2.08,0,0,0-2.82-1.74l-.07,0c-2.56,1-4.94,4.08-4.94,4.08s-.68.17-.51,5.11.3,25.53-2.57,32.51-6.71,15.66-12.62,15.66-10.51-.34-13.58-5.79a39.85,39.85,0,0,1-3.31-9.78,2.1,2.1,0,0,0-4-.38,14.77,14.77,0,0,1-1.07,2.16c-.68.85-12,16.34-20.13,22.46s-14.24,12.74-27.83,18.64A90,90,0,0,1,341.56,601.76Z"/><path class="cls-1" d="M433.61,320.25c1.05.84,1.16.93,4,1.67a17.08,17.08,0,0,1,1.71.56c1.31.47,2.5.76,3.6,1.06a.61.61,0,0,0,.77-.63c-.05-.79,0,.08-.15-1.5-1-8.61-3.14-17.06-7.45-24.67a41.4,41.4,0,0,0-25.84-19.53,64.45,64.45,0,0,0-14.85-1.58c-1.15,0-9.87.17-8.29,2,4.18,6.31,8.56,12.47,12.39,19,4.22,6.94,8.61,14,14.8,19.36h0a19.26,19.26,0,0,0,6.94,3.68c1.66.57,2.35.73,4,1.2a28.52,28.52,0,0,0,5,.71c1.32.13,2.67.24,2.42,0-4.61-5-7.62-9.75-11.47-15.3a154.07,154.07,0,0,0-15.85-18.92c-2.35-2.38-4.52-5-7.12-7.11,3.56,1.27,6.53,4,9.06,6.64s5.16,5.47,7.56,8.37c6.9,7.88,12,17.13,18.8,25Z"/><path class="cls-1" d="M386,314.05a61.42,61.42,0,0,0-.31-13.69c-3-16.59-11.35-24.53-25.77-32a148,148,0,0,0-22.3-9.57q-2.72-.9-5.44-1.77c-2-.6-4-1.5-6.18-1.66,1,1.71,2.42,3.17,3.53,4.84,3.27,4.64,6.09,9.51,9,14.38a143.48,143.48,0,0,0,14,19.85l0,.05a20.77,20.77,0,0,0,9.07,6.31c.32.11,1.61.86,1.93,1,5.47,2,10.22,5.91,14.73,7.1l.12.08c-1.41-2.58-2.82-5.16-4.33-7.69-3.58-6-7.53-12-12.61-16.89A69.76,69.76,0,0,0,349.06,275a62,62,0,0,0-7.5-4.29,21.66,21.66,0,0,1,9.55,3.66,68.26,68.26,0,0,1,8.31,6c8.43,6.92,14.09,16.44,19.32,25.86.78,1.43,1.57,2.87,2.28,4.35q2.16,1.41,4.26,2.91l.72.53Z"/><path class="cls-1" d="M378.88,334.9c-5.74,6-10,13.87-9.23,21.44,3-1.83,7.45-4,9.39-5.15,2.27-1.26,3.75-2.3,5.73-3.28,1.39-.69,2.79-1.38,4.11-2.19A36.2,36.2,0,0,0,400,336a13.4,13.4,0,0,0,1.05-1.74c.37-.7,1.82-2.53,1.69-2.75s-.29-.19-.78-.26c-1,0-2.34.4-3.05.44A27,27,0,0,0,383.2,339c-2.37,2.45-3.47,4.6-5.81,7.41a8.23,8.23,0,0,0-1.36,2.38c0-4,4.79-8.94,7.72-11.5,4.05-3.57,11.11-6.57,16.83-6.55,2.76-.08,1.55-.59.58-1a3.72,3.72,0,0,0-.56-.18c-1.07-.3-1.22-.34-2.56-.69-1.05-.08-2.11-.1-3.14-.13-5.87.05-11.88,2-16,6.23l0,0Z"/><path class="cls-1" d="M445.75,340.86c-8.35-.29-17.26-.33-24.7,3.56-4.42,2.4-7.93,6.09-11.27,9.78-.38.45-.73.94-1.06,1.39,1.71-5.63,8.61-11,13.85-13.33,7.25-3.23,12.37-3.51,26.44-2,.94.1.59.06,1.13.1,5.9.42,5.81,1.17,2-1.28-.1-.14-2-1.18-2.08-1.3a12.94,12.94,0,0,0-2.71-1.31l-.91-.28a18.8,18.8,0,0,0-3.56-1c-.49-.1-1-.23-1.48-.37-8.08-2.28-17.22-2-24.72,2.07l0,0h0c-9.27,5.16-11.94,14.44-14,24a1.56,1.56,0,0,0,2.45,1.58,18.93,18.93,0,0,1,4.56-2.6,52,52,0,0,1,9.49-2.07c2.26-.36,4.53-.71,6.74-1.27A53.34,53.34,0,0,0,446,347.65c.79-.61,1.52-1,2.4-1.67s4.39-2.76,5.8-3.86a.36.36,0,0,0-.13-.64,15.35,15.35,0,0,0-3.58-.32Z"/><path class="cls-1" d="M267.66,298.92a1,1,0,0,0-.53.53c.12,3.11,6.14,8.09,8.62,9.89,7.81,5.72,17.49,8.53,27.1,8.91,11.5.29,21.95-5.11,32.21-9.7h0l.71-.38c-1-.18-2-.38-2.94-.53a68,68,0,0,0-12.83-.79c-6.12.17-12.19,1.14-18.31,1.08-8.63-.1-17.41-1.67-25.15-5.53,5,.58,9.76,2.34,14.71,3.22a69.24,69.24,0,0,0,9.19.9c6.18.17,12.31-.76,18.47-1A68.79,68.79,0,0,1,336,306.8l-.07-.16,0-.08h0c-1.4-1.86-3.06-3.55-4.57-5.33a54.77,54.77,0,0,0-10.8-9.36c-6.58-3.93-14.68-4.37-22-2.8h0a120.32,120.32,0,0,0-16.85,5.44,83.21,83.21,0,0,1-8.26,2.88c-1.24.33-2.48.67-3.73.95a9,9,0,0,0-2,.58Z"/><path class="cls-1" d="M465.34,278.18a1,1,0,0,0-.63-.38c-2.95.8-6.37,7.67-7.54,10.44-3.74,8.74-4.28,18.62-2.51,27.89,2.28,11.07,9.76,19.86,16.43,28.65h0c.17.2.34.4.52.59-.05-1-.09-2-.15-2.93A68.07,68.07,0,0,0,469.38,330c-1.53-5.81-3.8-11.4-5.11-17.27-1.81-8.28-2.26-17-.29-25.28.56,4.92-.07,9.86.18,14.78a67.86,67.86,0,0,0,1.19,9c1.2,5.95,3.46,11.61,5.09,17.44A68,68,0,0,1,473,345.33l.14-.1.07-.05h0c1.47-1.77,2.72-3.73,4.09-5.56a54.43,54.43,0,0,0,6.56-12.41c2.29-7.17.91-15-2.23-21.7v0a117.06,117.06,0,0,0-8.94-14.9,84.43,84.43,0,0,1-4.59-7.26c-.59-1.12-1.2-2.23-1.73-3.36a9.45,9.45,0,0,0-1-1.79Z"/><path class="cls-1" d="M499.31,314.46a.93.93,0,0,0-.55-.41c-2.81.47-6.62,6.52-8,9a44.9,44.9,0,0,0-4.91,25.63c1.08,10.47,7.21,19.31,12.57,28.08h0c.14.2.27.4.42.59.05-.91.11-1.83.14-2.72a63,63,0,0,0-.79-11.73c-.87-5.53-2.46-10.93-3.13-16.49-.91-7.83-.52-16,2.08-23.45.06,4.61-1,9.13-1.21,13.71a64.38,64.38,0,0,0,.27,8.45c.57,5.62,2.13,11.08,3.1,16.63a63.39,63.39,0,0,1,.81,15.68l.14-.07.07,0h0c1.53-1.5,2.87-3.2,4.3-4.77a49.93,49.93,0,0,0,7.23-10.89c2.8-6.44,2.25-13.83,0-20.33v0a109.21,109.21,0,0,0-6.91-14.64,79.66,79.66,0,0,1-3.58-7.16c-.44-1.08-.9-2.17-1.29-3.27a8.82,8.82,0,0,0-.76-1.75Z"/><path class="cls-1" d="M540.56,377.06a.51.51,0,0,0,.17-.34c-.57-1.47-4.27-2.86-5.75-3.3a24.71,24.71,0,0,0-14.4.19c-5.55,1.75-9.65,6.05-13.8,9.93h0c-.09.1-.19.19-.28.3.5-.08,1-.15,1.49-.24a34,34,0,0,0,6.26-1.73c2.89-1.08,5.64-2.54,8.57-3.52a29.29,29.29,0,0,1,12.92-1.49c-2.49.54-5,.48-7.55.88a33.31,33.31,0,0,0-4.54,1.08c-3,.93-5.76,2.38-8.66,3.53a34.79,34.79,0,0,1-8.39,2.18l.06.07,0,0h0c1,.66,2.05,1.19,3.06,1.8a27.59,27.59,0,0,0,6.7,2.7,15.53,15.53,0,0,0,11-2.29h0a60,60,0,0,0,7.15-5.36,42.88,42.88,0,0,1,3.47-2.73c.54-.37,1.08-.74,1.63-1.07a4.45,4.45,0,0,0,.86-.61Z"/><path class="cls-1" d="M416.57,364.56a.91.91,0,0,0-.5.46c0,2.85,5.24,7.67,7.42,9.43a44.93,44.93,0,0,0,24.34,9.38c10.5.79,20.29-3.67,29.87-7.4h0c.22-.1.45-.2.66-.31-.89-.21-1.78-.43-2.66-.62A62.84,62.84,0,0,0,464,374.19c-5.6-.11-11.19.49-16.78.16-7.87-.49-15.83-2.32-22.71-6.2,4.54.76,8.81,2.58,13.28,3.61a62.44,62.44,0,0,0,8.36,1.24c5.64.44,11.28-.13,16.92-.1a63.09,63.09,0,0,1,15.58,2l-.06-.15,0-.08h0c-1.2-1.76-2.64-3.38-3.94-5.07a49.6,49.6,0,0,0-9.43-9.05c-5.83-3.89-13.21-4.66-20-3.56h0a109.11,109.11,0,0,0-15.64,4.21,76.39,76.39,0,0,1-7.67,2.24c-1.15.25-2.3.51-3.45.7a8.7,8.7,0,0,0-1.86.44Z"/><path class="cls-1" d="M318.08,324.85a1,1,0,0,0-.46.54c.37,2.79,6.56,6.57,9.08,7.89,8,4.24,17.47,5.64,26.71,4.84,11.06-1.09,20.62-7.18,30.08-12.52h0c.22-.15.44-.28.65-.43-1-.05-1.92-.1-2.86-.13a70.38,70.38,0,0,0-12.37.8c-5.84.88-11.58,2.46-17.46,3.13-8.27.92-16.82.54-24.56-2,4.85-.06,9.56,1,14.37,1.18a71.15,71.15,0,0,0,8.88-.28c5.94-.57,11.74-2.13,17.62-3.1a70.43,70.43,0,0,1,16.52-.83l-.08-.13a.43.43,0,0,0,0-.07h0c-1.51-1.51-3.24-2.84-4.83-4.26a49.83,49.83,0,0,0-11.13-7.17c-6.63-2.76-14.43-2.2-21.36.08h0a122.9,122.9,0,0,0-15.69,6.88c-2.53,1.25-5,2.56-7.68,3.56-1.16.44-2.33.9-3.5,1.29a9.9,9.9,0,0,0-1.87.76Z"/><path class="cls-1" d="M485.79,610.56c23.66-1.49,36.79-22.54,36.79-22.54s24.81-33.61,4.75-63.75-55.13-23.66-65.81-18.66a4.46,4.46,0,0,1-3.7-.28c.2,3.76,1.6,8.2,2.92,11.81,3,2.08,8.85,6.09,21.47,16.8,19,16.12-8.93,50.31-7.28,54.18,3.35,7.07,20.53-8.47,30-24.7s3.46-30.88-2-36.81-18.49-10.3-22.29-11-2.85-1.64-2.85-1.64,12.52,0,19.47,3.38a28.44,28.44,0,0,1,4.84,3,38.66,38.66,0,0,1,12.37,16.74c4.9,12.63.17,23.39-6.46,34.1-8.85,14.3-32,18.07-32,18.07Z"/><path class="cls-1" d="M375.78,357a.4.4,0,0,0-.09.8c9.28,1.76,28.3,7.09,31.72,21.53C412,398.6,413,404.81,413,404.81l-3.35-31.94S399.82,357.9,375.78,357Z"/><path class="cls-1" d="M394.71,411.33a.18.18,0,0,0-.29.2c2.82,4.84,10.44,17,18.57,22.7,10.28,7.15,23,15.83,28.49,19.4s17.76-16.93,17.76-16.93S412.14,431.78,394.71,411.33Z"/><path class="cls-1" d="M273.28,322.55A1.06,1.06,0,0,0,271.8,324a47.34,47.34,0,0,0,28.64,19.72c22.06,5.3,40.64-3.28,64.31,18.68.81.75,2.41-.27,2-1.31-1.83-5.18-12.94-16.05-23.77-19.73-16.51-5.62-18.41-3.48-32.51-5.53C288.37,332.61,287.61,332.21,273.28,322.55Z"/><path class="cls-1" d="M407.78,410.29c-2.44-9.31-12.78-48.23-35.62-43.53l-1.15.18-.22,0c-1.36,0-16.56,2-23.29-3.07-3.66-2.74-4.69-6.46-7.77-8.22a37.7,37.7,0,0,0-16.92-4.86l-4.3-.19a.39.39,0,0,0-.11.76c2.82,1,7.69,3,8.93,5.59,1.79,3.73,11.29,18.6,20.49,18.6s21.23,4.37,25,7.91,2.3,9.39,7.41,15.51c2.91,3.5,5.41,6.43,7,8.29a.4.4,0,0,0,.69-.38c-1.66-6-1.78-6.47-3.28-13.49,0,0-1.89-10.54,3.73-4.05,5.5,6.34,5.62,6.41,18.73,21.29A.41.41,0,0,0,407.78,410.29Z"/><path class="cls-1" d="M401.48,432.79S396.54,442.4,419,448"/><path class="cls-1" d="M485.94,488.06S468.07,522.47,460.49,517c-19.49-14.13-11.67-25.51-11.67-25.51s16.95-22.48,11.9-27.62,1-5.23,1-5.23Z"/><path class="cls-1" d="M427.07,443.32s6.84,18.54,25.3,18.65-2.29,28.4-2.29,28.4l17.4-15.95S443.94,437.55,427.07,443.32Z"/><path class="cls-1" d="M338,307.33a67,67,0,0,1,14.51-1.52,64.93,64.93,0,0,1,14.65,1.61,49.3,49.3,0,0,1,13.92,5.52,37.35,37.35,0,0,1,6.16,4.47l.72.63.65.53,1.27,1.05a22.85,22.85,0,0,0,5.78,3,26.76,26.76,0,0,0,3.2.81,35.57,35.57,0,0,0,6.74.66,138.91,138.91,0,0,0,14.19-.86c4.76-.44,10.08-.78,15.18.19l1.91.35,1.89.47q.94.22,1.86.54l1.85.6a54,54,0,0,1,7,3.17,82.74,82.74,0,0,1,12.35,8.58l2.82,2.39c.93.83,1.81,1.54,2.83,2.54a33.31,33.31,0,0,1,4.9,6.16,130.47,130.47,0,0,1,6.93,13.11A139.63,139.63,0,0,0,486,373.87a38.92,38.92,0,0,0,8.94,10.34,27.84,27.84,0,0,0,5.83,3.5l3.32,1.55c1.11.51,2.21,1,3.29,1.61l3.25,1.7,3.18,1.84a65.88,65.88,0,0,1,6.13,4.08c1,.69,1.91,1.56,2.86,2.33a29.34,29.34,0,0,1,2.59,2.64l.59.71.53.77a11.13,11.13,0,0,1,.95,1.59,5.23,5.23,0,0,1,.59,3.57,3.26,3.26,0,0,0-.22-1.75,3.49,3.49,0,0,0-.35-.82,4.86,4.86,0,0,0-.43-.77,11.44,11.44,0,0,0-1.08-1.41l-.59-.66-.65-.6a29.72,29.72,0,0,0-2.74-2.27c-1-.65-1.94-1.38-3-2a90.13,90.13,0,0,0-12.86-6.31c-2.18-1-4.46-1.76-6.68-2.65a31.54,31.54,0,0,1-6.83-3.51,41.65,41.65,0,0,1-10.54-10.94c-5.77-8.21-9.27-17.51-14.41-25.13a30.69,30.69,0,0,0-4.2-5.09c-.71-.69-1.72-1.51-2.6-2.27l-2.75-2.26a78.58,78.58,0,0,0-11.49-7.91,47,47,0,0,0-6.16-2.86l-1.6-.54a15.6,15.6,0,0,0-1.61-.48l-1.63-.43-1.65-.31c-4.44-.9-8.88-.61-13.75-.31a143.35,143.35,0,0,1-14.77.45,38.87,38.87,0,0,1-7.66-1,32.69,32.69,0,0,1-3.77-1.16,27,27,0,0,1-3.59-1.75,28.36,28.36,0,0,1-3.29-2.23l-1.47-1.33-.72-.66-.62-.59a39.3,39.3,0,0,0-5.34-4.35,47.09,47.09,0,0,0-12.59-6,67.45,67.45,0,0,0-14-2.78q-3.59-.36-7.19-.39A70.07,70.07,0,0,0,338,307.33Z"/><path class="cls-1" d="M459.26,524.78c-.51-.22-1.33,1.64-.75,4a60.56,60.56,0,0,0,1.94,7.45c1.4,3.45,11.87,34,11.87,34l.42,1.38a.94.94,0,0,0,1.62.32,28.85,28.85,0,0,0,4.56-8.81C481.22,556.4,488.81,538.08,459.26,524.78Z"/><path class="cls-1" d="M262.73,342.42s-.28.63-.29.64c-.14.35-5.42,16.95-6.24,22.91-.5,3.65-.92,3-.92,3s-11.75-38.46,13-46.39a.32.32,0,0,1,.4.4Z"/><path class="cls-1" d="M335.13,706.23c-3.78,10-25,56.34,14.54,67.39a33.16,33.16,0,0,0,6.26,1.16c13.33,1.15,56.41,2.32,137.42-81.8,0,0,13.53-13.13,24.56-24.14,1.79-1.79,3.27-4.3,5.31-6.1l2-1.6a5.23,5.23,0,0,1,5.3-.81l.37.15c4.51,1.74,17.24,7.74,33.84,24.62,0,0-43.13,9.5-145,98,0,0-106.48,103.19-113.71-12.91,0,0-.57-41.83,25.31-65.36C333.39,702.93,335.3,705.79,335.13,706.23Z"/><path class="cls-1" d="M300.31,754.71c-2.26,10.24-9.3,63.82,18.63,78.83a28.44,28.44,0,0,0,5.5,2.66c10.63,2.94,42.13,14.55,122-56,87.39-77.19,119.15-83.42,131.87-83.44,1.1,0,2.89,0,4,0a9,9,0,0,1,4,1.06,1.33,1.33,0,0,1-.27,2.47,149.94,149.94,0,0,0-34.47,14.15,71.06,71.06,0,0,0-18.72,15.73c-29.77,35.2-159.21,177.26-208.74,162-36.37-11.21-43-53.61-28-130.13a33.76,33.76,0,0,1,1.35-5,17.68,17.68,0,0,1,1.3-2.93A.79.79,0,0,1,300.31,754.71Z"/><path class="cls-1" d="M597.08,712c2.9-.36,2.49-4.75-.43-4.5h-.15c-5,.51-40.41-.4-76.8,44.28s-63.23,88.23-71,105.85c-6.19,14,16.37,3.65,25.86-1.18a11.52,11.52,0,0,0,5.54-6.12c6-15.49,29.49-72.33,61.5-105.59C568.81,716.51,587.87,713.2,597.08,712Z"/><path class="cls-1" d="M624,729.1l-5.56-5.92s-1.29-2.27-7.66-2.13-63.24-14.12-120.29,125.62a3.88,3.88,0,0,0,4.11,5.34c4.52-.71,11.67-3.47,21.83-11.86a5.17,5.17,0,0,0,1.72-2.75c3.47-13.91,30.61-111.87,105.11-106.67A1,1,0,0,0,624,729.1Z"/><path class="cls-1" d="M336.13,694.73s-59.92,28.7-76.57,147.33c-2.73,19.41.31,53-37.82,22.68-7.88-6.27-11.88-24-2.82-44.13,3.21-7.12,36.3-96,80-109.9,0,0,2.38-.36-.56,2.35C297,714.3,275,739.63,265.19,759.63c-7.07,14.46-30.66,52.46-34.06,83.11-.19,1.72,3.07,6,6.64,4.26,2.34-1.12,4.11-9.49,4.26-10.73.33-2.73,18.87-100.53,87.84-140.38C329.87,695.89,338.08,691.21,336.13,694.73Z"/><path class="cls-1" d="M272.49,807.42c1.71-7.83,3.64-8.4,5.05-8.95s3,0,3.08,2.69c.09,6.46-21.59,219.76,171.11,21.84,2-2,4.86-2.73,6.25-.26.6,1.06.13,4.44.12,4.47-14.72,45.11-108.44,125.33-158,98.66-15.14-8.14-37.91-19.83-37.7-53.61C262.47,855.27,267.08,832.33,272.49,807.42Z"/><polygon class="cls-1" points="203.53 114.43 210.07 126.4 222.04 132.95 210.07 139.49 203.53 151.46 196.98 139.49 185.01 132.95 196.98 126.4 203.53 114.43"/><polygon class="cls-1" points="227.02 700.58 233.57 712.55 245.54 719.1 233.57 725.64 227.02 737.61 220.47 725.64 208.5 719.1 220.47 712.55 227.02 700.58"/><polygon class="cls-1" points="626.69 652.37 633.23 664.34 645.21 670.88 633.23 677.43 626.69 689.4 620.14 677.43 608.17 670.88 620.14 664.34 626.69 652.37"/><path class="cls-1" d="M190.33,200c-.91-.63-1.81-1.28-2.74-1.89-2.12-1.41-4.25-2.79-6.38-4.19-.42-.28-.6,0-.69.32-.3,1.07-.62,2.14-.83,3.23-.44,2.34-.84,4.69-1.22,7-.41,2.51-.79,5-1.18,7.53a2.28,2.28,0,0,1-.15.44c-.13-.16-.34-.3-.37-.48-.13-.78-.23-1.57-.31-2.36-.37-3.53-.71-7.07-1.08-10.6-.19-1.85-.46-3.68-.65-5.53-.07-.63-.31-.53-.69-.29-2.08,1.28-4.18,2.53-6.23,3.85-1.16.74-2.24,1.62-3.36,2.43a4.73,4.73,0,0,1-.66.44c-.12.06-.28,0-.43,0,0-.13,0-.29.06-.39q1.82-2.61,3.65-5.21c1.25-1.78,2.51-3.56,3.76-5.35.15-.21.3-.63-.1-.55-1.29.26-2.36-.45-3.53-.67-2.91-.55-5.8-1.17-8.7-1.78a1.67,1.67,0,0,1-.5-.28,2.16,2.16,0,0,1,.47-.26c.92-.21,1.85-.42,2.78-.6,2.86-.55,5.72-1.09,8.57-1.65a7.36,7.36,0,0,0,.92-.25c.37-.13.5-.39.29-.74-.3-.5-.62-1-.94-1.48l-6.33-9.39a6.1,6.1,0,0,1-.34-.54c0-.06,0-.2,0-.21a.35.35,0,0,1,.28,0c.68.43,1.34.86,2,1.3l7.38,5a13,13,0,0,1,1.24,1c.41.38.47.15.54-.23.36-1.93.74-3.85,1.1-5.77.44-2.4.89-4.79,1.32-7.19.23-1.3.42-2.61.65-3.91,0-.13.17-.23.26-.34.13.13.34.26.35.41.19,1.74.33,3.48.52,5.22.35,3.05.73,6.09,1.1,9.14,0,.1.09.2.11.3.19,1.06.37,2.13.56,3.19.95-.57,1.91-1.12,2.86-1.7,1.8-1.11,3.6-2.25,5.42-3.34a18.28,18.28,0,0,1,2-1c.12-.05.29,0,.44,0a1.13,1.13,0,0,1-.12.38c-1.08,1.51-2.18,3-3.27,4.52s-2.22,3.1-3.35,4.64c-.36.49-.26.74.3.9,3.3.91,6.49,2.25,9.91,2.77,1,.15,1.94.48,2.91.73a.31.31,0,0,1,.17.19.4.4,0,0,1-.17.26,1,1,0,0,1-.44.14A40.13,40.13,0,0,0,191,188c-1.61.3-3.23.53-4.85.8-.37.06-.73.17-1.09.23s-.48.36-.36.69a5.45,5.45,0,0,0,.47,1c1,1.62,2.06,3.22,3,4.85.82,1.36,1.56,2.77,2.34,4.15Z"/><path class="cls-1" d="M685.57,617.7c-.91-.63-1.81-1.28-2.74-1.9q-3.18-2.1-6.38-4.18c-.42-.28-.6,0-.69.32-.3,1.07-.62,2.14-.83,3.22-.44,2.35-.84,4.7-1.22,7.05-.41,2.51-.79,5-1.18,7.53a2.54,2.54,0,0,1-.15.44c-.13-.16-.34-.3-.37-.48-.13-.78-.23-1.57-.31-2.36-.37-3.54-.71-7.07-1.08-10.6-.19-1.85-.46-3.68-.65-5.53-.07-.63-.31-.53-.69-.29-2.08,1.28-4.18,2.52-6.23,3.85-1.16.74-2.24,1.61-3.36,2.43a5.82,5.82,0,0,1-.66.44,1.22,1.22,0,0,1-.43,0c0-.13,0-.29.06-.39l3.65-5.22c1.25-1.78,2.51-3.55,3.76-5.34.15-.21.3-.63-.1-.55-1.29.25-2.36-.45-3.53-.67-2.91-.55-5.8-1.17-8.7-1.78a1.92,1.92,0,0,1-.5-.28,1.81,1.81,0,0,1,.47-.26c.92-.21,1.85-.42,2.78-.6l8.57-1.65a7.36,7.36,0,0,0,.92-.25c.37-.13.5-.39.29-.74s-.62-1-.94-1.48L659,589.05a6.1,6.1,0,0,1-.34-.54c0-.06,0-.21,0-.21a.35.35,0,0,1,.28,0c.68.42,1.34.86,2,1.3l7.38,5a11.6,11.6,0,0,1,1.24,1c.41.38.47.15.54-.23.36-1.93.74-3.85,1.1-5.77.44-2.4.89-4.79,1.32-7.19.23-1.3.42-2.61.65-3.92,0-.12.17-.22.26-.34.13.14.34.27.35.42.19,1.73.33,3.48.52,5.21.35,3,.73,6.1,1.1,9.15,0,.1.09.2.11.3.19,1.06.37,2.13.56,3.19.95-.57,1.91-1.13,2.85-1.71,1.81-1.11,3.61-2.24,5.42-3.34a21.58,21.58,0,0,1,2-1c.12,0,.29,0,.44,0a1.13,1.13,0,0,1-.12.38c-1.08,1.51-2.18,3-3.27,4.52s-2.22,3.1-3.35,4.64c-.36.49-.26.74.3.89,3.3.92,6.49,2.26,9.91,2.78,1,.15,1.94.48,2.91.73a.29.29,0,0,1,.17.19.43.43,0,0,1-.17.26,1.14,1.14,0,0,1-.44.14,40.13,40.13,0,0,0-6.46.78c-1.61.3-3.23.53-4.85.79-.37.06-.73.18-1.09.24s-.48.35-.36.69a5.77,5.77,0,0,0,.47,1c1,1.62,2.06,3.21,3,4.85.82,1.36,1.56,2.77,2.34,4.15Z"/></svg>