<svg id="Слой_1" data-name="Слой 1" xmlns="http://www.w3.org/2000/svg" viewBox="0 0 793 1016"><defs><style>.cls-1{fill:#0a1123;}</style></defs><title>символы</title><path class="cls-1" d="M127.64,449.9a12.68,12.68,0,0,0,2.84,5.84,11,11,0,0,0,12.28,3.42,3.66,3.66,0,0,0-2.4-6.92A3.91,3.91,0,0,1,136,451a5.38,5.38,0,0,1-1.2-2.44,3.32,3.32,0,0,1,.2-2.15,4.31,4.31,0,0,1,3.08-2,10.65,10.65,0,0,0,3.76-.34l17.89-.27a3.66,3.66,0,0,0-.08-7.31l-17.3.26a3.59,3.59,0,0,0-1.66,0,21.46,21.46,0,0,0-2.5.2,4.23,4.23,0,0,1-2.15-1.38,5.3,5.3,0,0,1-1.21-2.44,3.38,3.38,0,0,1,.21-2.15c.53-1.09,1.92-2,4.47-2.27a10.1,10.1,0,0,0,4-.12l16.27-.24a3.66,3.66,0,0,0-.08-7.31l-16.23.24a3.46,3.46,0,0,0-.85,0l-1.6,0-1,0a5.79,5.79,0,0,1-2.38-1.66,4.27,4.27,0,0,1-1-1.75,1.08,1.08,0,0,1,0-.71c.48-.8,2.09-1.41,5.48-1.46l18.67-.27a3.7,3.7,0,0,0,1.22-.22,13.16,13.16,0,0,0,6.24-4.34,8.73,8.73,0,0,0,1.66-6.75,12.64,12.64,0,0,0-3.17-6.25c-2.76-3.15-7.41-6.13-13.71-8.22a3.65,3.65,0,1,0-2.29,6.94c5,1.66,8.55,3.87,10.51,6.11a5.47,5.47,0,0,1,1.41,2.56,1.62,1.62,0,0,1-.29,1.27,5.5,5.5,0,0,1-2.34,1.6l-18,.27c-6.38.09-10,2.2-11.7,5a8.05,8.05,0,0,0-.88,6,11.35,11.35,0,0,0,2.16,4.41,10.06,10.06,0,0,0-3.23,3.84,10.65,10.65,0,0,0-.81,6.7,12.78,12.78,0,0,0,2.84,5.84l0,0a10,10,0,0,0-2.07,2.86A10.57,10.57,0,0,0,127.64,449.9Z"/><path class="cls-1" d="M195.14,270.76c-2-2.8-3.41-6.92-3.6-12.8a3.84,3.84,0,0,0-.5-1.78L191,256a3.78,3.78,0,0,0-1.21-1.21l-.14-.09a3.88,3.88,0,0,0-3.82,0l-.14.09a3.88,3.88,0,0,0-1.21,1.21l-.09.14a3.83,3.83,0,0,0-.48,1.5l-.64,5.84a19.07,19.07,0,0,1-3,7.25,12.35,12.35,0,0,1-8.42,5.26,3.85,3.85,0,1,0,1,7.64h0a20,20,0,0,0,8.51-3.3L179,302.11l-10.27,6.55a3.85,3.85,0,0,0,4.14,6.5l5.05-3.22-2,17.93a3.86,3.86,0,1,0,7.68.81l2.65-24.08,10.27-6.55a3.85,3.85,0,1,0-4.14-6.5l-5.05,3.22,2.27-20.56a20,20,0,0,0,12.95,7.45,3.85,3.85,0,1,0,1-7.64A12.31,12.31,0,0,1,195.14,270.76Z"/><path class="cls-1" d="M159.12,527.8l5.4,8.9a16,16,0,0,0-3.67,4.18,14.15,14.15,0,0,0,13.28,21.45A14,14,0,0,0,179,561c.4-.2.81-.42,1.2-.65l5.74,8.21a3.3,3.3,0,1,0,5.41-3.77l-7.7-11a4.12,4.12,0,0,0-.33-.4,3.31,3.31,0,0,0-4.67-.09,9.23,9.23,0,0,1-2.5,1.77,7.06,7.06,0,0,1-2.6.7,7.5,7.5,0,0,1-8.12-6.86,7.62,7.62,0,0,1,1.07-4.6,9.79,9.79,0,0,1,3.89-3.58,1.73,1.73,0,0,0,.3-.16,3.29,3.29,0,0,0,1.12-4.53l-7-11.6a3.3,3.3,0,1,0-5.65,3.41Z"/><path class="cls-1" d="M256.67,648.28a10.81,10.81,0,0,0,3,2.86,17.37,17.37,0,0,0,7.61,2.46,9.89,9.89,0,0,0,.77,1.34,10.78,10.78,0,0,0,3,2.85,17.38,17.38,0,0,0,7.54,2.46,7.71,7.71,0,0,0,4.67,4.75c2.56,1,6.08.9,10.71-.75a3.87,3.87,0,0,0-2.61-7.29c-2.75,1-4.46,1.19-5.36.84a.46.46,0,0,1-.17-.28,3.21,3.21,0,0,1-.12-.81,3.05,3.05,0,0,0,0-.43,8.63,8.63,0,0,1,.24-1.6c.95-4.29,4.28-9.68,8.34-13.18a3.86,3.86,0,0,0-5.05-5.84,36,36,0,0,0-10.71,16.8,8.83,8.83,0,0,1-3.33-1.18,3,3,0,0,1-.84-.73l-.09-.19a4.39,4.39,0,0,0,0-.89s0-.07,0-.11l0,0a5.69,5.69,0,0,1,.73-1.48L284.7,633a3.86,3.86,0,1,0-6.5-4.18l-9.62,14.9a14.89,14.89,0,0,0-1.15,2.13,9.08,9.08,0,0,1-3.57-1.21,2.93,2.93,0,0,1-.83-.74.91.91,0,0,1-.18-.47,4,4,0,0,1,.82-2.19l9.62-14.9a3.86,3.86,0,0,0-6.5-4.18l-9.62,14.9a11.23,11.23,0,0,0-2,7A8.63,8.63,0,0,0,256.67,648.28Z"/><path class="cls-1" d="M197.51,561.15a3.29,3.29,0,1,0,5.5-3.63l-26.72-40.58a3.29,3.29,0,1,0-5.5,3.63Z"/><path class="cls-1" d="M666.12,391.91a3.86,3.86,0,0,0-1.77,5.16,16.83,16.83,0,0,1,2,6.83,7.12,7.12,0,0,1-1.07,4.13,6.87,6.87,0,0,1-2.8,2.42,8.85,8.85,0,0,1-3.17.88c-.24-.26-.48-.52-.73-.77a19.1,19.1,0,1,0-1.19,28.1,9.27,9.27,0,0,1,2.92.85,6.69,6.69,0,0,1,3.87,6.55,16.83,16.83,0,0,1-2,6.84,3.86,3.86,0,0,0,6.93,3.38,24.4,24.4,0,0,0,2.74-10,14.23,14.23,0,0,0-8.2-13.65,12.65,12.65,0,0,0-1.26-.55v0a19.2,19.2,0,0,0,.88-13.67,16.81,16.81,0,0,0,2.55-1,14.27,14.27,0,0,0,8.2-13.65,24.37,24.37,0,0,0-2.74-10A3.86,3.86,0,0,0,666.12,391.91Zm-13.06,40.18a11.35,11.35,0,1,1,3.33-8A11.3,11.3,0,0,1,653.06,432.09Z"/><path class="cls-1" d="M536.78,613c4.11-.34,7.79.25,10.29,2.21a8.69,8.69,0,0,1,2.54,3.2,6,6,0,0,1,.25,5,5.34,5.34,0,0,1-1.09,1.6,5.26,5.26,0,0,1-1.54,1.11,4.67,4.67,0,0,1-3.91.07,4.45,4.45,0,0,1-1.4-1,3.79,3.79,0,0,1-.85-1.26l0-.08a.66.66,0,0,1,0-.48.83.83,0,0,1,.44-.37.37.37,0,0,1,.11,0,1.67,1.67,0,0,1,1.13.06,3.86,3.86,0,0,0,4.2-.65,4,4,0,0,0-1.14-6.67h0a9.87,9.87,0,0,0-3.25-.73,9.53,9.53,0,0,0-3.32.44c-.26.08-.5.17-.72.26a11.34,11.34,0,0,0-4.87,4.1.94.94,0,0,0,0,1.09c1,1.29,1.9,2.56,2.94,3.81,2.41,2.79,4.93,5.49,7.45,8.19a4.18,4.18,0,0,0,4,1.27,12.65,12.65,0,0,0,2.61-.92,13.24,13.24,0,0,0,3.84-2.75,13.47,13.47,0,0,0,2.3-15.49,16.61,16.61,0,0,0-4.8-6c-4.23-3.3-9.84-4.36-15.83-3.86a44.5,44.5,0,0,0-9.68,2,1.39,1.39,0,0,0-.76,2c.23.42.47.84.71,1.25.59,1,1.2,2,1.81,2.91a2.09,2.09,0,0,0,2.3.88A35.16,35.16,0,0,1,536.78,613Z"/><path class="cls-1" d="M604.92,219.17A290.89,290.89,0,0,0,117.63,497.25a4,4,0,0,0,.06,1.64,3.8,3.8,0,0,0,.79,1.58h0A290.48,290.48,0,0,0,193.7,630.39c31,31,57.91,51.25,100.36,65.76a3.42,3.42,0,0,0,4.33-2.07c.21-.58.39-1.21.57-1.92a2.79,2.79,0,0,0-1.81-3.34c-40.51-13.77-65.75-32.6-95.67-61.89l44.12-42.51a221.15,221.15,0,0,0,92.6,53l-8.79,29.39c-.56,1.55-.59,2.13-2,7.77-.48,2,5.46,1.57,7.22,1.55,1.06,0,1.26-2.07,2-5,1.75-6.54,1.63-6.38,1.78-6.91l7.41-24.85c.05-.18.05-.18.11-.36l0-.13a7.39,7.39,0,0,0-5.16-9.1A213.54,213.54,0,0,1,192.79,481.55a3.84,3.84,0,0,0-.1-1.26,3.88,3.88,0,0,0-.6-1.32A213.52,213.52,0,1,1,554.46,570a18,18,0,0,0-3.42,4.34,9.49,9.49,0,0,0-1.15,3.83,12.62,12.62,0,0,0,.27,3.91,10.5,10.5,0,0,0,1.59,3.2l42.71,44.19h0a247.93,247.93,0,0,1-27.33,23,1.85,1.85,0,0,0-.83,1.1c-.44,1.13,1,2.48,1.81,3.36a4.26,4.26,0,0,0,5.63.49,290.76,290.76,0,0,0,31.19-438.26ZM116.48,424.78a283.35,283.35,0,0,1,9-71.15l58.18,16.75a223,223,0,0,0,.06,108l-59,14.65h0A283.39,283.39,0,0,1,116.48,424.78Zm69.35,61.29A221.11,221.11,0,0,0,240,578.85L195.9,621.31a282.56,282.56,0,0,1-69.1-120.57Zm-.09-123.34L127.59,346a282.55,282.55,0,0,1,70.87-120.34l42,43.55A221.17,221.17,0,0,0,185.74,362.73Zm60.33-99.09-42-43.54a282.66,282.66,0,0,1,121.72-68.5l14.64,58.91A220.94,220.94,0,0,0,246.07,263.64Zm152.45-60.83a221.65,221.65,0,0,0-50.36,5.76l-14.63-58.94a284.95,284.95,0,0,1,139.43,2l-16.91,58.73A221.84,221.84,0,0,0,398.52,202.81ZM555.1,267.69a221.32,221.32,0,0,0-91.43-55.11l16.91-58.77A282.8,282.8,0,0,1,599.8,225.29h0l-44.34,42.75Zm5.84,6.06L605.3,231a282.21,282.21,0,0,1,67.38,121l-60.22,15A221,221,0,0,0,560.94,273.75ZM600.12,624l-41.87-43.43h0a3.46,3.46,0,0,1,.94-2.89c24-25,41.14-55.37,51.4-89.44l59.88,17.23h0A282.6,282.6,0,0,1,600.12,624Zm12.61-143.4a223,223,0,0,0,1.65-105.9l60.23-15a284.85,284.85,0,0,1-2,138.09Z"/><path class="cls-1" d="M559.51,637.26a4.07,4.07,0,0,0-5.37.13,21.36,21.36,0,0,1-2.15,1.67,1.86,1.86,0,0,0-.36,2.76,7.62,7.62,0,0,0,.79.82,17.6,17.6,0,0,0,2.76,2,2.49,2.49,0,0,0,2.8-.17c.56-.44,1.09-.88,1.58-1.33A4,4,0,0,0,559.51,637.26Z"/><path class="cls-1" d="M435.91,183.94c-4.92-.3-6.25-3-7.44-5.36-1.7-3.41-3.22-6.48-8.38-7a4.48,4.48,0,0,0-.82,0c-5.24.52-6.79,3.61-8.5,7.05-1.17,2.34-2.48,5-7.23,5.34-4.75-.36-6.06-3-7.23-5.34-1.7-3.41-3.23-6.48-8.39-7a4.36,4.36,0,0,0-.81,0c-5.25.52-6.79,3.61-8.5,7.05-1.18,2.38-2.52,5.07-7.44,5.36a3.57,3.57,0,1,0,.42,7.12h0c9.05-.54,11.37-5.18,13.41-9.29.72-1.44,1.37-2.74,2.46-3.07,1.09.33,1.74,1.64,2.46,3.07,2.05,4.11,4.36,8.75,13.42,9.29a4.13,4.13,0,0,0,.5,0c9-.57,11.29-5.19,13.34-9.29.71-1.44,1.36-2.74,2.45-3.07,1.09.33,1.75,1.64,2.46,3.07,2.05,4.11,4.36,8.75,13.42,9.29a3.57,3.57,0,1,0,.42-7.12Z"/><path class="cls-1" d="M436.5,162.77c-4.92-.3-6.25-3-7.44-5.36-1.7-3.41-3.22-6.48-8.38-7a5.59,5.59,0,0,0-.82,0c-5.24.52-6.79,3.62-8.5,7-1.17,2.34-2.48,5-7.23,5.34-4.75-.35-6.06-3-7.23-5.34-1.7-3.41-3.23-6.48-8.39-7a5.44,5.44,0,0,0-.81,0c-5.25.52-6.79,3.62-8.5,7-1.18,2.39-2.52,5.07-7.44,5.36a3.57,3.57,0,0,0,.42,7.13h0c9-.55,11.37-5.19,13.41-9.3.72-1.44,1.37-2.74,2.46-3.07,1.09.33,1.74,1.64,2.46,3.07,2.05,4.11,4.36,8.75,13.42,9.3h.5c9-.58,11.29-5.2,13.34-9.3.71-1.44,1.36-2.74,2.45-3.07,1.09.33,1.75,1.64,2.46,3.07,2,4.11,4.36,8.75,13.42,9.3a3.57,3.57,0,0,0,.42-7.13Z"/><path class="cls-1" d="M299.72,190a9.29,9.29,0,0,0-8.22-2.55,11.13,11.13,0,0,0-8.32,4.49,14.09,14.09,0,0,0-1.3,2c-.39-.94-.78-1.85-1.17-2.68-2.36-5-5.19-7.47-8-8.16a7.2,7.2,0,0,0-5.7.95,11.16,11.16,0,0,0-3.62,3.91,18.59,18.59,0,0,0-1.47,3.31,3.57,3.57,0,0,0-3.45-1.46,11.44,11.44,0,0,0-2.79.78,10.39,10.39,0,0,0-5.37,5.31,12.47,12.47,0,0,0,0,10,3.58,3.58,0,1,0,6.57-2.83v0a5.69,5.69,0,0,1-.36-1.3,5.12,5.12,0,0,1,.34-2.9,3.44,3.44,0,0,1,.69-1l9.08,15.54a3.58,3.58,0,1,0,6.19-3.61l-4.22-7.22a14.6,14.6,0,0,1,1-11,4.21,4.21,0,0,1,1.24-1.45.72.72,0,0,1,.24-.09c.83.2,1.91,1.47,3.23,4.27.53,1.13,1,2.27,1.48,3.44a53.35,53.35,0,0,0,3.61,7.61c.09,1.52.26,3.13.45,4.81.66,6,1.44,13.15-2.26,15.48a3.57,3.57,0,1,0,3.81,6c6.92-4.36,6.55-12.83,5.76-20.41a16.11,16.11,0,0,0,8.16-.92,3.82,3.82,0,0,0,.68-.31c5.28-3.13,7.41-7,7.68-10.68a11,11,0,0,0-1-5.35A12.42,12.42,0,0,0,299.72,190Zm-3.24,8.88c-.11,1.47-1.18,3.16-3.86,4.83a5.83,5.83,0,0,1-6.12-1.27c0-.16.05-.32.08-.46a14.94,14.94,0,0,1,2.26-5.68,4.42,4.42,0,0,1,3.46-1.75,3.25,3.25,0,0,0,.95-.18c.3-.1,1,.28,1.65.92a5,5,0,0,1,1.22,1.66A3.85,3.85,0,0,1,296.48,198.92Z"/><path class="cls-1" d="M640.3,544.69a26.78,26.78,0,0,0-3.41.8,30.29,30.29,0,0,0-9.15,4.56l-18.8-11.23A31,31,0,0,0,609,531a36.76,36.76,0,0,0-.79-4.61,3.87,3.87,0,0,0-7.53,1.77h0a28.94,28.94,0,0,1,.65,3.66c.72,6.5-1.12,11.53-4.09,15.13a20.76,20.76,0,0,1-11.06,6.84h0a15.16,15.16,0,0,1-2.09.37,3.86,3.86,0,0,0,.81,7.68,25.71,25.71,0,0,0,3.06-.52,28.56,28.56,0,0,0,8.94-3.86l19.79,11.83a27.89,27.89,0,0,0,.33,6.94,33.83,33.83,0,0,0,.89,3.75,3.87,3.87,0,0,0,7.41-2.21,23,23,0,0,1-.67-2.83,18.2,18.2,0,0,1,3.13-14.16,21.81,21.81,0,0,1,11.3-7.84,23.33,23.33,0,0,1,2.51-.59,3.87,3.87,0,1,0-1.3-7.62ZM621.57,556.2a26.05,26.05,0,0,0-3,5.2L603,552.07l.21-.25a26.22,26.22,0,0,0,3.43-5.38h0L622,555.61Z"/><path class="cls-1" d="M554.65,195.18a34.26,34.26,0,0,0-11.46,1.16,24.72,24.72,0,0,0-12.76,8.33l-4.31-1.95a24.54,24.54,0,0,0,.48-6.75,32.4,32.4,0,0,0-2.8-10.91,3.74,3.74,0,0,0-4.87-1.88,3.57,3.57,0,0,0-1.93,4.74,24.84,24.84,0,0,1,2.2,8.48,18.4,18.4,0,0,1-.06,3.16l-9.7-4.39a3.74,3.74,0,0,0-4.92,1.76,3.56,3.56,0,0,0,1.81,4.79h0l10.44,4.73c-.06.11-.13.21-.2.32a18.46,18.46,0,0,1-8.42,6.7,26.43,26.43,0,0,1-8.58,1.93,3.61,3.61,0,1,0,.43,7.2,33.92,33.92,0,0,0,11.09-2.49,25.91,25.91,0,0,0,11.68-9.41q.39-.58.75-1.2l3.32,1.51a26.07,26.07,0,0,0-1.65,7.79,31.79,31.79,0,0,0,1.38,11,3.71,3.71,0,0,0,4.59,2.44,3.58,3.58,0,0,0,2.5-4.47,24.37,24.37,0,0,1-1.08-8.55,18.82,18.82,0,0,1,1-5.13L540.1,217a3.75,3.75,0,0,0,4.92-1.76,3.56,3.56,0,0,0-1.81-4.79l-5.81-2.63a17.87,17.87,0,0,1,7.89-4.57,26.84,26.84,0,0,1,9-.88,3.61,3.61,0,1,0,.4-7.2Z"/><path class="cls-1" d="M630.75,300.41c3.34,1.19,5.11,3.57,5.45,5.88a5,5,0,0,1-.26,2.61,3.6,3.6,0,0,1-1.35,1.69c-1.75,1.16-4.88,1.15-9.46-1.19a3.87,3.87,0,1,0-3.51,6.89c7.47,3.82,13.35,3.31,17.22.74a11.29,11.29,0,0,0,4.27-5.31,12.76,12.76,0,0,0,.71-6.57c-.73-4.92-4.22-9.87-10.72-12.09a4,4,0,0,0-.7-.21,28.48,28.48,0,0,0-6.83-.47,28.87,28.87,0,0,0,3.63-7.09,3.76,3.76,0,0,0,.17-.66c1.34-6.76-1.21-12.26-5.11-15.36a12.63,12.63,0,0,0-6.07-2.67,11.26,11.26,0,0,0-6.71,1c-4.16,2.07-7.53,6.91-8,15.27a3.86,3.86,0,0,0,7.71.43c.27-5.14,1.81-7.86,3.69-8.79a3.67,3.67,0,0,1,2.17-.32,5.15,5.15,0,0,1,2.37,1.09c1.83,1.46,3,4.19,2.36,7.68-3.26,9.09-12.7,14.17-21.17,18.75-1.37.74-2.7,1.46-4.19,2.29a3.87,3.87,0,0,0-1.84,2.39,3.86,3.86,0,0,0,5.2,5.44h0c.94-.55,2.49-1.52,4.07-2.49C612.09,304.32,621.21,298.7,630.75,300.41Z"/><path class="cls-1" d="M278.47,320.08l-.68-4.89a.42.42,0,0,0-.68-.27c-2.29,1.94-10.34,9.65-6.22,19.33a.42.42,0,0,0,.78,0,59.16,59.16,0,0,1,4.87-9.44C279.14,321.11,278.47,320.08,278.47,320.08Z"/><path class="cls-1" d="M371.82,375.92s7.49,34.17,30.3,39.61"/><path class="cls-1" d="M338.08,271.19c-4.51.15-8.82.15-13.08.24s-8.43.24-12.54.68a66.49,66.49,0,0,0-12,2.25,48.58,48.58,0,0,0-5.8,2.17,57.08,57.08,0,0,0-5.7,3.14,20.29,20.29,0,0,1,4-5.56,26.63,26.63,0,0,1,5.65-4.09,35.55,35.55,0,0,1,13.26-3.88,48,48,0,0,1,13.55.6A40.44,40.44,0,0,1,338.08,271.19Z"/><path class="cls-1" d="M413.43,361c2,.84,4.12,2.84,6.15,5.16a31.18,31.18,0,0,0,17.14,10.13c17.28,3.52,40.22,3.71,46.52,3.6a.28.28,0,0,1,.09.54c-23.76,8.66-40.91,7.86-43.94,7.64a.28.28,0,0,0-.27.4c8.52,16.87,35.07,3.13,36,2.63l.05,0c42-12.05,52.15,24,53.63,30.65a.27.27,0,0,1-.46.24c-10-10.83-35.07-7.9-35.07-7.9L471.7,417a.27.27,0,0,0-.08.51,109.31,109.31,0,0,0,19.88,7.27c9.43,2.36,25.14,1.9,30,1.69a.28.28,0,0,1,.11.53c-24.35,10.34-54.83-4.27-55.34-4.51h0l-15-8.62a.27.27,0,0,0-.4.32c1.51,4.56,13.39,13.28,29.21,21.07,16.6,8.17,41.36.77,47-2a46.58,46.58,0,0,0,8.69-5.74c.15-.13.47.18.53.37a37.49,37.49,0,0,1,2,16.85c-1,11.24-22.49,19.41-31.68,25-8.18,5-17,16.46-18.8,18.93a.27.27,0,0,1-.48-.09,70.8,70.8,0,0,0-19-31.69c-4.52-4.41-11.69-6.95-18-11.16-30-20.07-29.43-55.51-30-59.38l-4.19-15.4Z"/><path class="cls-1" d="M464.2,461.52c-.82-.83-2.07.17-3,2-2.17,4.34-7.17,12.3-9.34,13.83s-3.13,2.3-3.26-.32,2.43-7,1.92-9.12-2.88-7.79-3.45-7.87c-.39-.06-1.72.27-.38,3.78,1.22,3.19-4.84,6.7-5.95,7.31a1.69,1.69,0,0,1-.37.15c-1.18.3-7.41,1.74-8-1.84s1.65-7.27,2-7.79c0-.05.06-.09.09-.15.48-1,4.65-9.73-4.45-11.66-9.64-2-27.39-4.88-29.47-19-.21-1.45-.41-4.81-2.38-5.84s-17.71-7.61-22.3-17.14-8.21-29.45-20.36-29.79-27.86-20.91-29.79-23.85c-1.71-2.62-5.68-5.76-13.6-8.66S286.51,335,283,329a1.7,1.7,0,0,1-.18-.44c-.16-.63-.76-2.23-2.25.21A93.27,93.27,0,0,0,267.8,370c-1.66,22.85-4.35,14.94,0,44.43,0,0,1.91,5.22-6.9,22.58s-8.3,22.61-12.38,31.93c-3.47,7.92-8.61,18,.44,24.83a17.85,17.85,0,0,0,9.78,3.41c2.47.14,5.38.38,5.74.74.63.63,2,5.23,1.27,8.42s-2.17,6.21,0,8.51c1.42,1.53,5.69,3.84,8.65,5,1.7.68,8.42,2.18,8.42,2.18a13.29,13.29,0,0,0,2.82.09c1-.39,1.2-.44,1.08-1.18-.08-.52-2.42-3-3.57-4.29a.17.17,0,0,1,.21-.27,68.47,68.47,0,0,1,6.71,4.55c3.53,2.47,12.58,5,12.89,5,1.05.21-.29.66-.29.66l-1.6.23c-4,.32-15.83-3.74-19.34-3.33a6.92,6.92,0,0,0-3.32,1.34,14.3,14.3,0,0,0-2.55,2.2,1.54,1.54,0,0,1-.65.64,1.79,1.79,0,0,1-.32.13,5.54,5.54,0,0,0-2.59,8.09,8.39,8.39,0,0,0,8.8,4.24,28.8,28.8,0,0,0,9.57-3.42.28.28,0,0,1,.37.41c-3.44,5.31-6.82,5.35-8.41,5.31l.52.6c.34.37,0,1.22-.07,1.72-.24,2.17-1.23,9.62-2.18,14.53-1.11,5.7-5.62,19.4,17.62,23,17.07,2.62,53.48-10.46,71.59-17.59A78.57,78.57,0,0,0,401,542.78c9.32-10.87,19.76-27.49,26.39-51.73a1.63,1.63,0,0,1,.49-.8,12.25,12.25,0,0,1,16.07-.75,1.68,1.68,0,0,0,1.79.07c2.87-1.68,11.37-7.69,18.82-23.5C465.54,464,465.78,463.11,464.2,461.52ZM266.47,507c-.31-.19,1.72-2.24,3.65-1.88s4.16,1.56,6.29,4.82C276.1,510.39,269.71,504.9,266.47,507Zm17.15-16c-3.51,3.91-15.25,3.77-17.65,3.7a60.81,60.81,0,0,1-6.35-.61c-3.17-.43-4.36-1.95-4.62-3.18s.24-3.55,5.07-4.29c6-.92,10.5,2.15,12.38,3.22.42.24,2.33.63,5.52.14,2.07-.31,4.83-2.39,5.37-4.33,0,0,0,0,0,0,.68-1.83.46-4-1.45-6.47a2.48,2.48,0,0,0-.7-.63,10.1,10.1,0,0,0-4.34-1.26c-.92-.14-1-.31-.63-.26l2.62.28.6.09,1,.2C288.18,479.76,286.16,488.26,283.62,491.09Zm18.32-49.53,17-6.47C312.82,443.66,301.94,441.56,301.94,441.56Zm45.06-18c-12.52,4-24.77,2.1-25.89,2.12H321l-9-1.31c-.44,0-.37.22-.36.46.18,1.39.62,2.92.06,4.35-.63,1.63-2.36,2.82-5.58,1.38-4.27-1.92-2.17,2.56-1.59,4s-2.37,4.47-4.28,2.49a21.41,21.41,0,0,1-3.63-7.54c-.62-2.29.22-7.27.22-7.27s.09-.32-1.33-.24c-1.17.06-6,.87-7.41.72a4.24,4.24,0,0,1-2.75-1.28,3.57,3.57,0,0,1-1-2.38,13.76,13.76,0,0,0,1.67.1,14.07,14.07,0,0,0,4.07-.6c3.77-1.14,7.19-6.83,8.67-8.65a2.12,2.12,0,0,1,1.06-.69c6.1-1.74,13.48-.38,16.56.75,3.75,1.37,13.34,6.38,16.92,7.72,3,1.14,9.55,4.16,15.26,4,1.3,0,3.53-.19,2.92.12A24.74,24.74,0,0,1,347,423.59Zm10.82-14.82c-2.86-1.63-5.9-3.21-9.07-4.67l-.28-.15A37.14,37.14,0,0,0,344,402l-1.25-.46a81.18,81.18,0,0,0-28.63-6,44.35,44.35,0,0,0-23.57,6L287,403.77a2.55,2.55,0,0,1-.43.23l-2.18,1c-3.27,1.47-4.35-.29-4.66-2.19a7.88,7.88,0,0,1,1.49-5.83c2.2-3,7.29-7.69,18.14-8.57,17.24-1.41,21.23.26,37.06,6.38C354.38,401.73,370.2,415.83,357.82,408.77Z"/><path class="cls-1" d="M323,416.3c-2.65-1.08-3.17-1.91-10.11-3.82a36.15,36.15,0,0,0-6.45-1.18c-.72-.06-2.85,0-3.35,0a3.49,3.49,0,0,0-2.22,1.11c-1.29,1.26-3.4,3.47-2.77,3.79.89.44,1.08,0,7.85,1.46a85.86,85.86,0,0,0,12.36,1.68c2.86.19,5.7.26,8.46.24,1.22,0,1.55-.25,1.26-.63A31.69,31.69,0,0,0,323,416.3Z"/><path class="cls-1" d="M311.59,429.49a9.25,9.25,0,0,0,.37-3.79,1,1,0,0,1,1.19-1.12l8,1.17"/><ellipse class="cls-1" cx="434.81" cy="497.48" rx="6.06" ry="5.39"/><path class="cls-1" d="M432.45,552.41h0a6.21,6.21,0,0,1-6.2-6.2l1.94-30.4c0-.41.08-.82.14-1.23.68-4.21,1.21-6.6,4.88-6.6h0c3.2,0,3.73,2.32,4.53,5.37a22.71,22.71,0,0,1,.7,4.25l1.73,27.09A7.72,7.72,0,0,1,432.45,552.41Z"/><path class="cls-1" d="M350.41,593.85c-4.46,1.15-1.86,5.22-1.62,6.46,2.12,11,10,51.48,14.19,65.89,4.76,16.34,8.17,32.34,3.4,46s-2.21-24-2.21-24,.85-8.17-2.89-.34-16.66,37.35-10.82,47.61c8.06,14.17,35.86,11.35,58.8-2.72,29.41-18.05,47.83-29.28,61.28-42.56s19.85-17.7,28.53-25.19,22.72-20.72,23.4-23.27-4.76-6.75-9.87-9.47c-4.39-2.34-12.94-20.78-16.74-27.32-.64-1.1-1.22-2.22-1.76-3.38-5-10.77-32.06-69.34-33.76-79.35-1.3-7.67-1.95-13.06-2.22-15.62a2.08,2.08,0,0,0-2.81-1.74l-.08,0c-2.55,1-4.93,4.08-4.93,4.08s-.68.17-.51,5.11.3,25.53-2.58,32.51-6.7,15.66-12.62,15.66-10.51-.34-13.57-5.79a39.71,39.71,0,0,1-3.31-9.78,2.09,2.09,0,0,0-4-.37,15,15,0,0,1-1.07,2.15c-.68.85-12,16.34-20.14,22.47s-14.23,12.73-27.83,18.63A89.71,89.71,0,0,1,350.41,593.85Z"/><path class="cls-1" d="M442.47,312.34c1,.84,1.16.93,4,1.67a17.77,17.77,0,0,1,1.7.56c1.32.48,2.51.76,3.61,1.07a.62.62,0,0,0,.77-.63c-.05-.8,0,.07-.15-1.5-1-8.62-3.14-17.07-7.46-24.68a41.38,41.38,0,0,0-25.83-19.53,64.54,64.54,0,0,0-14.86-1.58c-1.14,0-9.86.17-8.28,2,4.17,6.31,8.55,12.47,12.39,19,4.22,6.94,8.61,14,14.79,19.36h0a19.34,19.34,0,0,0,6.94,3.68c1.67.57,2.36.73,4,1.2a28.65,28.65,0,0,0,5,.71c1.33.13,2.67.25,2.43,0-4.61-5-7.63-9.74-11.48-15.3a154,154,0,0,0-15.84-18.92c-2.35-2.38-4.52-5-7.13-7.11,3.57,1.28,6.54,4,9.07,6.64s5.16,5.48,7.56,8.37c6.89,7.88,12,17.13,18.8,25Z"/><path class="cls-1" d="M394.86,306.14a62,62,0,0,0-.31-13.69c-3-16.59-11.36-24.53-25.78-32a147.1,147.1,0,0,0-22.3-9.57q-2.7-.9-5.43-1.77c-2-.6-4-1.5-6.18-1.66,1,1.71,2.42,3.18,3.53,4.84,3.26,4.64,6.08,9.51,9,14.38a144.27,144.27,0,0,0,13.95,19.85l.05,0a20.74,20.74,0,0,0,9.06,6.31c.32.11,1.62.87,1.94,1,5.47,2.05,10.22,5.91,14.72,7.1a.46.46,0,0,0,.13.08c-1.41-2.58-2.82-5.16-4.33-7.69-3.58-6-7.53-12-12.61-16.89a69.76,69.76,0,0,0-12.34-9.34,62.12,62.12,0,0,0-7.51-4.29,21.7,21.7,0,0,1,9.56,3.66,68.26,68.26,0,0,1,8.31,6c8.43,6.93,14.08,16.44,19.31,25.86.79,1.44,1.58,2.87,2.28,4.35,1.45.94,2.86,1.91,4.26,2.91l.73.53Z"/><path class="cls-1" d="M387.74,327c-5.74,6-10,13.87-9.24,21.44,3-1.82,7.45-4,9.4-5.15,2.26-1.26,3.74-2.3,5.72-3.28,1.4-.69,2.8-1.38,4.12-2.19a36.42,36.42,0,0,0,11.14-9.74,14.74,14.74,0,0,0,1.05-1.75c.37-.7,1.81-2.53,1.69-2.75s-.29-.19-.79-.26c-.95,0-2.33.4-3,.44A27,27,0,0,0,392.06,331c-2.38,2.45-3.47,4.6-5.81,7.41a8.23,8.23,0,0,0-1.36,2.38c0-4,4.79-8.94,7.72-11.5,4.05-3.57,11.11-6.57,16.83-6.55,2.76-.08,1.55-.59.58-1a4.14,4.14,0,0,0-.56-.18c-1.07-.3-1.23-.34-2.56-.69-1-.08-2.12-.09-3.15-.13-5.86.06-11.88,2-16,6.23l0,0Z"/><path class="cls-1" d="M454.61,333c-8.35-.29-17.26-.33-24.7,3.56-4.42,2.4-7.94,6.09-11.27,9.79-.38.44-.73.93-1.06,1.38,1.71-5.63,8.61-11,13.85-13.33,7.25-3.23,12.37-3.5,26.44-2,.94.1.59.06,1.13.1,5.9.42,5.81,1.17,2-1.28-.09-.14-2-1.18-2.07-1.3a12.75,12.75,0,0,0-2.71-1.3l-.91-.29a19.22,19.22,0,0,0-3.56-1c-.5-.1-1-.23-1.48-.37-8.09-2.28-17.23-2-24.73,2.07l0,0h0c-9.26,5.15-11.94,14.43-13.95,23.95a1.56,1.56,0,0,0,2.44,1.58,19.54,19.54,0,0,1,4.57-2.6,52.73,52.73,0,0,1,9.48-2.07c2.27-.36,4.54-.71,6.75-1.27a53.29,53.29,0,0,0,19.93-8.78c.79-.61,1.53-1,2.41-1.67s4.39-2.76,5.8-3.86a.36.36,0,0,0-.14-.64,15.21,15.21,0,0,0-3.57-.32Z"/><path class="cls-1" d="M276.51,291a1,1,0,0,0-.52.53c.12,3.11,6.14,8.09,8.62,9.89,7.81,5.72,17.48,8.54,27.09,8.91,11.51.29,21.95-5.11,32.22-9.7h0l.7-.38c-1-.18-2-.38-2.94-.53a68.86,68.86,0,0,0-12.83-.79c-6.11.17-12.18,1.14-18.31,1.08-8.62-.1-17.41-1.67-25.14-5.53,5,.58,9.76,2.34,14.7,3.23a69.53,69.53,0,0,0,9.2.89c6.18.17,12.31-.76,18.47-1a68.82,68.82,0,0,1,17.12,1.31.77.77,0,0,1-.07-.16.3.3,0,0,0,0-.08h0c-1.41-1.87-3.07-3.56-4.57-5.34a55.06,55.06,0,0,0-10.8-9.36c-6.58-3.93-14.68-4.37-22-2.8h0a120.19,120.19,0,0,0-16.84,5.44,84.11,84.11,0,0,1-8.26,2.88c-1.24.33-2.48.68-3.73.95a9.1,9.1,0,0,0-2,.58Z"/><path class="cls-1" d="M474.19,270.27a1,1,0,0,0-.62-.38c-2.95.8-6.38,7.67-7.54,10.44-3.74,8.74-4.29,18.62-2.51,27.89,2.28,11.07,9.76,19.86,16.43,28.66h0c.18.2.34.4.52.59,0-1-.08-2-.14-2.93a67.24,67.24,0,0,0-2.1-12.44c-1.52-5.81-3.8-11.4-5.1-17.27-1.82-8.28-2.27-17-.29-25.28.55,4.92-.08,9.86.18,14.78a67.42,67.42,0,0,0,1.19,9c1.2,5.95,3.46,11.61,5.08,17.44a68,68,0,0,1,2.55,16.66l.13-.1.07-.05h0c1.47-1.76,2.71-3.73,4.08-5.56a53.45,53.45,0,0,0,6.56-12.41c2.3-7.17.92-15-2.22-21.7v0a117.13,117.13,0,0,0-8.95-14.9,82,82,0,0,1-4.58-7.26c-.59-1.12-1.2-2.23-1.74-3.36a8.93,8.93,0,0,0-1-1.79Z"/><path class="cls-1" d="M508.16,306.55a.94.94,0,0,0-.54-.41c-2.81.47-6.62,6.52-8,9-4.28,7.75-5.7,16.86-4.91,25.62,1.08,10.47,7.2,19.31,12.57,28.08h0c.15.2.28.4.43.59.05-.91.11-1.82.13-2.72A62.19,62.19,0,0,0,507.1,355c-.88-5.53-2.47-10.92-3.13-16.49A53,53,0,0,1,506,315c.06,4.61-1,9.13-1.2,13.72a64.29,64.29,0,0,0,.27,8.44c.56,5.63,2.13,11.08,3.1,16.63a63.44,63.44,0,0,1,.81,15.69l.13-.08.07-.05h0c1.53-1.5,2.86-3.2,4.3-4.77a49.93,49.93,0,0,0,7.23-10.89c2.79-6.44,2.24-13.83,0-20.33v0a110.45,110.45,0,0,0-6.91-14.64,73.54,73.54,0,0,1-3.58-7.16c-.44-1.08-.9-2.17-1.3-3.27a8.82,8.82,0,0,0-.76-1.75Z"/><path class="cls-1" d="M549.42,369.15a.5.5,0,0,0,.16-.34c-.56-1.46-4.26-2.85-5.74-3.3a24.74,24.74,0,0,0-14.41.19c-5.54,1.75-9.64,6.05-13.79,9.93h0l-.27.3,1.49-.23a35.62,35.62,0,0,0,6.26-1.73c2.89-1.09,5.63-2.55,8.57-3.53A29.28,29.28,0,0,1,544.6,369c-2.49.55-5.05.49-7.56.88a33.67,33.67,0,0,0-4.54,1.08c-3,.93-5.75,2.39-8.65,3.53a34.79,34.79,0,0,1-8.39,2.18l0,.07,0,0h0c1,.66,2.05,1.19,3.06,1.8a27.52,27.52,0,0,0,6.69,2.7,15.51,15.51,0,0,0,11-2.29h0a60.85,60.85,0,0,0,7.15-5.36,39.65,39.65,0,0,1,3.47-2.73c.54-.36,1.08-.74,1.63-1.07a4.77,4.77,0,0,0,.86-.61Z"/><path class="cls-1" d="M425.42,356.65a1,1,0,0,0-.5.46c0,2.85,5.24,7.68,7.42,9.43a45,45,0,0,0,24.35,9.38c10.49.79,20.28-3.67,29.87-7.39h0l.66-.31c-.89-.21-1.78-.43-2.66-.62a62.85,62.85,0,0,0-11.69-1.31c-5.59-.11-11.18.49-16.77.16-7.88-.49-15.83-2.32-22.72-6.2,4.55.76,8.81,2.58,13.29,3.61a62.29,62.29,0,0,0,8.35,1.24c5.64.44,11.28-.13,16.92-.1a63,63,0,0,1,15.58,2l0-.15,0-.08h0c-1.2-1.76-2.64-3.38-3.94-5.07a49.9,49.9,0,0,0-9.43-9.05c-5.84-3.89-13.22-4.66-20-3.56h0a108.62,108.62,0,0,0-15.63,4.21,75.81,75.81,0,0,1-7.68,2.24c-1.14.25-2.3.51-3.45.7a9,9,0,0,0-1.86.44Z"/><path class="cls-1" d="M326.93,316.94a1,1,0,0,0-.45.54c.37,2.79,6.55,6.57,9.08,7.89,8,4.24,17.47,5.64,26.71,4.84,11.05-1.09,20.62-7.18,30.07-12.52h0c.22-.15.44-.28.64-.43-.95,0-1.91-.1-2.86-.13a70.21,70.21,0,0,0-12.36.8c-5.85.88-11.59,2.46-17.46,3.13-8.28.92-16.83.54-24.56-2,4.85-.06,9.55,1,14.36,1.18a71.31,71.31,0,0,0,8.89-.28c5.94-.57,11.74-2.13,17.62-3.1a71,71,0,0,1,16.52-.83l-.08-.13,0-.07h0c-1.5-1.51-3.23-2.84-4.83-4.26a49.77,49.77,0,0,0-11.12-7.17c-6.64-2.76-14.44-2.2-21.36.08h0A123.52,123.52,0,0,0,340,311.33c-2.53,1.25-5,2.56-7.68,3.56-1.16.44-2.32.9-3.49,1.29a10.27,10.27,0,0,0-1.88.76Z"/><path class="cls-1" d="M494.65,602.65c23.66-1.49,36.79-22.54,36.79-22.54s24.81-33.61,4.75-63.75-55.13-23.66-65.81-18.66a4.45,4.45,0,0,1-3.7-.28c.2,3.76,1.6,8.2,2.92,11.81,3,2.08,8.84,6.09,21.46,16.8,19,16.12-8.93,50.31-7.28,54.18,3.36,7.07,20.54-8.47,30-24.7s3.47-30.87-2-36.81-18.49-10.3-22.28-11-2.85-1.64-2.85-1.64,12.52,0,19.46,3.38a28.53,28.53,0,0,1,4.85,3,38.72,38.72,0,0,1,12.37,16.74c4.9,12.63.17,23.39-6.46,34.1-8.85,14.3-32,18.07-32,18.07Z"/><path class="cls-1" d="M384.64,349.1a.4.4,0,0,0-.1.8c9.29,1.76,28.3,7.09,31.73,21.53,4.56,19.26,5.58,25.47,5.58,25.47L418.49,365S408.68,350,384.64,349.1Z"/><path class="cls-1" d="M403.57,403.42a.18.18,0,0,0-.3.2c2.83,4.84,10.45,17,18.58,22.7,10.27,7.15,22.95,15.83,28.48,19.4s17.76-16.93,17.76-16.93S421,423.87,403.57,403.42Z"/><path class="cls-1" d="M282.14,314.65a1.06,1.06,0,0,0-1.49,1.46,47.4,47.4,0,0,0,28.65,19.72c22.06,5.3,40.63-3.28,64.3,18.68a1.32,1.32,0,0,0,2-1.31c-1.83-5.18-12.94-16.05-23.77-19.73-16.51-5.62-18.41-3.47-32.51-5.53C297.23,324.7,296.46,324.3,282.14,314.65Z"/><path class="cls-1" d="M416.63,402.38c-2.44-9.31-12.77-48.23-35.61-43.53l-1.15.18-.22,0c-1.37,0-16.57,2-23.29-3.07-3.66-2.74-4.7-6.46-7.78-8.22a37.62,37.62,0,0,0-16.92-4.86l-4.29-.19a.39.39,0,0,0-.11.76c2.81,1,7.68,3,8.93,5.59,1.79,3.73,11.29,18.6,20.49,18.6s21.22,4.37,24.95,7.92,2.31,9.38,7.41,15.51c2.92,3.49,5.41,6.42,7,8.28a.41.41,0,0,0,.7-.38c-1.66-6.05-1.79-6.47-3.29-13.49,0,0-1.88-10.54,3.74-4.05s5.61,6.41,18.73,21.29A.4.4,0,0,0,416.63,402.38Z"/><path class="cls-1" d="M410.33,424.89s-4.93,9.6,17.54,15.22"/><path class="cls-1" d="M494.8,480.15s-17.88,34.41-25.45,28.92c-19.49-14.12-11.67-25.51-11.67-25.51s16.95-22.48,11.89-27.61,1-5.24,1-5.24Z"/><path class="cls-1" d="M435.92,435.42s6.85,18.53,25.31,18.64-2.3,28.4-2.3,28.4l17.41-15.95S452.79,429.64,435.92,435.42Z"/><path class="cls-1" d="M346.85,299.42a68.22,68.22,0,0,1,14.5-1.38,65.63,65.63,0,0,1,14.6,1.7,49.49,49.49,0,0,1,13.8,5.57,36.9,36.9,0,0,1,6.09,4.46l.72.62.65.55L398.5,312a24.13,24.13,0,0,0,2.83,1.74,22.7,22.7,0,0,0,3,1.32,27.67,27.67,0,0,0,3.25.84,35.58,35.58,0,0,0,6.81.69,139.38,139.38,0,0,0,14.25-.83c4.76-.43,10-.76,15.05.2l1.89.35,1.87.47a16.8,16.8,0,0,1,1.84.53l1.83.59a53.61,53.61,0,0,1,6.94,3.15,82.47,82.47,0,0,1,12.26,8.54l2.81,2.37c.94.83,1.82,1.54,2.82,2.51a33,33,0,0,1,4.85,6.07,128.33,128.33,0,0,1,6.93,13,137,137,0,0,0,6.72,12.59,39.58,39.58,0,0,0,9.07,10.39,28.5,28.5,0,0,0,5.91,3.5l3.33,1.53c1.11.5,2.21,1,3.29,1.59l3.26,1.67,3.19,1.81a66.76,66.76,0,0,1,6.14,4c1,.69,1.91,1.54,2.87,2.3a28,28,0,0,1,2.6,2.62l.6.7.53.75a10.61,10.61,0,0,1,1,1.59,6.42,6.42,0,0,1,.37.85,4.45,4.45,0,0,1,.26.88,3.47,3.47,0,0,1,0,1.81,3.41,3.41,0,0,0-.19-1.76,3.94,3.94,0,0,0-.34-.82,6,6,0,0,0-.44-.78,9.78,9.78,0,0,0-1.07-1.42l-.58-.67-.65-.62a31.9,31.9,0,0,0-2.73-2.3c-1-.66-1.93-1.4-3-2a89.91,89.91,0,0,0-12.83-6.43c-2.18-1-4.45-1.78-6.67-2.68a31.63,31.63,0,0,1-6.75-3.51,41.58,41.58,0,0,1-10.41-10.89c-5.7-8.19-9.18-17.47-14.34-25.18a31.57,31.57,0,0,0-4.25-5.19c-.73-.71-1.73-1.52-2.62-2.29l-2.75-2.28a77.9,77.9,0,0,0-11.57-7.94,48.07,48.07,0,0,0-6.23-2.89l-1.62-.55a15.41,15.41,0,0,0-1.64-.48l-1.65-.43-1.67-.32c-4.49-.91-9-.61-13.87-.3a145.45,145.45,0,0,1-14.72.49,38.69,38.69,0,0,1-7.58-1,31.32,31.32,0,0,1-3.73-1.13,26.71,26.71,0,0,1-3.53-1.71A27.3,27.3,0,0,1,396.2,315l-1.45-1.3L394,313l-.63-.6a38.6,38.6,0,0,0-5.41-4.35,47,47,0,0,0-12.7-6,67.48,67.48,0,0,0-14-2.69c-2.39-.21-4.79-.33-7.2-.32A64.68,64.68,0,0,0,346.85,299.42Z"/><path class="cls-1" d="M468.12,516.88c-.51-.23-1.34,1.63-.76,4a60.48,60.48,0,0,0,1.95,7.44c1.4,3.45,11.87,34,11.87,34l.42,1.38a.93.93,0,0,0,1.61.32,28.85,28.85,0,0,0,4.56-8.81C490.07,548.49,497.67,530.17,468.12,516.88Z"/><path class="cls-1" d="M271.59,334.52s-.28.62-.29.63c-.14.35-5.43,17-6.24,22.91-.5,3.65-.92,3-.92,3s-11.75-38.46,13-46.39a.32.32,0,0,1,.4.4Z"/><path class="cls-1" d="M344,698.32c-3.79,10-25,56.34,14.54,67.39a33.86,33.86,0,0,0,6.26,1.17c13.33,1.14,56.41,2.31,137.41-81.81,0,0,13.53-13.13,24.56-24.14,1.8-1.79,3.28-4.3,5.31-6.1l2-1.6a5.23,5.23,0,0,1,5.3-.81l.37.15c4.5,1.74,17.24,7.74,33.84,24.62,0,0-43.13,9.5-145,98,0,0-106.49,103.19-113.72-12.91,0,0-.56-41.83,25.32-65.36C342.24,695,344.16,697.88,344,698.32Z"/><path class="cls-1" d="M309.17,746.8c-2.26,10.24-9.31,63.82,18.63,78.83a28.16,28.16,0,0,0,5.5,2.66c10.62,3,42.13,14.55,122-56,87.39-77.19,119.14-83.42,131.86-83.44,1.1,0,2.9,0,4,0a9.05,9.05,0,0,1,4,1.06,1.33,1.33,0,0,1-.26,2.47,150.23,150.23,0,0,0-34.47,14.15,71.06,71.06,0,0,0-18.72,15.73C512,757.44,382.57,899.5,333,884.24c-36.38-11.21-43-53.61-28-130.13a33.76,33.76,0,0,1,1.35-5,17.68,17.68,0,0,1,1.3-2.93A.79.79,0,0,1,309.17,746.8Z"/><path class="cls-1" d="M605.93,704.13c2.91-.36,2.49-4.75-.42-4.5l-.15,0c-5,.5-40.42-.41-76.8,44.27s-63.23,88.24-71,105.85c-6.2,14,16.37,3.65,25.86-1.18a11.51,11.51,0,0,0,5.53-6.12c6-15.49,29.5-72.33,61.51-105.59C577.66,708.6,596.72,705.29,605.93,704.13Z"/><path class="cls-1" d="M632.88,721.19l-5.56-5.92s-1.29-2.27-7.67-2.12S556.41,699,499.36,838.77a3.88,3.88,0,0,0,4.12,5.33c4.52-.71,11.67-3.47,21.83-11.86a5.15,5.15,0,0,0,1.71-2.75c3.48-13.91,30.62-111.87,105.12-106.67A1,1,0,0,0,632.88,721.19Z"/><path class="cls-1" d="M345,686.82s-59.91,28.7-76.57,147.33c-2.72,19.41.32,53-37.81,22.68-7.89-6.27-11.89-24-2.82-44.12,3.21-7.12,36.3-96,80-109.91,0,0,2.38-.36-.56,2.35-1.34,1.24-23.43,26.57-33.2,46.57C267,766.18,243.38,804.18,240,834.83c-.19,1.72,3.06,6,6.64,4.26,2.34-1.12,4.1-9.49,4.25-10.72.34-2.74,18.87-100.54,87.84-140.39C338.72,688,346.94,683.3,345,686.82Z"/><path class="cls-1" d="M281.35,799.51c1.7-7.83,3.63-8.4,5-9s3.05,0,3.09,2.69c.09,6.46-21.6,219.76,171.11,21.84,2-2,4.85-2.72,6.25-.26.6,1.06.13,4.44.12,4.47-14.72,45.11-108.45,125.33-158,98.67-15.14-8.15-37.91-19.84-37.71-53.62C271.33,847.37,275.94,824.42,281.35,799.51Z"/><polygon class="cls-1" points="212.38 106.52 218.93 118.49 230.9 125.04 218.93 131.58 212.38 143.56 205.83 131.58 193.86 125.04 205.83 118.49 212.38 106.52"/><polygon class="cls-1" points="235.88 692.67 242.43 704.64 254.4 711.19 242.43 717.73 235.88 729.71 229.33 717.73 217.36 711.19 229.33 704.64 235.88 692.67"/><polygon class="cls-1" points="635.54 644.46 642.09 656.43 654.06 662.98 642.09 669.52 635.54 681.49 629 669.52 617.02 662.98 629 656.43 635.54 644.46"/><path class="cls-1" d="M199.19,192.09c-.91-.63-1.81-1.28-2.74-1.89-2.12-1.41-4.26-2.79-6.38-4.19-.43-.28-.61,0-.69.33-.3,1.06-.62,2.13-.83,3.22-.45,2.34-.84,4.69-1.23,7.05s-.78,5-1.17,7.52a3.26,3.26,0,0,1-.15.44c-.13-.16-.34-.3-.37-.48-.13-.78-.24-1.57-.32-2.36-.36-3.53-.7-7.07-1.07-10.6-.2-1.84-.47-3.68-.66-5.53-.06-.62-.3-.53-.68-.29-2.08,1.28-4.18,2.53-6.24,3.85-1.16.75-2.24,1.62-3.35,2.43a4.83,4.83,0,0,1-.67.44c-.11.06-.28,0-.42,0,0-.13,0-.29.05-.39l3.66-5.21,3.76-5.34c.15-.22.29-.64-.11-.56-1.28.26-2.35-.45-3.52-.67-2.91-.55-5.8-1.17-8.7-1.78a1.74,1.74,0,0,1-.5-.27,1.64,1.64,0,0,1,.46-.26c.93-.22,1.86-.43,2.79-.61l8.57-1.65a7.21,7.21,0,0,0,.91-.25c.37-.13.51-.39.29-.74-.3-.5-.61-1-.94-1.48l-6.32-9.39c-.12-.18-.24-.35-.35-.54a.29.29,0,0,1,0-.21.38.38,0,0,1,.29,0c.67.43,1.34.86,2,1.31q3.69,2.49,7.37,5a10.87,10.87,0,0,1,1.25,1c.41.37.46.14.54-.24.35-1.93.73-3.85,1.09-5.77.45-2.39.89-4.79,1.32-7.18.24-1.31.43-2.62.66-3.92,0-.13.17-.23.26-.34.12.13.33.26.35.41.19,1.74.32,3.48.52,5.22.35,3,.73,6.09,1.1,9.14,0,.1.09.2.1.3.2,1.06.38,2.13.57,3.19.95-.56,1.91-1.12,2.85-1.7,1.81-1.11,3.6-2.25,5.42-3.34a17.58,17.58,0,0,1,2-1c.11-.05.29,0,.43,0a1.25,1.25,0,0,1-.11.39L197,169.71c-1.12,1.55-2.23,3.1-3.36,4.64-.35.49-.25.74.3.9,3.31.91,6.49,2.25,9.91,2.77a29.66,29.66,0,0,1,2.92.73c.07,0,.17.14.16.19a.36.36,0,0,1-.16.26,1,1,0,0,1-.44.14,40.13,40.13,0,0,0-6.46.78c-1.61.3-3.24.53-4.86.8-.36.06-.72.17-1.08.23s-.49.36-.36.69a4.87,4.87,0,0,0,.47,1c1,1.62,2,3.22,3,4.85.81,1.36,1.56,2.77,2.34,4.15Z"/><path class="cls-1" d="M694.43,609.79c-.91-.63-1.81-1.28-2.74-1.9-2.12-1.4-4.26-2.78-6.38-4.18-.43-.28-.61,0-.69.32-.31,1.07-.62,2.14-.83,3.23-.45,2.34-.84,4.69-1.23,7-.41,2.51-.78,5-1.17,7.53a3.81,3.81,0,0,1-.15.44c-.13-.16-.34-.3-.37-.48-.14-.78-.24-1.57-.32-2.36-.36-3.53-.7-7.07-1.07-10.6-.2-1.85-.47-3.68-.66-5.53-.06-.63-.3-.53-.68-.29-2.08,1.28-4.18,2.52-6.24,3.85-1.16.74-2.24,1.62-3.35,2.43a6,6,0,0,1-.67.44c-.11.06-.28,0-.42,0,0-.13,0-.29,0-.39,1.21-1.74,2.44-3.48,3.66-5.21s2.51-3.56,3.76-5.35c.15-.21.29-.63-.11-.55-1.28.26-2.35-.45-3.52-.67-2.91-.55-5.8-1.17-8.7-1.78a1.77,1.77,0,0,1-.5-.28,1.93,1.93,0,0,1,.46-.26c.93-.21,1.86-.42,2.79-.6l8.57-1.65a7.21,7.21,0,0,0,.91-.25c.37-.13.51-.39.29-.74s-.61-1-.94-1.48l-6.32-9.39c-.12-.18-.24-.35-.35-.54a.29.29,0,0,1,0-.21.38.38,0,0,1,.29,0c.67.43,1.34.86,2,1.3q3.69,2.51,7.37,5a12,12,0,0,1,1.25,1c.41.38.46.15.54-.23.35-1.93.73-3.85,1.09-5.77.45-2.4.89-4.79,1.32-7.19.24-1.3.43-2.61.66-3.91,0-.13.17-.23.26-.34.12.13.33.26.35.41.19,1.73.32,3.48.52,5.22.35,3,.73,6.09,1.1,9.14,0,.1.09.2.1.3.2,1.06.38,2.13.57,3.19,1-.57,1.91-1.12,2.85-1.7,1.81-1.11,3.6-2.25,5.42-3.34a17.58,17.58,0,0,1,2-1c.11-.05.29,0,.43,0a1.12,1.12,0,0,1-.11.38l-3.27,4.52c-1.12,1.54-2.23,3.1-3.36,4.64-.35.49-.25.74.3.89,3.31.92,6.49,2.26,9.91,2.78a29.66,29.66,0,0,1,2.92.73c.07,0,.17.14.16.19a.36.36,0,0,1-.16.26,1,1,0,0,1-.44.14,40.13,40.13,0,0,0-6.46.78c-1.61.3-3.24.53-4.86.79-.36.07-.72.18-1.08.24s-.49.35-.36.69a4.87,4.87,0,0,0,.47,1c1,1.62,2.05,3.21,3,4.85.81,1.36,1.56,2.77,2.34,4.15Z"/></svg>