<svg id="Слой_1" data-name="Слой 1" xmlns="http://www.w3.org/2000/svg" viewBox="0 0 550 550"><defs><style>.cls-1{fill:#f3c74a;}</style></defs><title>символы</title><path class="cls-1" d="M427.85,470.82c-1.63-1.08-3.27,0-4.35,1.09C411,491.5,389.21,515.44,368,518.71c-9.24,1.08-18-1.64-25.57-8.16-23.4-25-20.68-63.13-18.49-97.39v-3.8c7.08-77.26,39.73-149.63,70.18-211.64,34.28-66.93,12-131.14-26.12-157.79-35.37-25-84.34-28.84-125.14-10.33-44.08,20.13-75.62,82.17-51.69,150.18,8.71,24.48,20.68,48.42,32.09,71.29,4.89,9.8,9.8,20.13,14.16,29.92a77.08,77.08,0,1,0,39.17,66.93,105.7,105.7,0,0,0-3.81-34.28c-7.08-27.21-18.49-52.77-29.92-77.81-9.25-20.68-18.49-42.45-25.57-64.21-9.8-32.1-6-66.93,10.33-90.33,13.6-19.05,33.73-29.93,59.29-31.57,34.82-2.16,62.57,9.8,78.34,33.2,18,26.66,18,65.85.56,102.3-32.1,69.65-62.58,144.74-65.3,223.08V411c-.55,39.17-1.08,83.78,30.48,112.1,8.72,7.07,18.49,10.88,28.29,10.88,3.27,0,7.08,0,10.33-1.09,25.57-6,49-33.73,59.3-57.13a3.63,3.63,0,0,0-1.64-4.35ZM249.94,347.32a50.61,50.61,0,1,1-50.61-50.61A50.85,50.85,0,0,1,249.94,347.32Z"/></svg>