<svg id="Слой_1" data-name="Слой 1" xmlns="http://www.w3.org/2000/svg" viewBox="0 0 550 550"><defs><style>.cls-1,.cls-2{fill:none;stroke-miterlimit:10;}.cls-1,.cls-2,.cls-3{stroke:#000;}.cls-1{stroke-width:2.95px;}.cls-2{stroke-width:3.11px;}.cls-3{stroke-linecap:round;stroke-linejoin:round;stroke-width:4.38px;}</style></defs><title>символы</title><path class="cls-1" d="M513.76,300.93C502.42,421.8,400.67,516.38,276.84,516.38S51.27,421.8,39.92,300.93"/><path class="cls-1" d="M39.92,255.88C51.27,135,153,40.43,276.84,40.43S502.42,135,513.76,255.88"/><path class="cls-2" d="M26.86,301c11.44,128,119,228.37,250,228.37s238.6-100.4,250-228.47"/><path class="cls-2" d="M26.85,255.88c11.39-128.06,119-228.47,250-228.47s238.6,100.41,250,228.47"/><path class="cls-1" d="M513.76,300.36C502.41,421.23,400.67,515.81,276.83,515.81S51.26,421.23,39.92,300.36"/><path class="cls-1" d="M39.92,255.3C51.26,134.44,153,39.85,276.83,39.85S502.41,134.44,513.76,255.3"/><path class="cls-2" d="M26.85,300.45c11.44,128,119,228.37,250,228.37s238.61-100.4,250-228.46"/><path class="cls-2" d="M26.84,255.3c11.4-128,119-228.46,250-228.46s238.61,100.41,250,228.46"/><polygon points="368.44 200.89 355.64 177.51 331.5 165.74 355.36 154.54 367.66 129.55 379.67 154.54 403.85 165.71 379.67 176.7 368.44 200.89"/><path class="cls-3" d="M243.29,172.08c-3.06,4.36-21.41,29.16-28.53,38.77-1.47,2-3,3.87-4.65,5.72-4.74,5.47-16.42,22.49-5.92,48.49,12.91,32,79.13,185.36,79.13,185.36l50.16-152.28,22.93-60.24-50.24,132s-47.53-115.66-62-158.23,33.35-41.37,33.35-41.37l-137.24,3.25"/></svg>