<svg id="Слой_1" data-name="Слой 1" xmlns="http://www.w3.org/2000/svg" viewBox="0 0 550 550"><defs><style>.cls-1{fill:#f3c74a;}</style></defs><title>символы</title><path class="cls-1" d="M492.13,285.74c-19.7-22.67-53.2-31.52-81.77-21.18-13.3,4.42-25.61,13.29-36.94,25.13a131.27,131.27,0,0,0-1-13.3c0-7.89-.5-15.28-1-23.15-1-32-2-65-9.85-96.55-8.87-36.44-25.13-60.59-47.29-71.42a71.21,71.21,0,0,0-34-6.89c-40.39,1.48-62.55,39.91-71.93,63.05-11.81,27.6-18.22,56.15-22.16,77.83a6.24,6.24,0,0,1-.5,3c-4.43-40.39-16.26-73.39-34.48-99C138,106,122.69,96.12,106.43,95.14c-19.2-1-39.41,8.87-59.11,29.05l1.48,2c25.61-22.67,49.26-30.06,69-21.19,21.18,9.35,34.48,34.48,41.37,54.18C168,182.8,172.92,211.38,173.4,238c0,26.59,0,54.19-1,80.77,0,19.71-1,39.91-1,59.61,0,4.93,3.45,8.37,8.37,8.87a8.22,8.22,0,0,0,6.41-2.46,7.73,7.73,0,0,0,3-5.9c3.45-63.06,8.37-129.55,25.61-192.61,10.83-36.44,29.56-84.71,68-84.71,7.89,0,15.28,1.48,21.18,4.92,38.43,20.69,41.87,89.17,43.83,130.53v2.46a91.51,91.51,0,0,0,.51,11.82c.5,22.16,1,40.38,4.42,63.05-8.87,20.2-17.24,41.87-21.66,56.65l-1,3.94c-2.46,7.89-4.92,16.26-8.37,23.65-15.27,39.4-42.36,62.07-83.23,69a259.74,259.74,0,0,1-38.9,3.94v2.46h13.29c9.35,0,18.22,0,26.59-1.48,28.58-3,50.74-13.29,68-31C322.2,426.12,334,405,343.86,374.9c4.93-12.81,9.35-23.65,14.28-33.5,3.94,14.78,8.87,27.59,15.76,39.41,11.81,22.66,33,36,58.13,35.46,29.05,0,56.64-17.74,69.93-44.33,13.3-28.07,9.36-63.06-10.35-85.22ZM429.58,393.12c-14.77-.5-28.57-9.85-36-24.62-3-5.91-5.91-12.32-8.37-18.72-4.42-11.34-7.39-23.65-9.35-38.43q17.72-22.92,39.91-31c22.16-7.39,47.29,0,61.57,17.24,14.27,16.73,16.74,42.36,6.4,63.05-9.85,19.7-33,33.5-54.68,32Z"/></svg>