<svg id="Слой_1" data-name="Слой 1" xmlns="http://www.w3.org/2000/svg" viewBox="0 0 1000 870"><defs><style>.cls-1,.cls-2{fill:#3a3e6c;}.cls-2,.cls-3{stroke:#3a3e6c;}.cls-2{stroke-linecap:round;stroke-linejoin:round;stroke-width:2.9px;}.cls-3{fill:none;stroke-miterlimit:10;stroke-width:2.61px;}</style></defs><title>символы</title><path class="cls-1" d="M100,625.25h80.5v2.81q-9.15.86-13.18,2.8a14.27,14.27,0,0,0-6.09,5.68,15.81,15.81,0,0,0-2.32,8.35,23,23,0,0,0,.61,5.61q.6,2.44,3.66,10.61l36.1,98.18,35-86.1q7.32-18.18,7.32-26.47a25.27,25.27,0,0,0-1.46-8.66,15.15,15.15,0,0,0-3.91-6.22,14.47,14.47,0,0,0-5.36-2.93,28,28,0,0,0-7.56-.85v-2.81h54.27v2.81a29.92,29.92,0,0,0-11.65,3.29,32.89,32.89,0,0,0-9.45,8.17,63.23,63.23,0,0,0-6.4,10.68q-3.36,6.76-9.21,20.91l-50,120.63h-5.12L137.2,667.09Q127.69,642.57,122,636a21.2,21.2,0,0,0-9-6,39,39,0,0,0-13-1.89Z"/><path class="cls-1" d="M372.61,625.25v2.81a39.62,39.62,0,0,0-11.28,2,20.62,20.62,0,0,0-7.75,5.12q-4.75,4.89-5.85,13.54a133.31,133.31,0,0,0-.73,14.88v89.89a102.45,102.45,0,0,0,1,16,26,26,0,0,0,3.17,9.39,19.72,19.72,0,0,0,8.18,7.25q5,2.38,13.29,2.87v2.81H294.67v-2.81a38.21,38.21,0,0,0,11.41-2,20.82,20.82,0,0,0,7.62-5.06A19.81,19.81,0,0,0,319,772q1.33-6,1.34-18.54V663.55c0-8.37-4-25.81-6.59-28.42A19.49,19.49,0,0,0,306,630a40.43,40.43,0,0,0-11.35-2v-2.81Z"/><path class="cls-1" d="M441.74,710.26v43.18q0,12.43,1.4,18.48a20.44,20.44,0,0,0,12.81,15,38.2,38.2,0,0,0,11.4,2v2.81H389.42v-2.81a38.13,38.13,0,0,0,11.4-2,20.85,20.85,0,0,0,7.63-5.06,19.79,19.79,0,0,0,5.24-9.88q1.33-6,1.34-18.54V663.55Q415,651,413.69,645a19.84,19.84,0,0,0-5.24-9.88,19.52,19.52,0,0,0-7.69-5.12,40.42,40.42,0,0,0-11.34-2v-2.81h58.79q14.75,0,19.39.13,18.9.86,29.64,5.12A40.35,40.35,0,0,1,516,645.07a38.86,38.86,0,0,1,6.64,22.51q0,19-14.39,30.49a42.06,42.06,0,0,1-9.69,5.61,87.82,87.82,0,0,1-14.21,4.14q7.32,3.06,10.85,6.35a28.57,28.57,0,0,1,5.13,6.4q2.31,3.84,6.95,13.6,10.85,22.32,16.4,32.62T533,781.73a19.31,19.31,0,0,0,5.92,5.25,22.37,22.37,0,0,0,7.86,1.95v2.81H506.26q-3-6.71-3.9-8.54l-8.54-19.39A310.34,310.34,0,0,0,478.33,733q-7.8-13.29-14.27-18.17A21.11,21.11,0,0,0,457,711.3a35.58,35.58,0,0,0-9.27-1Zm-1.39-2.68H445q15.12,0,21.65-1.71a28.43,28.43,0,0,0,12.26-7.07q12.8-12.19,12.8-30.25A44.57,44.57,0,0,0,488,650.44a37.44,37.44,0,0,0-10.3-14,30,30,0,0,0-12.2-5.79Q458.4,629,445.36,629h-5Z"/><path class="cls-1" d="M691.22,625.25l1.46,53.06-2.81.24q-8.42-27.07-21.58-40.31A43.3,43.3,0,0,0,636.45,625q-14.51,0-24.94,5.92t-19.45,19.2q-18.3,27.21-18.3,62.21a110.59,110.59,0,0,0,4.39,31.52A83.28,83.28,0,0,0,591,770q16.35,21.94,39.88,22a40,40,0,0,0,17.44-3.9,35.36,35.36,0,0,0,20.62-33.3q0-12.07-6.53-17.44T640.84,732v-2.8h77.82V732q-10.74,1-15.06,3a12.71,12.71,0,0,0-6.41,6.89q-2.31,5.37-2.32,21.35,0,4.38.49,13.66l.25,2.8a22.51,22.51,0,0,0-6.83-1.71q-2.68,0-6.83,2.81A81.51,81.51,0,0,1,657.31,792a110.16,110.16,0,0,1-29.64,3.9q-21.46,0-38.72-7.32a69.06,69.06,0,0,1-28-21,73.92,73.92,0,0,1-12.38-24.4,101.83,101.83,0,0,1-4.33-30,104.83,104.83,0,0,1,7.8-40.61,81.33,81.33,0,0,1,22-31,84,84,0,0,1,26.71-15.25A94.75,94.75,0,0,1,632.67,621a85.32,85.32,0,0,1,18.12,1.82,94.57,94.57,0,0,1,17.74,6l7.2,3.29a12.82,12.82,0,0,0,4.87,1.1q4.89,0,7.44-7.93Z"/><path class="cls-1" d="M720.71,709.59a83.66,83.66,0,0,1,8.78-38A89.27,89.27,0,0,1,755.11,641a98.8,98.8,0,0,1,27.07-14.83A86.66,86.66,0,0,1,811.45,621a84.71,84.71,0,0,1,36.35,8.23,93.3,93.3,0,0,1,30.73,23.26Q900,676.89,900,708a82.94,82.94,0,0,1-5.61,30.14,85.57,85.57,0,0,1-16.34,26.49,92,92,0,0,1-31.17,23.07,90.68,90.68,0,0,1-74.7.24,88.41,88.41,0,0,1-30.49-22.46,81.32,81.32,0,0,1-15.55-25.81A84.9,84.9,0,0,1,720.71,709.59Zm29.52,1.83q0,35.4,19.27,59.69,8.65,10.86,18.35,15.8a48.59,48.59,0,0,0,22.38,5A49.51,49.51,0,0,0,832.74,787q9.69-4.89,18.47-15.87,19.27-24.4,19.27-60.17a127.48,127.48,0,0,0-5.3-37.17q-5.31-17.52-14.94-29.72-7.82-10-17.38-14.58t-22.63-4.58q-12.91,0-22.38,4.51t-17.5,14.65q-9.63,12.09-14.88,29.66A131.53,131.53,0,0,0,750.23,711.42Z"/><polygon class="cls-1" points="567.15 270.43 558.67 254.93 542.67 247.12 558.48 239.7 566.64 223.14 574.6 239.7 590.62 247.11 574.6 254.39 567.15 270.43"/><path class="cls-2" d="M485.57,251.33c-2,2.89-14.19,19.33-18.91,25.7-1,1.31-2,2.56-3.08,3.79-3.15,3.63-10.88,14.91-3.93,32.14,8.56,21.21,52.45,122.87,52.45,122.87l33.26-100.94L560.55,295l-33.3,87.48s-31.5-76.65-41.06-104.88,22.1-27.42,22.1-27.42l-91,2.16"/><path class="cls-3" d="M669,344.76V367.3a161.07,161.07,0,0,1-322.14,0V344.76"/><path class="cls-3" d="M346.82,308.93V286.28a161.07,161.07,0,0,1,322.14,0v22.65"/><path class="cls-3" d="M355.56,308.93V286.28a152.33,152.33,0,1,1,304.65,0v22.65"/><path class="cls-3" d="M660.21,344.76V367.3a152.33,152.33,0,0,1-304.65,0V344.76"/></svg>