<svg id="Слой_1" data-name="Слой 1" xmlns="http://www.w3.org/2000/svg" viewBox="0 0 1021 920"><defs><style>.cls-1{fill:none;stroke:#0a1123;stroke-linecap:round;stroke-miterlimit:10;stroke-width:8.14px;}</style></defs><title>символы</title><polyline class="cls-1" points="246.97 440.85 16.35 43.06 987.2 43.06 758.28 437.47"/><polyline class="cls-1" points="723.68 499.58 501.77 883.99 279.87 499.58"/><path class="cls-1" d="M546.8,498.16s-45.59-84.22,15.12-133.31"/><path class="cls-1" d="M490,522.2s-33.23-115.35,47.43-174.52"/><path class="cls-1" d="M421.91,702.5s34.3-110.94,81.15-130.77"/><path class="cls-1" d="M343.58,566.76S380.7,383.29,472,336.92"/><path class="cls-1" d="M312,512.05S316,404.86,455.26,322.78"/><path class="cls-1" d="M389.89,647.07s-5.79-217,133.5-332.28"/><path class="cls-1" d="M534.43,228.09s48-42,77.48-13.12,14.44-17.78,14.44-17.78,2.78-8.33,11.67,0,21.11,30.75,27.22,13.71,15-8.15,15-8.15l19.46,36.62a34.19,34.19,0,0,0,15.94,15.25c7.46,3.37,16.31,4.13,20.15-8,7.22-22.79,21.67,0,21.67,0s21.11,54.45,34.44,15c5-14.8-2.71-32.94-14.29-49.84C748.26,169,699.7,143,647.8,141.52c-58-1.65-141.7,16.6-232,103.5"/><path class="cls-1" d="M604.69,495.23s-71.2-51.78,15.1-155.44"/><path class="cls-1" d="M655.13,262.73s18.78-35.24,39.16-33.55"/><path class="cls-1" d="M389.89,647.07s79.17-207.51,274-137.21c13.5,4.88,19.38,14.76,17.87,21.06-1.83,7.61-8.09,12.46-16.14,9.24a50.77,50.77,0,0,1-8.21-4.19c-4-2.51-15.49-5.36-11.94,7.79,5.91,21.94-10,37.13-22.59,13.28-10.5-19.88-33.82-29.95-35.42-14.61-1.67,16,4.3,32.64-10.3,26.87-19.6-7.76-22.6-18.93-26.29-12.26-5.23,9.45,4.91,38.5-18.65,36.22a30.93,30.93,0,0,1-21.71-12.47C495.84,561,469.56,529.5,406.6,676"/><ellipse class="cls-1" cx="781.59" cy="305.37" rx="10.09" ry="12.9" transform="translate(0.29 611.49) rotate(-42.74)"/><path class="cls-1" d="M757.46,246.65s-121.4,135-14.12,180.54L954,62.8H52.63l195.66,339,14.64,25.35h0s45.79-92.51,137.57-122.32c13.43-4.36,33.58-4.64,59.89,23.14s35.21-7.74,35.21-7.74,13.74-52,33.45,9.73c8.73,27.39,28.72,40.73,44.75,32.79,13.77-6.81,6.85-32.43,3.2-42.52-13.28-36.71,26.58,4.6,34.47,13a38.9,38.9,0,0,0,3.72,3.54c14.72,12,23.35-.92,22.74-8.79s-3.58-18.27-5.12-23.13c-3.37-10.68-4.8-27.53,14.48-10.23,14.92,13.38,23.82,8.15,26.83,3.23,2.24-3.64-.68-13.64-2.3-17.6-7.24-17.66-77.71-69.1-211.43-46.7-157.16,26.32-212,168.22-212,168.22"/><path class="cls-1" d="M712.92,253.21S610,385.15,707.12,490.42h0L503.3,843.53,298.65,488.91h0S277,403.78,426.35,304.52"/><path class="cls-1" d="M582.72,570.44S550,650.65,598,679.53"/><path class="cls-1" d="M513.07,583.79s-78.5,108-65.08,163.9"/><path class="cls-1" d="M561.18,560.21S534.44,691,573,720.86"/><path class="cls-1" d="M552.87,757.65s-59.1-51.48-16.91-164.3"/><path class="cls-1" d="M515.91,821.68s-69.66-129.18,9.68-229.86"/><path class="cls-1" d="M625.06,560.68s-53.25,40.94-9.29,88"/></svg>