<svg id="Слой_1" data-name="Слой 1" xmlns="http://www.w3.org/2000/svg" viewBox="0 0 575 700"><defs><style>.cls-1,.cls-2{fill:#0a1123;}.cls-2,.cls-3{stroke:#0a1123;}.cls-2{stroke-linecap:round;stroke-linejoin:round;stroke-width:4.51px;}.cls-3{fill:none;stroke-miterlimit:10;stroke-width:4.05px;}</style></defs><title>символы</title><polygon class="cls-1" points="379.48 262.52 366.31 238.47 341.48 226.36 366.03 214.84 378.68 189.13 391.04 214.84 415.91 226.34 391.04 237.64 379.48 262.52"/><path class="cls-2" d="M252.85,232.88c-3.14,4.49-22,30-29.35,39.9-1.5,2-3.12,4-4.78,5.88-4.88,5.63-16.89,23.14-6.09,49.89C225.92,361.47,294,519.25,294,519.25l51.61-156.67,23.59-62L317.55,436.39s-48.9-119-63.73-162.78S288.13,231,288.13,231l-141.19,3.35"/><path class="cls-3" d="M537.5,377.9v35c0,138.07-111.93,250-250,250s-250-111.92-250-250v-35"/><path class="cls-3" d="M37.5,322.29V287.13a250,250,0,0,1,250-250c138.07,0,250,111.93,250,250v35.16"/><path class="cls-3" d="M51.06,322.29V287.13A236.43,236.43,0,0,1,287.5,50.7c130.58,0,236.43,105.85,236.43,236.43v35.16"/><path class="cls-3" d="M523.93,377.9v35c0,130.58-105.85,236.43-236.43,236.43S51.06,543.46,51.06,412.88v-35"/></svg>