<svg id="Слой_1" data-name="Слой 1" xmlns="http://www.w3.org/2000/svg" viewBox="0 0 550 550"><defs><style>.cls-1{fill:#0a1123;}</style></defs><title>символы</title><path class="cls-1" d="M131.31,326.5a86,86,0,0,0,86.21-86.2c0-47.73-29.23-76-68.69-84.26,70.13-41.9,171.44-49.68,256.67-19.48,40.91,15.1,73.56,38,95.47,66.24a4.53,4.53,0,0,0,7.31-5.36C486.86,165.78,453.73,140,411.37,122,325.64,86.88,220,88.82,142,126.32l-2.43,1c-14.61,7.31-39.46,19-63.81,44.33C48,200.35,45.09,229.1,45.09,240.31a86,86,0,0,0,86.2,86.2Zm0-142.71a57.48,57.48,0,1,1-57.47,57.48A57.59,57.59,0,0,1,131.31,183.79Z"/><path class="cls-1" d="M422.55,221.79a86,86,0,0,0-86.2,86.2c0,47.74,29.22,76,68.68,84.27-70.13,41.89-171.44,49.67-256.67,19.48-40.9-15.11-73.55-38-95.47-66.25a4.54,4.54,0,0,0-7.31,5.37c21.43,31.65,54.55,57.47,96.92,75.49C228.23,461.91,333.91,460,411.84,422l2.43-1c14.61-7.3,39.46-19,63.82-44.33,27.75-28.73,30.68-57.47,30.68-68.68a86,86,0,0,0-86.2-86.2Zm0,142.71A57.48,57.48,0,1,1,480,307,57.59,57.59,0,0,1,422.55,364.5Z"/></svg>