<svg id="Слой_1" data-name="Слой 1" xmlns="http://www.w3.org/2000/svg" viewBox="0 0 880 880"><defs><style>.cls-1{fill:#f3c74a;}.cls-2{fill:none;stroke:#f3c74a;stroke-miterlimit:10;stroke-width:6.63px;}</style></defs><title>символы</title><path class="cls-1" d="M639.09,256.06c-20-13.3-47.38-10-62.78,7.49-14.55,13.72-28.68,28.27-42.4,42.83-16.63,17.46-34.08,35.76-52.39,51.55-23.69-7.07-50.31-7.07-72.75,0C390.07,342.12,373,323.84,356,306.38c-13.72-14.13-27.44-29.11-42-42.41-15.36-17.48-43.22-20.8-63.17-7.91a2.71,2.71,0,0,0-.83,3.74,3.33,3.33,0,0,0,3.74,1.65c19.13-6.66,38.24-1.25,48.23,13.73,5,6.24,10.39,12.89,15.38,19.54,7.48,9.14,15,18.71,22.44,28.27l7.06,8.74c10.82,13.31,22.44,27,34.91,39.5-44.9,23.29-73.57,70.69-73.57,121.41,0,75.67,61.53,136.79,136.76,136.79S581.7,567.89,581.7,492.64,553,394.51,508.12,371.23c11.22-10.39,20.79-22.44,30.35-34.09,3.74-4.58,7.9-9.56,11.65-14.13,7.48-8.74,14.55-17.88,21.61-27,5.41-6.65,10.82-13.72,16.63-20.78,9.56-14.56,28.68-20,47.81-13.31a3.05,3.05,0,0,0,3.73-1.65c.83-1.25,0-2.91-.83-3.74ZM445,604.08c-61.53,0-111.82-50.32-111.82-111.85s29.1-88.14,72.33-104.37c.82,0,14.12-7.06,39.49-7.06s39.49,6.66,41.15,7.48a111.63,111.63,0,0,1,70.67,104c0,46.16-50.31,111.84-111.82,111.84Z"/><path class="cls-2" d="M824.4,474.76C806.26,668.11,643.53,819.41,445.48,819.41S84.72,668.11,66.58,474.76"/><path class="cls-2" d="M66.58,402.69C84.72,209.36,247.45,58.05,445.48,58.05S806.26,209.36,824.4,402.69"/><path class="cls-2" d="M45.68,474.92C64,679.7,236,840.22,445.48,840.22s381.61-160.6,399.83-365.46"/><path class="cls-2" d="M45.66,402.69C63.89,197.85,235.94,37.23,445.48,37.23S827.09,197.85,845.31,402.69"/><path class="cls-2" d="M824.39,473.84C806.25,667.19,643.52,818.48,445.47,818.48S84.71,667.19,66.57,473.84"/><path class="cls-2" d="M66.57,401.77C84.71,208.44,247.44,57.13,445.47,57.13S806.25,208.44,824.39,401.77"/><path class="cls-2" d="M45.67,474C64,678.78,236,839.3,445.47,839.3S827.08,678.7,845.31,473.84"/><path class="cls-2" d="M45.66,401.77C63.88,196.93,235.93,36.31,445.47,36.31S827.08,196.93,845.31,401.77"/></svg>