<svg id="Слой_1" data-name="Слой 1" xmlns="http://www.w3.org/2000/svg" viewBox="0 0 1000 870"><defs><style>.cls-1,.cls-2{stroke:#000;}.cls-1{stroke-linecap:round;stroke-linejoin:round;stroke-width:2.9px;}.cls-2{fill:none;stroke-miterlimit:10;stroke-width:2.61px;}</style></defs><title>символы</title><path d="M102.37,625.61h80.49v2.8q-9.15.86-13.17,2.81a14.38,14.38,0,0,0-6.1,5.67,15.93,15.93,0,0,0-2.32,8.35,23.5,23.5,0,0,0,.61,5.61q.62,2.45,3.66,10.61l36.11,98.19,35-86.11Q244,655.36,244,647.07a25.08,25.08,0,0,0-1.47-8.66,15.1,15.1,0,0,0-3.9-6.22,14.49,14.49,0,0,0-5.37-2.92,27.58,27.58,0,0,0-7.56-.86v-2.8H280v2.8a30,30,0,0,0-11.65,3.29,32.66,32.66,0,0,0-9.45,8.18,63,63,0,0,0-6.41,10.67q-3.34,6.76-9.2,20.92l-50,120.62h-5.12L139.57,667.44q-9.52-24.51-15.25-31.1a21.35,21.35,0,0,0-9-6,39,39,0,0,0-13-1.89Z"/><path d="M375,625.61v2.8a40.06,40.06,0,0,0-11.29,2,20.49,20.49,0,0,0-7.74,5.13q-4.76,4.88-5.85,13.53a133.11,133.11,0,0,0-.74,14.88v89.89a102.15,102.15,0,0,0,1,16,26,26,0,0,0,3.17,9.39,19.79,19.79,0,0,0,8.17,7.26q5,2.37,13.3,2.86v2.81H297v-2.81a38.07,38.07,0,0,0,11.4-2,20.73,20.73,0,0,0,7.63-5.06,19.72,19.72,0,0,0,5.24-9.88q1.35-6,1.34-18.54V663.9q0-12.55-1.34-18.54a19.68,19.68,0,0,0-5.24-9.87,19.44,19.44,0,0,0-7.69-5.13,40.65,40.65,0,0,0-11.34-2v-2.8Z"/><path d="M444.11,710.62v43.17q0,12.44,1.4,18.48a20.39,20.39,0,0,0,12.81,15,38.07,38.07,0,0,0,11.4,2v2.81H391.79v-2.81a38.2,38.2,0,0,0,11.4-2,20.69,20.69,0,0,0,7.62-5.06,19.81,19.81,0,0,0,5.25-9.88q1.33-6,1.34-18.54V663.9q0-12.55-1.34-18.54a19.77,19.77,0,0,0-5.25-9.87,19.33,19.33,0,0,0-7.68-5.13,40.79,40.79,0,0,0-11.34-2v-2.8h58.78q14.76,0,19.39.12,18.92.85,29.64,5.12a40.25,40.25,0,0,1,18.72,14.58,38.81,38.81,0,0,1,6.65,22.5q0,19-14.39,30.49a41.41,41.41,0,0,1-9.7,5.61,87.09,87.09,0,0,1-14.21,4.15q7.32,3,10.86,6.34a28.49,28.49,0,0,1,5.12,6.4q2.31,3.84,7,13.6,10.86,22.32,16.41,32.63t9.33,14.94a19.24,19.24,0,0,0,5.91,5.24,22.16,22.16,0,0,0,7.87,1.95v2.81H508.63q-3.06-6.71-3.91-8.54l-8.53-19.39A313.63,313.63,0,0,0,480.7,733.3q-7.81-13.29-14.27-18.17a21.25,21.25,0,0,0-7.08-3.48,35.62,35.62,0,0,0-9.27-1Zm-1.39-2.69h4.64q15.12,0,21.64-1.7a28.5,28.5,0,0,0,12.26-7.08q12.81-12.2,12.81-30.25a44.57,44.57,0,0,0-3.72-18.11,37.42,37.42,0,0,0-10.31-14,29.76,29.76,0,0,0-12.19-5.8q-7.08-1.63-20.13-1.64h-5Z"/><path d="M693.58,625.61l1.46,53-2.8.25q-8.41-27.09-21.59-40.31a43.24,43.24,0,0,0-31.83-13.24q-14.52,0-24.94,5.92t-19.46,19.21q-18.28,27.19-18.29,62.2a110.36,110.36,0,0,0,4.39,31.53,83.12,83.12,0,0,0,12.81,26.16q16.33,21.95,39.88,22a40,40,0,0,0,17.44-3.9,35.3,35.3,0,0,0,20.61-33.3q0-12.07-6.52-17.44t-21.53-5.36v-2.81H721v2.81q-10.72,1-15.06,3a12.76,12.76,0,0,0-6.4,6.89q-2.32,5.37-2.32,21.35,0,4.4.49,13.66L698,780a22.65,22.65,0,0,0-6.83-1.7c-1.79,0-4.06.93-6.83,2.8a81.34,81.34,0,0,1-24.63,11.22,110.21,110.21,0,0,1-29.64,3.9q-21.46,0-38.73-7.31a69.21,69.21,0,0,1-28-21,74.35,74.35,0,0,1-12.38-24.39,102.23,102.23,0,0,1-4.33-30,104.83,104.83,0,0,1,7.81-40.61,81.31,81.31,0,0,1,22-31,84.13,84.13,0,0,1,26.71-15.25,95.09,95.09,0,0,1,32-5.36,84.63,84.63,0,0,1,18.11,1.83,94.33,94.33,0,0,1,17.75,6l7.19,3.3a13.07,13.07,0,0,0,4.88,1.09q4.88,0,7.44-7.92Z"/><path d="M723.08,710a83.54,83.54,0,0,1,8.78-38,89.13,89.13,0,0,1,25.61-30.58,99,99,0,0,1,27.08-14.82,86.35,86.35,0,0,1,29.27-5.19,84.5,84.5,0,0,1,36.34,8.24,93.17,93.17,0,0,1,30.74,23.25q21.47,24.4,21.47,55.53a83.2,83.2,0,0,1-5.61,30.15A85.48,85.48,0,0,1,880.41,765a92,92,0,0,1-31.16,23.07,90.68,90.68,0,0,1-74.7.24,88.32,88.32,0,0,1-30.49-22.46A81.13,81.13,0,0,1,728.51,740,84.88,84.88,0,0,1,723.08,710Zm29.51,1.83q0,35.38,19.27,59.68,8.67,10.86,18.36,15.81a48.66,48.66,0,0,0,22.38,4.94,49.44,49.44,0,0,0,22.5-4.88q9.71-4.89,18.48-15.87,19.27-24.4,19.27-60.17a127.48,127.48,0,0,0-5.31-37.17q-5.29-17.5-14.94-29.72-7.8-10-17.38-14.58t-22.62-4.58q-12.93,0-22.38,4.52t-17.5,14.64q-9.65,12.09-14.88,29.66A131.2,131.2,0,0,0,752.59,711.78Z"/><polygon points="569.51 270.78 561.03 255.28 545.03 247.48 560.85 240.06 569 223.49 576.96 240.06 592.99 247.46 576.96 254.75 569.51 270.78"/><path class="cls-1" d="M487.93,251.68c-2,2.89-14.19,19.33-18.91,25.7-1,1.31-2,2.56-3.08,3.79-3.14,3.63-10.88,14.91-3.92,32.14,8.56,21.22,52.45,122.87,52.45,122.87l33.25-100.94,15.2-39.93-33.3,87.49s-31.51-76.66-41.06-104.88,22.1-27.42,22.1-27.42l-91,2.15"/><path class="cls-2" d="M671.32,345.11v22.54a161.07,161.07,0,0,1-322.13,0V345.11"/><path class="cls-2" d="M349.19,309.28V286.63a161.07,161.07,0,1,1,322.13,0v22.65"/><path class="cls-2" d="M357.93,309.28V286.63a152.33,152.33,0,1,1,304.65,0v22.65"/><path class="cls-2" d="M662.58,345.11v22.54a152.33,152.33,0,0,1-304.65,0V345.11"/></svg>