<svg id="Слой_1" data-name="Слой 1" xmlns="http://www.w3.org/2000/svg" viewBox="0 0 880 880"><defs><style>.cls-1{fill:none;stroke:#0a1123;stroke-miterlimit:10;stroke-width:6.63px;}.cls-2{fill:#0a1123;}</style></defs><title>символы</title><path class="cls-1" d="M820.4,471.42C802.25,664.77,639.53,816.06,441.48,816.06S80.71,664.77,62.57,471.42"/><path class="cls-1" d="M62.57,399.35C80.71,206,243.44,54.71,441.48,54.71S802.25,206,820.4,399.35"/><path class="cls-1" d="M41.67,471.58C60,676.36,232,836.88,441.48,836.88s381.6-160.6,399.83-365.46"/><path class="cls-1" d="M41.66,399.35C59.88,194.51,231.93,33.89,441.48,33.89s381.6,160.62,399.83,365.46"/><path class="cls-1" d="M820.39,470.5C802.25,663.85,639.52,815.14,441.47,815.14S80.71,663.85,62.56,470.5"/><path class="cls-1" d="M62.56,398.43C80.71,205.1,243.43,53.78,441.47,53.78S802.25,205.1,820.39,398.43"/><path class="cls-1" d="M41.67,470.66C60,675.44,232,836,441.47,836S823.08,675.36,841.3,470.5"/><path class="cls-1" d="M41.65,398.43C59.88,193.59,231.92,33,441.47,33S823.08,193.59,841.3,398.43"/><path class="cls-2" d="M534.22,560V306.86q5.09-1.92,10.14-3.8c30.85-12.68,61.7-35.5,71.83-68.47-18.58,26.2-48.59,41.43-78.6,49.88-76.9,19.84-214.24,20.27-264.94-49.89,13.1,35.92,43.94,59.6,81.56,72.69V560.42l-10.14,3.8c-30.85,12.68-61.7,35.49-71.83,68.46,18.58-26.2,48.59-41.42,78.6-49.87C427.33,563,564.66,562.1,615.78,632.68c-13.11-35.92-43.94-59.6-81.56-72.69Zm-156.34-6.34V314c43.52,10.13,92.53,8.88,132.26,0V553.67C466.61,543.53,417.61,544.79,377.88,553.67Z"/></svg>