<svg id="Слой_1" data-name="Слой 1" xmlns="http://www.w3.org/2000/svg" viewBox="0 0 880 880"><defs><style>.cls-1{fill:#0a1123;}.cls-2{fill:none;stroke:#0a1123;stroke-miterlimit:10;stroke-width:6.63px;}</style></defs><title>символы</title><path class="cls-1" d="M596.05,544.84c40.41-23.44,44.38-76.33,44.38-93.79,0-28.43-2.49-74.32-23.44-89.28-8.47-6-18-8.48-27.43-7-7.48,1-14.45,5-20.45,10.49v-.51c0-26.93-.51-57.37-18-82.82-14-20.46-45.39-26.93-66.82-13.46-17.45,12-29.42,32.42-37.4,63.35-2.5-10.49-6-20-9.47-29.93-11-25.94-31.91-42.41-54.86-42.41h-1c-22.95,0-42.39,16.47-52.37,43.4-5.49,14-8.47,28.94-11,45.89-4-27.44-12.47-48.89-25.94-63.35-14.45-15.47-30.43-18.45-38.39-19C241.46,266,227,268,208.05,286.43c-3.49,3-13,16-11.48,18s13.46-9.47,17-12.47c15-12.47,29.92-16.95,43.39-13.47,19.44,5,35.41,27.44,43.89,60.86,6,23.95,8,48.38,10,76.81,1,10,2.5,101.75,9,101.75s9.46-94.27,10-104.24c2-35.43,9.47-98.78,33.41-124.71,10.48-10.49,28.93-10.49,40.41,0,19.95,19.44,22.95,35.42,30.92,77.82,4,20.95,5,47.9,6,75.34,1.5,37.41,2.49,51.39,6.49,51.39s5-13,6.48-49.89c1-26.44,2.5-55.38,6.49-78.31,9.47-49.89,30.43-83.3,51.86-83.3,37.91,0,37.91,58.87,37.91,101.75v24.94c-.5,42.91-3.48,85.31,24,130.21-24.43,19.45-71.81,24.44-72.32,27.94s39.39,5,80.31-15.47c24.93,25.45,90.76,20.95,90.76,17.46s-52.87-2-75.32-25.45Zm-9.49-13.47c-15-25.44-20.45-41.89-18.95-85.31s10.48-70.83,26.92-70.83S620,398.67,620,445.58s-16,74.83-33.91,85.79Z"/><path class="cls-2" d="M818.08,473.54C799.94,666.88,637.21,818.18,439.16,818.18S78.4,666.88,60.25,473.54"/><path class="cls-2" d="M60.25,401.46C78.4,208.13,241.12,56.82,439.16,56.82S799.94,208.13,818.08,401.46"/><path class="cls-2" d="M39.36,473.69C57.66,678.48,229.67,839,439.16,839S820.77,678.39,839,473.54"/><path class="cls-2" d="M39.34,401.46C57.57,196.62,229.62,36,439.16,36S820.77,196.62,839,401.46"/><path class="cls-2" d="M818.07,472.61C799.93,666,637.2,817.26,439.15,817.26S78.39,666,60.25,472.61"/><path class="cls-2" d="M60.25,400.54C78.39,207.21,241.12,55.9,439.15,55.9S799.93,207.21,818.07,400.54"/><path class="cls-2" d="M39.35,472.77c18.3,204.78,190.31,365.3,399.8,365.3S820.76,677.47,839,472.61"/><path class="cls-2" d="M39.33,400.54C57.56,195.7,229.61,35.08,439.15,35.08S820.76,195.7,839,400.54"/></svg>