<svg id="Слой_1" data-name="Слой 1" xmlns="http://www.w3.org/2000/svg" viewBox="0 0 1000 870"><defs><style>.cls-1,.cls-2{fill:#fff;}.cls-2,.cls-3{stroke:#fff;}.cls-2{stroke-linecap:round;stroke-linejoin:round;stroke-width:2.9px;}.cls-3{fill:none;stroke-miterlimit:10;stroke-width:2.61px;}</style></defs><title>символы</title><path class="cls-1" d="M102.37,625.25h80.49v2.81q-9.15.86-13.17,2.8a14.35,14.35,0,0,0-6.1,5.68,15.91,15.91,0,0,0-2.32,8.35,23.5,23.5,0,0,0,.61,5.61q.62,2.44,3.66,10.61l36.11,98.18,35-86.1Q244,655,244,646.72a25,25,0,0,0-1.47-8.66,15,15,0,0,0-3.9-6.22,14.51,14.51,0,0,0-5.37-2.93,28,28,0,0,0-7.56-.85v-2.81H280v2.81a29.82,29.82,0,0,0-11.65,3.29,32.76,32.76,0,0,0-9.45,8.17,63.19,63.19,0,0,0-6.41,10.68q-3.34,6.76-9.2,20.91l-50,120.63h-5.12L139.57,667.09Q130,642.57,124.32,636a21.26,21.26,0,0,0-9-6,39,39,0,0,0-13-1.89Z"/><path class="cls-1" d="M375,625.25v2.81a39.7,39.7,0,0,0-11.29,2,20.58,20.58,0,0,0-7.74,5.12q-4.76,4.89-5.85,13.54a133.11,133.11,0,0,0-.74,14.88v89.89a102.24,102.24,0,0,0,1,16,26,26,0,0,0,3.17,9.39,19.7,19.7,0,0,0,8.17,7.25q5,2.38,13.3,2.87v2.81H297v-2.81a38.07,38.07,0,0,0,11.4-2,20.85,20.85,0,0,0,7.63-5.06,19.72,19.72,0,0,0,5.24-9.88q1.35-6,1.34-18.54V663.55c0-8.37-4-25.81-6.58-28.42a19.52,19.52,0,0,0-7.69-5.12,40.29,40.29,0,0,0-11.34-2v-2.81Z"/><path class="cls-1" d="M444.11,710.26v43.18q0,12.43,1.4,18.48a20.63,20.63,0,0,0,5.18,9.94,20.85,20.85,0,0,0,7.63,5.06,38.07,38.07,0,0,0,11.4,2v2.81H391.79v-2.81a38.2,38.2,0,0,0,11.4-2,20.82,20.82,0,0,0,7.62-5.06,19.81,19.81,0,0,0,5.25-9.88q1.33-6,1.34-18.54V663.55q0-12.56-1.34-18.54a19.85,19.85,0,0,0-5.25-9.88,19.42,19.42,0,0,0-7.68-5.12,40.42,40.42,0,0,0-11.34-2v-2.81h58.78q14.76,0,19.39.13,18.92.86,29.64,5.12a40.3,40.3,0,0,1,18.72,14.57A38.87,38.87,0,0,1,525,667.58q0,19-14.39,30.49a42.13,42.13,0,0,1-9.7,5.61,87.21,87.21,0,0,1-14.21,4.14q7.32,3.06,10.86,6.35a28.27,28.27,0,0,1,5.12,6.4q2.31,3.84,7,13.6,10.86,22.32,16.41,32.62t9.33,14.94a19.29,19.29,0,0,0,5.91,5.25,22.37,22.37,0,0,0,7.87,1.95v2.81H508.63q-3.06-6.71-3.91-8.54l-8.53-19.39A312.51,312.51,0,0,0,480.7,733q-7.81-13.29-14.27-18.17a21.25,21.25,0,0,0-7.08-3.48,35.58,35.58,0,0,0-9.27-1Zm-1.39-2.68h4.64q15.12,0,21.64-1.71a28.37,28.37,0,0,0,12.26-7.07q12.81-12.19,12.81-30.25a44.57,44.57,0,0,0-3.72-18.11,37.46,37.46,0,0,0-10.31-14,29.88,29.88,0,0,0-12.19-5.79Q460.77,629,447.72,629h-5Z"/><path class="cls-1" d="M693.58,625.25,695,678.31l-2.8.24q-8.41-27.07-21.59-40.31A43.27,43.27,0,0,0,638.82,625q-14.52,0-24.94,5.92t-19.46,19.2q-18.28,27.21-18.29,62.21a110.24,110.24,0,0,0,4.39,31.52A83.28,83.28,0,0,0,593.33,770q16.33,21.94,39.88,22a40,40,0,0,0,17.44-3.9,35.33,35.33,0,0,0,20.61-33.3q0-12.07-6.52-17.44T643.21,732v-2.8H721V732q-10.72,1-15.06,3a12.73,12.73,0,0,0-6.4,6.89q-2.32,5.37-2.32,21.35,0,4.38.49,13.66l.24,2.8a22.44,22.44,0,0,0-6.83-1.71c-1.79,0-4.06.94-6.83,2.81A81.34,81.34,0,0,1,659.68,792a110.21,110.21,0,0,1-29.64,3.9q-21.46,0-38.73-7.32a69.19,69.19,0,0,1-28-21,74.3,74.3,0,0,1-12.38-24.4,102.17,102.17,0,0,1-4.33-30,104.83,104.83,0,0,1,7.81-40.61,81.31,81.31,0,0,1,22-31,84.13,84.13,0,0,1,26.71-15.25A94.85,94.85,0,0,1,635,621a85.3,85.3,0,0,1,18.11,1.82,94.41,94.41,0,0,1,17.75,6l7.19,3.29a12.9,12.9,0,0,0,4.88,1.1q4.88,0,7.44-7.93Z"/><path class="cls-1" d="M723.08,709.59a83.53,83.53,0,0,1,8.78-38A89.13,89.13,0,0,1,757.47,641a99,99,0,0,1,27.08-14.83A86.58,86.58,0,0,1,813.82,621a84.63,84.63,0,0,1,36.34,8.23,93.34,93.34,0,0,1,30.74,23.26q21.47,24.4,21.47,55.53a83.15,83.15,0,0,1-5.61,30.14,85.41,85.41,0,0,1-16.35,26.49,92,92,0,0,1-31.16,23.07,90.68,90.68,0,0,1-74.7.24,88.32,88.32,0,0,1-30.49-22.46,81.13,81.13,0,0,1-15.55-25.81A84.9,84.9,0,0,1,723.08,709.59Zm29.51,1.83q0,35.4,19.27,59.69,8.67,10.86,18.36,15.8a48.53,48.53,0,0,0,22.38,5A49.44,49.44,0,0,0,835.1,787q9.71-4.89,18.48-15.87,19.27-24.4,19.27-60.17a127.48,127.48,0,0,0-5.31-37.17q-5.29-17.52-14.94-29.72-7.8-10-17.38-14.58t-22.62-4.58q-12.93,0-22.38,4.51t-17.5,14.65q-9.65,12.09-14.88,29.66A131.18,131.18,0,0,0,752.59,711.42Z"/><polygon class="cls-1" points="569.51 270.43 561.03 254.93 545.03 247.12 560.85 239.7 569 223.14 576.96 239.7 592.99 247.11 576.96 254.39 569.51 270.43"/><path class="cls-2" d="M487.93,251.33c-2,2.89-14.19,19.33-18.91,25.7-1,1.31-2,2.56-3.08,3.79-3.14,3.63-10.88,14.91-3.92,32.14,8.56,21.21,52.45,122.87,52.45,122.87l33.25-100.94L562.92,295l-33.3,87.48s-31.51-76.65-41.06-104.88,22.1-27.42,22.1-27.42l-91,2.16"/><path class="cls-3" d="M671.32,344.76V367.3a161.07,161.07,0,0,1-322.13,0V344.76"/><path class="cls-3" d="M349.19,308.93V286.28a161.07,161.07,0,1,1,322.13,0v22.65"/><path class="cls-3" d="M357.93,308.93V286.28a152.33,152.33,0,1,1,304.65,0v22.65"/><path class="cls-3" d="M662.58,344.76V367.3a152.33,152.33,0,0,1-304.65,0V344.76"/></svg>