<svg id="Слой_1" data-name="Слой 1" xmlns="http://www.w3.org/2000/svg" viewBox="0 0 880 880"><defs><style>.cls-1,.cls-2,.cls-3{fill:none;stroke:#f3c74a;stroke-miterlimit:10;}.cls-1{stroke-width:6.63px;}.cls-2{stroke-width:4.72px;}.cls-3{stroke-width:4.98px;}.cls-4{fill:#f3c74a;}</style></defs><title>символы</title><path class="cls-1" d="M824.44,473.86C806.29,667.21,643.57,818.5,445.52,818.5S84.76,667.21,66.61,473.86"/><path class="cls-2" d="M66.61,401.79C84.76,208.46,247.48,57.15,445.52,57.15S806.29,208.46,824.44,401.79"/><path class="cls-1" d="M45.72,474C64,678.8,236,839.32,445.52,839.32s381.6-160.6,399.83-365.46"/><path class="cls-3" d="M45.7,401.79C63.93,197,236,36.33,445.52,36.33S827.12,197,845.35,401.79"/><path class="cls-4" d="M638.23,237.86a13.34,13.34,0,0,0-9.71-3.8C566,234.06,485,236.17,412,246.3a1.27,1.27,0,1,0,0,2.54c49.81,6.76,108.49,10.56,183.63,11.83L430.94,425.34c-34.2-33.35-62.89-56.16-92-74.73h-1.68a1.26,1.26,0,0,0,0,1.68c18.56,29.13,41.78,57.84,74.71,92-69.22,70.1-101.74,105.13-167.59,185a1.86,1.86,0,0,0,0,2.11l.84.43H246c80.21-66.29,114.83-98.39,184.91-167.63,34.2,33.35,62.9,56.17,92,74.74h1.68a1.27,1.27,0,0,0,0-1.69c-18.57-29.12-41.79-57.84-74.72-92.05l165.5-165.12c.84,44.77,2.54,85.72,5.9,125,.43,4.65.84,9.71,1.27,15.2,1.27,14.78,2.54,30.83,4.65,43.91a1.35,1.35,0,0,0,1.27,1.27,1.13,1.13,0,0,0,1.27-1.27c5.07-34.62,7.61-75.58,9.72-111.47,1.68-32.09,2.54-66.71,2.54-105.13a13.41,13.41,0,0,0-3.8-9.71Z"/></svg>