<svg id="Слой_1" data-name="Слой 1" xmlns="http://www.w3.org/2000/svg" viewBox="0 0 550 550"><defs><style>.cls-1{fill:#f3c74a;}</style></defs><title>символы</title><path class="cls-1" d="M370.69,406.57V144.07l10.52-3.93c32-13.15,64-36.81,74.5-71-19.28,27.16-50.4,42.95-81.53,51.71-79.75,20.58-222.18,21-274.77-51.73C113,106.38,145,130.93,184,144.5V407l-10.51,3.94c-32,13.14-64,36.8-74.5,71,19.27-27.17,50.39-42.95,81.52-51.72,79.33-20.59,221.76-21.47,274.77,51.72-13.59-37.25-45.57-61.8-84.59-75.38ZM208.55,400V151.52c45.14,10.51,96,9.21,137.17,0V400C300.58,389.49,249.75,390.79,208.55,400Z"/></svg>