<svg id="Слой_1" data-name="Слой 1" xmlns="http://www.w3.org/2000/svg" viewBox="0 0 880 880"><defs><style>.cls-1{fill:#f3c74a;stroke-linecap:round;stroke-linejoin:round;stroke-width:7.48px;}.cls-1,.cls-2{stroke:#f3c74a;}.cls-2{fill:none;stroke-miterlimit:10;stroke-width:6.63px;}</style></defs><title>символы</title><path class="cls-1" d="M667.07,551.92c-68.48-6.51-138.37-7.92-222.23-8.39-71.29,0-147.23,1.4-222.23,8.39-.47,0-.93.48-.93,1.4s.48,1.41.93,1.41c75,6.51,150.94,7.91,222.23,8.39,72.69,0,149.57-1.86,222.23-8.39.48,0,.93-.48.93-1.41S667.53,551.92,667.07,551.92Z"/><path class="cls-1" d="M667.07,478.77c-42.86-2.33-87.59-3.74-130.93-5.14-6.06,0-12.57,0-18.63-.47,22.82-20,35.87-50.33,35.87-82a104.88,104.88,0,0,0-41.46-83.88c-22.82-18.64-54.05-26.56-84.79-21.45-31.21,5.14-58.24,22.83-74.07,48-28.88,43.34-20,104.84,19.11,139.32-54.05,1.4-109,3.26-149.56,5.59a1.86,1.86,0,1,0,0,3.71c43.33,2.33,92.25,3.73,131.38,5.13h15.38c9.31,0,18.63.48,28.42.48a7.68,7.68,0,0,0,7-4.19,10.22,10.22,0,0,0,.93-6.52,7.86,7.86,0,0,0-4.19-5.13,97.43,97.43,0,0,1-22.82-18.64c-16.3-17.71-24.22-42.87-21.89-68s14.9-48,34-62a88.44,88.44,0,0,1,142.13,62c2.33,25.15-5.59,50.33-21.9,68a113,113,0,0,1-23.29,19.11A8.19,8.19,0,0,0,484,482a7.84,7.84,0,0,0,7.46,6.07h0c9.79,0,19.11,0,28.43-.48h15.37c43.79-1.4,89.93-2.8,131.38-5.13a1.86,1.86,0,1,0,0-3.71Z"/><path class="cls-2" d="M821.89,476.12C803.74,669.46,641,820.76,443,820.76S82.21,669.46,64.06,476.12"/><path class="cls-2" d="M64.06,404C82.21,210.71,244.93,59.4,443,59.4S803.74,210.71,821.89,404"/><path class="cls-2" d="M43.16,476.27C61.47,681.06,233.48,841.58,443,841.58S824.57,681,842.8,476.12"/><path class="cls-2" d="M43.15,404C61.38,199.2,233.42,38.58,443,38.58S824.57,199.2,842.8,404"/><path class="cls-2" d="M821.88,475.2C803.74,668.54,641,819.84,443,819.84S82.2,668.54,64.05,475.2"/><path class="cls-2" d="M64.05,403.12C82.2,209.79,244.92,58.48,443,58.48S803.74,209.79,821.88,403.12"/><path class="cls-2" d="M43.16,475.35C61.46,680.14,233.47,840.66,443,840.66S824.57,680.05,842.79,475.2"/><path class="cls-2" d="M43.14,403.12C61.37,198.28,233.41,37.66,443,37.66S824.57,198.28,842.79,403.12"/></svg>