<svg id="Слой_1" data-name="Слой 1" xmlns="http://www.w3.org/2000/svg" viewBox="0 0 880 880"><defs><style>.cls-1{fill:#0a1123;}.cls-2{fill:none;stroke:#0a1123;stroke-miterlimit:10;stroke-width:6.63px;}</style></defs><title>символы</title><path class="cls-1" d="M598,436.48a835.11,835.11,0,0,0-85.44-8.62c1.56-63.9,15.28-143.48,70.54-177.57.78-.4.78-1.18.78-2s-1.17-1.18-1.95-.79c-55.27,18.82-90.54,84.28-94.06,179.54-14.12-.4-28.62-.78-44.29-.78s-29.79,0-43.89.78c-.4-38.42-6.66-73.3-16.46-100.74-7.82-21.57-31.73-72.93-78.37-78.81-.78,0-1.56.4-1.56,1.18s0,1.56.78,2c33.71,13.72,54.87,46.64,65.07,105.44a561.79,561.79,0,0,1,5.48,72.12c-31.75,1.56-59.57,4.31-85.44,8.62-.78,0-1.18.78-1.18,1.56s.4,1.56,1.18,1.56c25.87,3.92,53.69,6.66,85.44,8.62-1.56,63.9-15.28,143.48-70.54,177.57-.79.4-.79,1.18-.79,2,0,.4.79.79,1.57.79h.39c55.27-18.82,90.54-84.28,94.06-179.54,14.12.4,28.61.78,44.29.78s29.79,0,43.89-.78c.4,38,6.66,73.3,16.46,100.74,7.84,21.56,31.75,72.92,78.38,78.8.78,0,1.56-.4,1.56-1.18s0-1.57-.78-2c-33.71-13.72-54.87-46.64-65.06-105.44a555.88,555.88,0,0,1-5.48-72.12c31.75-1.56,59.56-4.32,85.44-8.62.78,0,1.18-.78,1.18-1.56s-.4-1.56-1.18-1.56Z"/><path class="cls-2" d="M822,475.12C803.82,668.46,641.1,819.76,443,819.76S82.28,668.46,64.14,475.12"/><path class="cls-2" d="M64.14,403C82.28,209.71,245,58.4,443,58.4S803.82,209.71,822,403"/><path class="cls-2" d="M43.24,475.27C61.54,680.06,233.55,840.58,443,840.58S824.65,680,842.88,475.12"/><path class="cls-2" d="M43.23,403C61.45,198.2,233.5,37.58,443,37.58S824.65,198.2,842.88,403"/><path class="cls-2" d="M822,474.2C803.81,667.54,641.09,818.84,443,818.84S82.28,667.54,64.13,474.2"/><path class="cls-2" d="M64.13,402.12C82.28,208.79,245,57.48,443,57.48S803.81,208.79,822,402.12"/><path class="cls-2" d="M43.24,474.35C61.54,679.14,233.55,839.66,443,839.66S824.64,679.05,842.87,474.2"/><path class="cls-2" d="M43.22,402.12C61.45,197.28,233.49,36.66,443,36.66s381.6,160.62,399.83,365.46"/></svg>