<svg id="Слой_1" data-name="Слой 1" xmlns="http://www.w3.org/2000/svg" viewBox="0 0 1021 920"><defs><style>.cls-1,.cls-2{fill:none;stroke:#0a1123;stroke-miterlimit:10;stroke-width:8.12px;}.cls-1{stroke-linecap:round;}</style></defs><title>символы</title><line class="cls-1" x1="298.44" y1="724.81" x2="726.44" y2="724.81"/><line class="cls-1" x1="298.55" y1="742.36" x2="726.55" y2="742.36"/><path class="cls-1" d="M478.44,335.46l1.89,1c5.29,2.37,8.41,8.53,6.46,14.13-1.15,3.3-3.88,6.18-9.73,6.8-15.05,1.58-30.86-26-14.28-47.63s41.57-12.68,41.57-12.68,69.6,24.61,11.18,88.75"/><polyline class="cls-1" points="762.03 435.78 982.76 41.01 42.56 41.01 266.17 439.39"/><polyline class="cls-1" points="297.76 497.41 512.66 881.73 727.56 497.41"/><path class="cls-1" d="M742.32,427.9,947.63,60.75H74.75L280.07,426.47a.87.87,0,0,0,1.54,0c6.71-12.7,58.07-103.29,121-22.74,2.2,2.82,6.79-.36,6.76-4-.12-11.7,3.11-31.81,24.94-40.69a5.72,5.72,0,0,0,1.31-9.62c-13.45-11.19-36.53-37.41-33.62-84,3.27-52.36,54.08-58,76.36-52.12,5.69,1.52,5.62,1.4,7.85-4.22,4.88-12.33,14.66-40.52,49.4-41.51,55.6-1.58,55.63,57.82,55.63,57.82s.51,42.66-40.8,43.19-34.69-52.67-10.72-52.67S555,233.79,555,233.79"/><path class="cls-2" d="M332.16,510.08c52.64-15.41,142.39,3,108.22,95.91,0,0,74.22,29-14.5,82.88"/><path class="cls-1" d="M546.33,434.22s91.74-84,117.1,37.63c.35,1.69,1.65,2.92,3.3,2.63,9.85-1.73,33.27-3,36.74,22.93h0L511.19,841.27,320.05,487"/><path class="cls-1" d="M772.34,374.23s8.82-64.13-39.45-88.13c-52.16-25.94-79.89,5.83-80.23,3.87-7.51-43.52-17-53.06-42.6-53.06-26.88,0-32,25.86-31.91,35.55s4.46,24.33,19.21,24.68,18.77-11.5,16.25-17.57c-4-9.71-11.44-3.81-11.44-3.81"/><path class="cls-1" d="M441,539.38S428.89,499.55,469.46,458c26.77-27.45,65.58-31.35,87.9-18.8,22.85,12.84,35.94,39.22,30.52,65.49-1.57,7.61-4.58,14.88-9.91,20.35-19,19.44-47.27,6.33-47.44-9.29-.07-6.13,2.45-9.26,5.53-10.79a20.59,20.59,0,0,1,3.39-1.33,10.08,10.08,0,0,1,12.74,8.33h0"/><path class="cls-2" d="M407.61,308.93s-78.38-17.3-83.52,69.3"/><path class="cls-1" d="M464.69,624.4s9.38-30.6,49.91-30.6c39,0,52.82,32.27,41.19,68.06a2.52,2.52,0,0,0,2.75,3.34c10.69-1.85,37.84-3.8,37.48,24.37"/></svg>